<?xml version="1.0" standalone="no"?>
  <!DOCTYPE svg PUBLIC "-//W3C//DTD SVG 1.1//EN" "http://www.w3.org/Graphics/SVG/1.1/DTD/svg11.dtd" >
  <svg>
  <metadata>
  Created by font-carrier
  </metadata>
  <defs>
  <font id="MullerThinDEMO" horiz-adv-x="1262" vert-adv-y="1262" >
    <font-face
      
      font-family="Muller Thin DEMO"
      
      font-weight="400"
      
      font-stretch="normal"
      
      units-per-em="1000"
      
      ascent="780"
      
      descent="-220"
      
    />
      <missing-glyph />

      

      
      <glyph glyph-name="unic1" unicode="&#xc1;" d="M16 0L338 700L367 700L688 0L661 0L562 215L142 215L43 0L16 0M153 239L553 239L360 660Q358 665 356.50 668.50Q355 672 353 676Q351 672 349.50 668.50Q348 665 346 660L153 239M112 914L612 914L612 749L112 749L112 914M169 787L200 787Q223 787 235 799Q247 811 247 831Q247 849 235 862Q223 875 200 875L169 875L169 787M184 859L200 859Q215 859 223 851Q231 843 231 831Q231 802 200 802L184 802L184 859M288 802L288 823L334 823L334 839L288 839L288 859L334 859L334 875L272 875L272 787L334 787L334 802L288 802M453 787L453 875L432 875L406 839L380 875L359 875L359 787L376 787L376 853L406 814L437 854L437 787L453 787M523 880Q504 880 491 866.50Q478 853 478 833Q478 814 489 800Q500 786 523 786Q547 786 558.50 800Q570 814 570 833Q570 855 556.50 867.50Q543 880 523 880M493 833Q493 845 500.50 855Q508 865 523 865Q539 865 546.50 855Q554 845 554 833Q554 820 547 810.50Q540 801 523 801Q508 801 500.50 811.50Q493 822 493 833Z"  horiz-adv-x="704" vert-adv-y="1000"  />

      
      <glyph glyph-name="uni0102" unicode="&#x0102;" d="M16 0L338 700L367 700L688 0L661 0L562 215L142 215L43 0L16 0M153 239L553 239L360 660Q358 665 356.50 668.50Q355 672 353 676Q351 672 349.50 668.50Q348 665 346 660L153 239M97 914L597 914L597 749L97 749L97 914M154 787L185 787Q208 787 220 799Q232 811 232 831Q232 849 220 862Q208 875 185 875L154 875L154 787M169 859L185 859Q200 859 208 851Q216 843 216 831Q216 802 185 802L169 802L169 859M273 802L273 823L319 823L319 839L273 839L273 859L319 859L319 875L257 875L257 787L319 787L319 802L273 802M438 787L438 875L417 875L391 839L365 875L344 875L344 787L361 787L361 853L391 814L422 854L422 787L438 787M508 880Q489 880 476 866.50Q463 853 463 833Q463 814 474 800Q485 786 508 786Q532 786 543.50 800Q555 814 555 833Q555 855 541.50 867.50Q528 880 508 880M478 833Q478 845 485.50 855Q493 865 508 865Q524 865 531.50 855Q539 845 539 833Q539 820 532 810.50Q525 801 508 801Q493 801 485.50 811.50Q478 822 478 833Z"  horiz-adv-x="704" vert-adv-y="1000"  />

      
      <glyph glyph-name="unic2" unicode="&#xc2;" d="M16 0L338 700L367 700L688 0L661 0L562 215L142 215L43 0L16 0M153 239L553 239L360 660Q358 665 356.50 668.50Q355 672 353 676Q351 672 349.50 668.50Q348 665 346 660L153 239M86 914L586 914L586 749L86 749L86 914M143 787L174 787Q197 787 209 799Q221 811 221 831Q221 849 209 862Q197 875 174 875L143 875L143 787M158 859L174 859Q189 859 197 851Q205 843 205 831Q205 802 174 802L158 802L158 859M262 802L262 823L308 823L308 839L262 839L262 859L308 859L308 875L246 875L246 787L308 787L308 802L262 802M427 787L427 875L406 875L380 839L354 875L333 875L333 787L350 787L350 853L380 814L411 854L411 787L427 787M497 880Q478 880 465 866.50Q452 853 452 833Q452 814 463 800Q474 786 497 786Q521 786 532.50 800Q544 814 544 833Q544 855 530.50 867.50Q517 880 497 880M467 833Q467 845 474.50 855Q482 865 497 865Q513 865 520.50 855Q528 845 528 833Q528 820 521 810.50Q514 801 497 801Q482 801 474.50 811.50Q467 822 467 833Z"  horiz-adv-x="704" vert-adv-y="1000"  />

      
      <glyph glyph-name="unic4" unicode="&#xc4;" d="M16 0L338 700L367 700L688 0L661 0L562 215L142 215L43 0L16 0M153 239L553 239L360 660Q358 665 356.50 668.50Q355 672 353 676Q351 672 349.50 668.50Q348 665 346 660L153 239M92 914L592 914L592 749L92 749L92 914M149 787L180 787Q203 787 215 799Q227 811 227 831Q227 849 215 862Q203 875 180 875L149 875L149 787M164 859L180 859Q195 859 203 851Q211 843 211 831Q211 802 180 802L164 802L164 859M268 802L268 823L314 823L314 839L268 839L268 859L314 859L314 875L252 875L252 787L314 787L314 802L268 802M433 787L433 875L412 875L386 839L360 875L339 875L339 787L356 787L356 853L386 814L417 854L417 787L433 787M503 880Q484 880 471 866.50Q458 853 458 833Q458 814 469 800Q480 786 503 786Q527 786 538.50 800Q550 814 550 833Q550 855 536.50 867.50Q523 880 503 880M473 833Q473 845 480.50 855Q488 865 503 865Q519 865 526.50 855Q534 845 534 833Q534 820 527 810.50Q520 801 503 801Q488 801 480.50 811.50Q473 822 473 833Z"  horiz-adv-x="704" vert-adv-y="1000"  />

      
      <glyph glyph-name="unic0" unicode="&#xc0;" d="M16 0L338 700L367 700L688 0L661 0L562 215L142 215L43 0L16 0M153 239L553 239L360 660Q358 665 356.50 668.50Q355 672 353 676Q351 672 349.50 668.50Q348 665 346 660L153 239M97 913L597 913L597 748L97 748L97 913M154 786L185 786Q208 786 220 798Q232 810 232 830Q232 848 220 861Q208 874 185 874L154 874L154 786M169 858L185 858Q200 858 208 850Q216 842 216 830Q216 801 185 801L169 801L169 858M273 801L273 822L319 822L319 838L273 838L273 858L319 858L319 874L257 874L257 786L319 786L319 801L273 801M438 786L438 874L417 874L391 838L365 874L344 874L344 786L361 786L361 852L391 813L422 853L422 786L438 786M508 879Q489 879 476 865.50Q463 852 463 832Q463 813 474 799Q485 785 508 785Q532 785 543.50 799Q555 813 555 832Q555 854 541.50 866.50Q528 879 508 879M478 832Q478 844 485.50 854Q493 864 508 864Q524 864 531.50 854Q539 844 539 832Q539 819 532 809.50Q525 800 508 800Q493 800 485.50 810.50Q478 821 478 832Z"  horiz-adv-x="704" vert-adv-y="1000"  />

      
      <glyph glyph-name="uni0100" unicode="&#x0100;" d="M16 0L338 700L367 700L688 0L661 0L562 215L142 215L43 0L16 0M153 239L553 239L360 660Q358 665 356.50 668.50Q355 672 353 676Q351 672 349.50 668.50Q348 665 346 660L153 239M92 914L592 914L592 749L92 749L92 914M149 787L180 787Q203 787 215 799Q227 811 227 831Q227 849 215 862Q203 875 180 875L149 875L149 787M164 859L180 859Q195 859 203 851Q211 843 211 831Q211 802 180 802L164 802L164 859M268 802L268 823L314 823L314 839L268 839L268 859L314 859L314 875L252 875L252 787L314 787L314 802L268 802M433 787L433 875L412 875L386 839L360 875L339 875L339 787L356 787L356 853L386 814L417 854L417 787L433 787M503 880Q484 880 471 866.50Q458 853 458 833Q458 814 469 800Q480 786 503 786Q527 786 538.50 800Q550 814 550 833Q550 855 536.50 867.50Q523 880 503 880M473 833Q473 845 480.50 855Q488 865 503 865Q519 865 526.50 855Q534 845 534 833Q534 820 527 810.50Q520 801 503 801Q488 801 480.50 811.50Q473 822 473 833Z"  horiz-adv-x="704" vert-adv-y="1000"  />

      
      <glyph glyph-name="uni0104" unicode="&#x0104;" d="M16 0L338 700L367 700L688 0L661 0L562 215L142 215L43 0L16 0M153 239L553 239L360 660Q358 665 356.50 668.50Q355 672 353 676Q351 672 349.50 668.50Q348 665 346 660L153 239Z"  horiz-adv-x="704" vert-adv-y="1000"  />

      
      <glyph glyph-name="unic5" unicode="&#xc5;" d="M16 0L338 700L367 700L688 0L661 0L562 215L142 215L43 0L16 0M153 239L553 239L360 660Q358 665 356.50 668.50Q355 672 353 676Q351 672 349.50 668.50Q348 665 346 660L153 239M88 914L588 914L588 749L88 749L88 914M145 787L176 787Q199 787 211 799Q223 811 223 831Q223 849 211 862Q199 875 176 875L145 875L145 787M160 859L176 859Q191 859 199 851Q207 843 207 831Q207 802 176 802L160 802L160 859M264 802L264 823L310 823L310 839L264 839L264 859L310 859L310 875L248 875L248 787L310 787L310 802L264 802M429 787L429 875L408 875L382 839L356 875L335 875L335 787L352 787L352 853L382 814L413 854L413 787L429 787M499 880Q480 880 467 866.50Q454 853 454 833Q454 814 465 800Q476 786 499 786Q523 786 534.50 800Q546 814 546 833Q546 855 532.50 867.50Q519 880 499 880M469 833Q469 845 476.50 855Q484 865 499 865Q515 865 522.50 855Q530 845 530 833Q530 820 523 810.50Q516 801 499 801Q484 801 476.50 811.50Q469 822 469 833Z"  horiz-adv-x="704" vert-adv-y="1000"  />

      
      <glyph glyph-name="unic3" unicode="&#xc3;" d="M16 0L338 700L367 700L688 0L661 0L562 215L142 215L43 0L16 0M153 239L553 239L360 660Q358 665 356.50 668.50Q355 672 353 676Q351 672 349.50 668.50Q348 665 346 660L153 239M85 914L585 914L585 749L85 749L85 914M142 787L173 787Q196 787 208 799Q220 811 220 831Q220 849 208 862Q196 875 173 875L142 875L142 787M157 859L173 859Q188 859 196 851Q204 843 204 831Q204 802 173 802L157 802L157 859M261 802L261 823L307 823L307 839L261 839L261 859L307 859L307 875L245 875L245 787L307 787L307 802L261 802M426 787L426 875L405 875L379 839L353 875L332 875L332 787L349 787L349 853L379 814L410 854L410 787L426 787M496 880Q477 880 464 866.50Q451 853 451 833Q451 814 462 800Q473 786 496 786Q520 786 531.50 800Q543 814 543 833Q543 855 529.50 867.50Q516 880 496 880M466 833Q466 845 473.50 855Q481 865 496 865Q512 865 519.50 855Q527 845 527 833Q527 820 520 810.50Q513 801 496 801Q481 801 473.50 811.50Q466 822 466 833Z"  horiz-adv-x="704" vert-adv-y="1000"  />

      
      <glyph glyph-name="unic6" unicode="&#xc6;" d="M71 0L71 700L303 700L303 0L71 0M247 77L247 125Q247 157 228 171.50Q209 186 186 185Q163 185 144.50 171Q126 157 126 125L126 77L247 77M148 125Q147 145 159.50 153Q172 161 186 163Q200 163 213 154.50Q226 146 226 125L226 99L148 99L148 125M226 243L198 243L198 308L177 308L177 243L149 243L149 310L126 310L126 220L247 220L247 310L226 310L226 243M247 477L126 477L126 451L179 412L126 375L126 349L247 349L247 371L160 371L213 410L213 414L160 455L247 455L247 477M123 574Q123 548 141 530Q159 512 188 512Q211 512 231 527Q251 542 251 574Q251 606 230.50 620.50Q210 635 187 636Q164 636 143.50 621Q123 606 123 574M188 534Q170 533 157 543.50Q144 554 145 574Q145 596 159 605Q173 614 188 614Q203 612 216 604Q229 596 229 574Q229 552 216 543Q203 534 188 534Z"  horiz-adv-x="373" vert-adv-y="1000"  />

      
      <glyph glyph-name="uni42" unicode="&#x42;" d="M357 700Q408 700 451 690Q494 680 525 658.50Q556 637 573.50 604Q591 571 591 525Q591 490 579 463Q567 436 547.50 416.50Q528 397 503 384.50Q478 372 451 368Q477 363 506.50 352.50Q536 342 561 321Q586 300 602.50 267.50Q619 235 619 188Q619 126 592.50 88.50Q566 51 526 31.50Q486 12 438.50 6Q391 0 349 0L105 0L105 700L357 700M594 190Q594 243 571 275.50Q548 308 515.50 325.50Q483 343 446.50 349Q410 355 382 355L130 355L130 24L346 24Q386 24 430 29Q474 34 510.50 51Q547 68 570.50 101Q594 134 594 190M566 523Q566 564 551 593Q536 622 508 640.50Q480 659 441.50 667.50Q403 676 356 676L130 676L130 379L392 379Q425 379 456.50 388.50Q488 398 512 416.50Q536 435 551 461.50Q566 488 566 523Z"  horiz-adv-x="674" vert-adv-y="1000"  />

      
      <glyph glyph-name="uni43" unicode="&#x43;" d="M53 341Q53 433 84.50 502Q116 571 167 617.50Q218 664 282.50 687Q347 710 412 710Q465 710 515.50 698Q566 686 608 662L608 637Q568 660 518 673Q468 686 415 686Q353 686 293 664.50Q233 643 185 600Q137 557 107.50 492.50Q78 428 78 341Q78 257 108 195.50Q138 134 186 93.50Q234 53 294.50 33.50Q355 14 417 14Q532 14 617 64L617 39Q533-10 413-10Q348-10 283.50 11Q219 32 168 75.50Q117 119 85 185Q53 251 53 341Z"  horiz-adv-x="658" vert-adv-y="1000"  />

      
      <glyph glyph-name="uni0106" unicode="&#x0106;" d="M53 341Q53 433 84.50 502Q116 571 167 617.50Q218 664 282.50 687Q347 710 412 710Q465 710 515.50 698Q566 686 608 662L608 637Q568 660 518 673Q468 686 415 686Q353 686 293 664.50Q233 643 185 600Q137 557 107.50 492.50Q78 428 78 341Q78 257 108 195.50Q138 134 186 93.50Q234 53 294.50 33.50Q355 14 417 14Q532 14 617 64L617 39Q533-10 413-10Q348-10 283.50 11Q219 32 168 75.50Q117 119 85 185Q53 251 53 341M164 914L664 914L664 749L164 749L164 914M221 787L252 787Q275 787 287 799Q299 811 299 831Q299 849 287 862Q275 875 252 875L221 875L221 787M236 859L252 859Q267 859 275 851Q283 843 283 831Q283 802 252 802L236 802L236 859M340 802L340 823L386 823L386 839L340 839L340 859L386 859L386 875L324 875L324 787L386 787L386 802L340 802M505 787L505 875L484 875L458 839L432 875L411 875L411 787L428 787L428 853L458 814L489 854L489 787L505 787M575 880Q556 880 543 866.50Q530 853 530 833Q530 814 541 800Q552 786 575 786Q599 786 610.50 800Q622 814 622 833Q622 855 608.50 867.50Q595 880 575 880M545 833Q545 845 552.50 855Q560 865 575 865Q591 865 598.50 855Q606 845 606 833Q606 820 599 810.50Q592 801 575 801Q560 801 552.50 811.50Q545 822 545 833Z"  horiz-adv-x="658" vert-adv-y="1000"  />

      
      <glyph glyph-name="uni010C" unicode="&#x010C;" d="M53 341Q53 433 84.50 502Q116 571 167 617.50Q218 664 282.50 687Q347 710 412 710Q465 710 515.50 698Q566 686 608 662L608 637Q568 660 518 673Q468 686 415 686Q353 686 293 664.50Q233 643 185 600Q137 557 107.50 492.50Q78 428 78 341Q78 257 108 195.50Q138 134 186 93.50Q234 53 294.50 33.50Q355 14 417 14Q532 14 617 64L617 39Q533-10 413-10Q348-10 283.50 11Q219 32 168 75.50Q117 119 85 185Q53 251 53 341M157 913L657 913L657 748L157 748L157 913M214 786L245 786Q268 786 280 798Q292 810 292 830Q292 848 280 861Q268 874 245 874L214 874L214 786M229 858L245 858Q260 858 268 850Q276 842 276 830Q276 801 245 801L229 801L229 858M333 801L333 822L379 822L379 838L333 838L333 858L379 858L379 874L317 874L317 786L379 786L379 801L333 801M498 786L498 874L477 874L451 838L425 874L404 874L404 786L421 786L421 852L451 813L482 853L482 786L498 786M568 879Q549 879 536 865.50Q523 852 523 832Q523 813 534 799Q545 785 568 785Q592 785 603.50 799Q615 813 615 832Q615 854 601.50 866.50Q588 879 568 879M538 832Q538 844 545.50 854Q553 864 568 864Q584 864 591.50 854Q599 844 599 832Q599 819 592 809.50Q585 800 568 800Q553 800 545.50 810.50Q538 821 538 832Z"  horiz-adv-x="658" vert-adv-y="1000"  />

      
      <glyph glyph-name="unic7" unicode="&#xc7;" d="M53 341Q53 433 84.50 502Q116 571 167 617.50Q218 664 282.50 687Q347 710 412 710Q465 710 515.50 698Q566 686 608 662L608 637Q568 660 518 673Q468 686 415 686Q353 686 293 664.50Q233 643 185 600Q137 557 107.50 492.50Q78 428 78 341Q78 257 108 195.50Q138 134 186 93.50Q234 53 294.50 33.50Q355 14 417 14Q532 14 617 64L617 39Q533-10 413-10Q348-10 283.50 11Q219 32 168 75.50Q117 119 85 185Q53 251 53 341Z"  horiz-adv-x="658" vert-adv-y="1000"  />

      
      <glyph glyph-name="uni010A" unicode="&#x010A;" d="M53 341Q53 433 84.50 502Q116 571 167 617.50Q218 664 282.50 687Q347 710 412 710Q465 710 515.50 698Q566 686 608 662L608 637Q568 660 518 673Q468 686 415 686Q353 686 293 664.50Q233 643 185 600Q137 557 107.50 492.50Q78 428 78 341Q78 257 108 195.50Q138 134 186 93.50Q234 53 294.50 33.50Q355 14 417 14Q532 14 617 64L617 39Q533-10 413-10Q348-10 283.50 11Q219 32 168 75.50Q117 119 85 185Q53 251 53 341M139 914L639 914L639 749L139 749L139 914M196 787L227 787Q250 787 262 799Q274 811 274 831Q274 849 262 862Q250 875 227 875L196 875L196 787M211 859L227 859Q242 859 250 851Q258 843 258 831Q258 802 227 802L211 802L211 859M315 802L315 823L361 823L361 839L315 839L315 859L361 859L361 875L299 875L299 787L361 787L361 802L315 802M480 787L480 875L459 875L433 839L407 875L386 875L386 787L403 787L403 853L433 814L464 854L464 787L480 787M550 880Q531 880 518 866.50Q505 853 505 833Q505 814 516 800Q527 786 550 786Q574 786 585.50 800Q597 814 597 833Q597 855 583.50 867.50Q570 880 550 880M520 833Q520 845 527.50 855Q535 865 550 865Q566 865 573.50 855Q581 845 581 833Q581 820 574 810.50Q567 801 550 801Q535 801 527.50 811.50Q520 822 520 833Z"  horiz-adv-x="658" vert-adv-y="1000"  />

      
      <glyph glyph-name="uni44" unicode="&#x44;" d="M304 700Q398 700 468 673.50Q538 647 584.50 600.50Q631 554 653.50 489.50Q676 425 676 350Q676 275 653.50 210.50Q631 146 584.50 99.50Q538 53 468 26.50Q398 0 304 0L105 0L105 700L304 700M651 350Q651 421 630 481Q609 541 566 584.50Q523 628 457.50 652Q392 676 304 676L130 676L130 24L304 24Q392 24 457.50 48Q523 72 566 115.50Q609 159 630 219Q651 279 651 350Z"  horiz-adv-x="730" vert-adv-y="1000"  />

      
      <glyph glyph-name="unid0" unicode="&#xd0;" d="M304 700Q398 700 468 673.50Q538 647 584.50 600.50Q631 554 653.50 489.50Q676 425 676 350Q676 275 653.50 210.50Q631 146 584.50 99.50Q538 53 468 26.50Q398 0 304 0L105 0L105 700L304 700M304 24Q392 24 457.50 48Q523 72 566 115.50Q609 159 630 219Q651 279 651 350Q651 421 630 481Q609 541 566 584.50Q523 628 457.50 652Q392 676 304 676L130 676L130 24L304 24Z"  horiz-adv-x="730" vert-adv-y="1000"  />

      
      <glyph glyph-name="uni010E" unicode="&#x010E;" d="M304 700Q398 700 468 673.50Q538 647 584.50 600.50Q631 554 653.50 489.50Q676 425 676 350Q676 275 653.50 210.50Q631 146 584.50 99.50Q538 53 468 26.50Q398 0 304 0L105 0L105 700L304 700M651 350Q651 421 630 481Q609 541 566 584.50Q523 628 457.50 652Q392 676 304 676L130 676L130 24L304 24Q392 24 457.50 48Q523 72 566 115.50Q609 159 630 219Q651 279 651 350M97 913L597 913L597 748L97 748L97 913M154 786L185 786Q208 786 220 798Q232 810 232 830Q232 848 220 861Q208 874 185 874L154 874L154 786M169 858L185 858Q200 858 208 850Q216 842 216 830Q216 801 185 801L169 801L169 858M273 801L273 822L319 822L319 838L273 838L273 858L319 858L319 874L257 874L257 786L319 786L319 801L273 801M438 786L438 874L417 874L391 838L365 874L344 874L344 786L361 786L361 852L391 813L422 853L422 786L438 786M508 879Q489 879 476 865.50Q463 852 463 832Q463 813 474 799Q485 785 508 785Q532 785 543.50 799Q555 813 555 832Q555 854 541.50 866.50Q528 879 508 879M478 832Q478 844 485.50 854Q493 864 508 864Q524 864 531.50 854Q539 844 539 832Q539 819 532 809.50Q525 800 508 800Q493 800 485.50 810.50Q478 821 478 832Z"  horiz-adv-x="730" vert-adv-y="1000"  />

      
      <glyph glyph-name="uni0110" unicode="&#x0110;" d="M304 700Q398 700 468 673.50Q538 647 584.50 600.50Q631 554 653.50 489.50Q676 425 676 350Q676 275 653.50 210.50Q631 146 584.50 99.50Q538 53 468 26.50Q398 0 304 0L105 0L105 700L304 700M304 24Q392 24 457.50 48Q523 72 566 115.50Q609 159 630 219Q651 279 651 350Q651 421 630 481Q609 541 566 584.50Q523 628 457.50 652Q392 676 304 676L130 676L130 24L304 24Z"  horiz-adv-x="730" vert-adv-y="1000"  />

      
      <glyph glyph-name="uni45" unicode="&#x45;" d="M560 700L560 676L130 676L130 364L530 364L530 340L130 340L130 24L569 24L569 0L105 0L105 700L560 700Z"  horiz-adv-x="628" vert-adv-y="1000"  />

      
      <glyph glyph-name="unic9" unicode="&#xc9;" d="M560 700L560 676L130 676L130 364L530 364L530 340L130 340L130 24L569 24L569 0L105 0L105 700L560 700M93 914L593 914L593 749L93 749L93 914M150 787L181 787Q204 787 216 799Q228 811 228 831Q228 849 216 862Q204 875 181 875L150 875L150 787M165 859L181 859Q196 859 204 851Q212 843 212 831Q212 802 181 802L165 802L165 859M269 802L269 823L315 823L315 839L269 839L269 859L315 859L315 875L253 875L253 787L315 787L315 802L269 802M434 787L434 875L413 875L387 839L361 875L340 875L340 787L357 787L357 853L387 814L418 854L418 787L434 787M504 880Q485 880 472 866.50Q459 853 459 833Q459 814 470 800Q481 786 504 786Q528 786 539.50 800Q551 814 551 833Q551 855 537.50 867.50Q524 880 504 880M474 833Q474 845 481.50 855Q489 865 504 865Q520 865 527.50 855Q535 845 535 833Q535 820 528 810.50Q521 801 504 801Q489 801 481.50 811.50Q474 822 474 833Z"  horiz-adv-x="628" vert-adv-y="1000"  />

      
      <glyph glyph-name="uni011A" unicode="&#x011A;" d="M560 700L560 676L130 676L130 364L530 364L530 340L130 340L130 24L569 24L569 0L105 0L105 700L560 700M86 913L586 913L586 748L86 748L86 913M143 786L174 786Q197 786 209 798Q221 810 221 830Q221 848 209 861Q197 874 174 874L143 874L143 786M158 858L174 858Q189 858 197 850Q205 842 205 830Q205 801 174 801L158 801L158 858M262 801L262 822L308 822L308 838L262 838L262 858L308 858L308 874L246 874L246 786L308 786L308 801L262 801M427 786L427 874L406 874L380 838L354 874L333 874L333 786L350 786L350 852L380 813L411 853L411 786L427 786M497 879Q478 879 465 865.50Q452 852 452 832Q452 813 463 799Q474 785 497 785Q521 785 532.50 799Q544 813 544 832Q544 854 530.50 866.50Q517 879 497 879M467 832Q467 844 474.50 854Q482 864 497 864Q513 864 520.50 854Q528 844 528 832Q528 819 521 809.50Q514 800 497 800Q482 800 474.50 810.50Q467 821 467 832Z"  horiz-adv-x="628" vert-adv-y="1000"  />

      
      <glyph glyph-name="unica" unicode="&#xca;" d="M560 700L560 676L130 676L130 364L530 364L530 340L130 340L130 24L569 24L569 0L105 0L105 700L560 700M67 914L567 914L567 749L67 749L67 914M124 787L155 787Q178 787 190 799Q202 811 202 831Q202 849 190 862Q178 875 155 875L124 875L124 787M139 859L155 859Q170 859 178 851Q186 843 186 831Q186 802 155 802L139 802L139 859M243 802L243 823L289 823L289 839L243 839L243 859L289 859L289 875L227 875L227 787L289 787L289 802L243 802M408 787L408 875L387 875L361 839L335 875L314 875L314 787L331 787L331 853L361 814L392 854L392 787L408 787M478 880Q459 880 446 866.50Q433 853 433 833Q433 814 444 800Q455 786 478 786Q502 786 513.50 800Q525 814 525 833Q525 855 511.50 867.50Q498 880 478 880M448 833Q448 845 455.50 855Q463 865 478 865Q494 865 501.50 855Q509 845 509 833Q509 820 502 810.50Q495 801 478 801Q463 801 455.50 811.50Q448 822 448 833Z"  horiz-adv-x="628" vert-adv-y="1000"  />

      
      <glyph glyph-name="unicb" unicode="&#xcb;" d="M560 700L560 676L130 676L130 364L530 364L530 340L130 340L130 24L569 24L569 0L105 0L105 700L560 700M73 914L573 914L573 749L73 749L73 914M130 787L161 787Q184 787 196 799Q208 811 208 831Q208 849 196 862Q184 875 161 875L130 875L130 787M145 859L161 859Q176 859 184 851Q192 843 192 831Q192 802 161 802L145 802L145 859M249 802L249 823L295 823L295 839L249 839L249 859L295 859L295 875L233 875L233 787L295 787L295 802L249 802M414 787L414 875L393 875L367 839L341 875L320 875L320 787L337 787L337 853L367 814L398 854L398 787L414 787M484 880Q465 880 452 866.50Q439 853 439 833Q439 814 450 800Q461 786 484 786Q508 786 519.50 800Q531 814 531 833Q531 855 517.50 867.50Q504 880 484 880M454 833Q454 845 461.50 855Q469 865 484 865Q500 865 507.50 855Q515 845 515 833Q515 820 508 810.50Q501 801 484 801Q469 801 461.50 811.50Q454 822 454 833Z"  horiz-adv-x="628" vert-adv-y="1000"  />

      
      <glyph glyph-name="uni0116" unicode="&#x0116;" d="M560 700L560 676L130 676L130 364L530 364L530 340L130 340L130 24L569 24L569 0L105 0L105 700L560 700M68 914L568 914L568 749L68 749L68 914M125 787L156 787Q179 787 191 799Q203 811 203 831Q203 849 191 862Q179 875 156 875L125 875L125 787M140 859L156 859Q171 859 179 851Q187 843 187 831Q187 802 156 802L140 802L140 859M244 802L244 823L290 823L290 839L244 839L244 859L290 859L290 875L228 875L228 787L290 787L290 802L244 802M409 787L409 875L388 875L362 839L336 875L315 875L315 787L332 787L332 853L362 814L393 854L393 787L409 787M479 880Q460 880 447 866.50Q434 853 434 833Q434 814 445 800Q456 786 479 786Q503 786 514.50 800Q526 814 526 833Q526 855 512.50 867.50Q499 880 479 880M449 833Q449 845 456.50 855Q464 865 479 865Q495 865 502.50 855Q510 845 510 833Q510 820 503 810.50Q496 801 479 801Q464 801 456.50 811.50Q449 822 449 833Z"  horiz-adv-x="628" vert-adv-y="1000"  />

      
      <glyph glyph-name="unic8" unicode="&#xc8;" d="M560 700L560 676L130 676L130 364L530 364L530 340L130 340L130 24L569 24L569 0L105 0L105 700L560 700M78 913L578 913L578 748L78 748L78 913M135 786L166 786Q189 786 201 798Q213 810 213 830Q213 848 201 861Q189 874 166 874L135 874L135 786M150 858L166 858Q181 858 189 850Q197 842 197 830Q197 801 166 801L150 801L150 858M254 801L254 822L300 822L300 838L254 838L254 858L300 858L300 874L238 874L238 786L300 786L300 801L254 801M419 786L419 874L398 874L372 838L346 874L325 874L325 786L342 786L342 852L372 813L403 853L403 786L419 786M489 879Q470 879 457 865.50Q444 852 444 832Q444 813 455 799Q466 785 489 785Q513 785 524.50 799Q536 813 536 832Q536 854 522.50 866.50Q509 879 489 879M459 832Q459 844 466.50 854Q474 864 489 864Q505 864 512.50 854Q520 844 520 832Q520 819 513 809.50Q506 800 489 800Q474 800 466.50 810.50Q459 821 459 832Z"  horiz-adv-x="628" vert-adv-y="1000"  />

      
      <glyph glyph-name="uni0112" unicode="&#x0112;" d="M560 700L560 676L130 676L130 364L530 364L530 340L130 340L130 24L569 24L569 0L105 0L105 700L560 700M73 914L573 914L573 749L73 749L73 914M130 787L161 787Q184 787 196 799Q208 811 208 831Q208 849 196 862Q184 875 161 875L130 875L130 787M145 859L161 859Q176 859 184 851Q192 843 192 831Q192 802 161 802L145 802L145 859M249 802L249 823L295 823L295 839L249 839L249 859L295 859L295 875L233 875L233 787L295 787L295 802L249 802M414 787L414 875L393 875L367 839L341 875L320 875L320 787L337 787L337 853L367 814L398 854L398 787L414 787M484 880Q465 880 452 866.50Q439 853 439 833Q439 814 450 800Q461 786 484 786Q508 786 519.50 800Q531 814 531 833Q531 855 517.50 867.50Q504 880 484 880M454 833Q454 845 461.50 855Q469 865 484 865Q500 865 507.50 855Q515 845 515 833Q515 820 508 810.50Q501 801 484 801Q469 801 461.50 811.50Q454 822 454 833Z"  horiz-adv-x="628" vert-adv-y="1000"  />

      
      <glyph glyph-name="uni0118" unicode="&#x0118;" d="M560 700L560 676L130 676L130 364L530 364L530 340L130 340L130 24L569 24L569 0L105 0L105 700L560 700Z"  horiz-adv-x="628" vert-adv-y="1000"  />

      
      <glyph glyph-name="uni46" unicode="&#x46;" d="M561 700L561 676L130 676L130 357L532 357L532 333L130 333L130 0L105 0L105 700L561 700Z"  horiz-adv-x="592" vert-adv-y="1000"  />

      
      <glyph glyph-name="uni47" unicode="&#x47;" d="M54 350Q54 445 86 513Q118 581 170 625Q222 669 288 689.50Q354 710 422 710Q476 710 528 698.50Q580 687 624 664L624 639Q582 662 529 674Q476 686 424 686Q360 686 298 667Q236 648 187.50 607.50Q139 567 109 503.50Q79 440 79 350Q79 260 109.50 196Q140 132 189.50 91.50Q239 51 302 32.50Q365 14 430 14Q481 14 529 24Q577 34 618 54L618 365L643 365L643 37Q595 14 540.50 2Q486-10 429-10Q359-10 291.50 10Q224 30 171.50 73.50Q119 117 86.50 185.50Q54 254 54 350Z"  horiz-adv-x="710" vert-adv-y="1000"  />

      
      <glyph glyph-name="uni011E" unicode="&#x011E;" d="M54 350Q54 445 86 513Q118 581 170 625Q222 669 288 689.50Q354 710 422 710Q476 710 528 698.50Q580 687 624 664L624 639Q582 662 529 674Q476 686 424 686Q360 686 298 667Q236 648 187.50 607.50Q139 567 109 503.50Q79 440 79 350Q79 260 109.50 196Q140 132 189.50 91.50Q239 51 302 32.50Q365 14 430 14Q481 14 529 24Q577 34 618 54L618 365L643 365L643 37Q595 14 540.50 2Q486-10 429-10Q359-10 291.50 10Q224 30 171.50 73.50Q119 117 86.50 185.50Q54 254 54 350M152 914L652 914L652 749L152 749L152 914M209 787L240 787Q263 787 275 799Q287 811 287 831Q287 849 275 862Q263 875 240 875L209 875L209 787M224 859L240 859Q255 859 263 851Q271 843 271 831Q271 802 240 802L224 802L224 859M328 802L328 823L374 823L374 839L328 839L328 859L374 859L374 875L312 875L312 787L374 787L374 802L328 802M493 787L493 875L472 875L446 839L420 875L399 875L399 787L416 787L416 853L446 814L477 854L477 787L493 787M563 880Q544 880 531 866.50Q518 853 518 833Q518 814 529 800Q540 786 563 786Q587 786 598.50 800Q610 814 610 833Q610 855 596.50 867.50Q583 880 563 880M533 833Q533 845 540.50 855Q548 865 563 865Q579 865 586.50 855Q594 845 594 833Q594 820 587 810.50Q580 801 563 801Q548 801 540.50 811.50Q533 822 533 833Z"  horiz-adv-x="710" vert-adv-y="1000"  />

      
      <glyph glyph-name="uni0122" unicode="&#x0122;" d="M54 350Q54 445 86 513Q118 581 170 625Q222 669 288 689.50Q354 710 422 710Q476 710 528 698.50Q580 687 624 664L624 639Q582 662 529 674Q476 686 424 686Q360 686 298 667Q236 648 187.50 607.50Q139 567 109 503.50Q79 440 79 350Q79 260 109.50 196Q140 132 189.50 91.50Q239 51 302 32.50Q365 14 430 14Q481 14 529 24Q577 34 618 54L618 365L643 365L643 37Q595 14 540.50 2Q486-10 429-10Q359-10 291.50 10Q224 30 171.50 73.50Q119 117 86.50 185.50Q54 254 54 350M171-35L671-35L671-200L171-200L171-35M228-162L259-162Q282-162 294-150Q306-138 306-118Q306-100 294-87Q282-74 259-74L228-74L228-162M243-90L259-90Q274-90 282-98Q290-106 290-118Q290-147 259-147L243-147L243-90M347-147L347-126L393-126L393-110L347-110L347-90L393-90L393-74L331-74L331-162L393-162L393-147L347-147M512-162L512-74L491-74L465-110L439-74L418-74L418-162L435-162L435-96L465-135L496-95L496-162L512-162M582-69Q563-69 550-82.50Q537-96 537-116Q537-135 548-149Q559-163 582-163Q606-163 617.50-149Q629-135 629-116Q629-94 615.50-81.50Q602-69 582-69M552-116Q552-104 559.50-94Q567-84 582-84Q598-84 605.50-94Q613-104 613-116Q613-129 606-138.50Q599-148 582-148Q567-148 559.50-137.50Q552-127 552-116Z"  horiz-adv-x="710" vert-adv-y="1000"  />

      
      <glyph glyph-name="uni0120" unicode="&#x0120;" d="M54 350Q54 445 86 513Q118 581 170 625Q222 669 288 689.50Q354 710 422 710Q476 710 528 698.50Q580 687 624 664L624 639Q582 662 529 674Q476 686 424 686Q360 686 298 667Q236 648 187.50 607.50Q139 567 109 503.50Q79 440 79 350Q79 260 109.50 196Q140 132 189.50 91.50Q239 51 302 32.50Q365 14 430 14Q481 14 529 24Q577 34 618 54L618 365L643 365L643 37Q595 14 540.50 2Q486-10 429-10Q359-10 291.50 10Q224 30 171.50 73.50Q119 117 86.50 185.50Q54 254 54 350M142 914L642 914L642 749L142 749L142 914M199 787L230 787Q253 787 265 799Q277 811 277 831Q277 849 265 862Q253 875 230 875L199 875L199 787M214 859L230 859Q245 859 253 851Q261 843 261 831Q261 802 230 802L214 802L214 859M318 802L318 823L364 823L364 839L318 839L318 859L364 859L364 875L302 875L302 787L364 787L364 802L318 802M483 787L483 875L462 875L436 839L410 875L389 875L389 787L406 787L406 853L436 814L467 854L467 787L483 787M553 880Q534 880 521 866.50Q508 853 508 833Q508 814 519 800Q530 786 553 786Q577 786 588.50 800Q600 814 600 833Q600 855 586.50 867.50Q573 880 553 880M523 833Q523 845 530.50 855Q538 865 553 865Q569 865 576.50 855Q584 845 584 833Q584 820 577 810.50Q570 801 553 801Q538 801 530.50 811.50Q523 822 523 833Z"  horiz-adv-x="710" vert-adv-y="1000"  />

      
      <glyph glyph-name="uni48" unicode="&#x48;" d="M662 700L662 0L637 0L637 340L130 340L130 0L105 0L105 700L130 700L130 364L637 364L637 700L662 700Z"  horiz-adv-x="767" vert-adv-y="1000"  />

      
      <glyph glyph-name="uni0126" unicode="&#x0126;" d="M662 700L662 0L637 0L637 340L130 340L130 0L105 0L105 700L130 700L130 364L637 364L637 700L662 700Z"  horiz-adv-x="767" vert-adv-y="1000"  />

      
      <glyph glyph-name="uni49" unicode="&#x49;" d="M130 700L130 0L105 0L105 700L130 700Z"  horiz-adv-x="235" vert-adv-y="1000"  />

      
      <glyph glyph-name="uni0132" unicode="&#x0132;" d="M130 700L130 0L105 0L105 700L130 700M660 700L660 184Q660 134 644 97.50Q628 61 599.50 37Q571 13 532 1.50Q493-10 447-10Q394-10 348 0.50Q302 11 268 33L268 58Q303 35 348 24.50Q393 14 444 14Q486 14 521 24Q556 34 581.50 55Q607 76 621 108Q635 140 635 184L635 676L404 676L404 700L660 700Z"  horiz-adv-x="757" vert-adv-y="1000"  />

      
      <glyph glyph-name="unicd" unicode="&#xcd;" d="M130 700L130 0L105 0L105 700L130 700M-122 914L378 914L378 749L-122 749L-122 914M-65 787L-34 787Q-11 787 1 799Q13 811 13 831Q13 849 1 862Q-11 875-34 875L-65 875L-65 787M-50 859L-34 859Q-19 859-11 851Q-3 843-3 831Q-3 802-34 802L-50 802L-50 859M54 802L54 823L100 823L100 839L54 839L54 859L100 859L100 875L38 875L38 787L100 787L100 802L54 802M219 787L219 875L198 875L172 839L146 875L125 875L125 787L142 787L142 853L172 814L203 854L203 787L219 787M289 880Q270 880 257 866.50Q244 853 244 833Q244 814 255 800Q266 786 289 786Q313 786 324.50 800Q336 814 336 833Q336 855 322.50 867.50Q309 880 289 880M259 833Q259 845 266.50 855Q274 865 289 865Q305 865 312.50 855Q320 845 320 833Q320 820 313 810.50Q306 801 289 801Q274 801 266.50 811.50Q259 822 259 833Z"  horiz-adv-x="235" vert-adv-y="1000"  />

      
      <glyph glyph-name="unice" unicode="&#xce;" d="M130 700L130 0L105 0L105 700L130 700M-148 914L352 914L352 749L-148 749L-148 914M-91 787L-60 787Q-37 787-25 799Q-13 811-13 831Q-13 849-25 862Q-37 875-60 875L-91 875L-91 787M-76 859L-60 859Q-45 859-37 851Q-29 843-29 831Q-29 802-60 802L-76 802L-76 859M28 802L28 823L74 823L74 839L28 839L28 859L74 859L74 875L12 875L12 787L74 787L74 802L28 802M193 787L193 875L172 875L146 839L120 875L99 875L99 787L116 787L116 853L146 814L177 854L177 787L193 787M263 880Q244 880 231 866.50Q218 853 218 833Q218 814 229 800Q240 786 263 786Q287 786 298.50 800Q310 814 310 833Q310 855 296.50 867.50Q283 880 263 880M233 833Q233 845 240.50 855Q248 865 263 865Q279 865 286.50 855Q294 845 294 833Q294 820 287 810.50Q280 801 263 801Q248 801 240.50 811.50Q233 822 233 833Z"  horiz-adv-x="235" vert-adv-y="1000"  />

      
      <glyph glyph-name="unicf" unicode="&#xcf;" d="M130 700L130 0L105 0L105 700L130 700M-142 914L358 914L358 749L-142 749L-142 914M-85 787L-54 787Q-31 787-19 799Q-7 811-7 831Q-7 849-19 862Q-31 875-54 875L-85 875L-85 787M-70 859L-54 859Q-39 859-31 851Q-23 843-23 831Q-23 802-54 802L-70 802L-70 859M34 802L34 823L80 823L80 839L34 839L34 859L80 859L80 875L18 875L18 787L80 787L80 802L34 802M199 787L199 875L178 875L152 839L126 875L105 875L105 787L122 787L122 853L152 814L183 854L183 787L199 787M269 880Q250 880 237 866.50Q224 853 224 833Q224 814 235 800Q246 786 269 786Q293 786 304.50 800Q316 814 316 833Q316 855 302.50 867.50Q289 880 269 880M239 833Q239 845 246.50 855Q254 865 269 865Q285 865 292.50 855Q300 845 300 833Q300 820 293 810.50Q286 801 269 801Q254 801 246.50 811.50Q239 822 239 833Z"  horiz-adv-x="235" vert-adv-y="1000"  />

      
      <glyph glyph-name="uni0130" unicode="&#x0130;" d="M130 700L130 0L105 0L105 700L130 700M-147 914L353 914L353 749L-147 749L-147 914M-90 787L-59 787Q-36 787-24 799Q-12 811-12 831Q-12 849-24 862Q-36 875-59 875L-90 875L-90 787M-75 859L-59 859Q-44 859-36 851Q-28 843-28 831Q-28 802-59 802L-75 802L-75 859M29 802L29 823L75 823L75 839L29 839L29 859L75 859L75 875L13 875L13 787L75 787L75 802L29 802M194 787L194 875L173 875L147 839L121 875L100 875L100 787L117 787L117 853L147 814L178 854L178 787L194 787M264 880Q245 880 232 866.50Q219 853 219 833Q219 814 230 800Q241 786 264 786Q288 786 299.50 800Q311 814 311 833Q311 855 297.50 867.50Q284 880 264 880M234 833Q234 845 241.50 855Q249 865 264 865Q280 865 287.50 855Q295 845 295 833Q295 820 288 810.50Q281 801 264 801Q249 801 241.50 811.50Q234 822 234 833Z"  horiz-adv-x="235" vert-adv-y="1000"  />

      
      <glyph glyph-name="unicc" unicode="&#xcc;" d="M130 700L130 0L105 0L105 700L130 700M-137 913L363 913L363 748L-137 748L-137 913M-80 786L-49 786Q-26 786-14 798Q-2 810-2 830Q-2 848-14 861Q-26 874-49 874L-80 874L-80 786M-65 858L-49 858Q-34 858-26 850Q-18 842-18 830Q-18 801-49 801L-65 801L-65 858M39 801L39 822L85 822L85 838L39 838L39 858L85 858L85 874L23 874L23 786L85 786L85 801L39 801M204 786L204 874L183 874L157 838L131 874L110 874L110 786L127 786L127 852L157 813L188 853L188 786L204 786M274 879Q255 879 242 865.50Q229 852 229 832Q229 813 240 799Q251 785 274 785Q298 785 309.50 799Q321 813 321 832Q321 854 307.50 866.50Q294 879 274 879M244 832Q244 844 251.50 854Q259 864 274 864Q290 864 297.50 854Q305 844 305 832Q305 819 298 809.50Q291 800 274 800Q259 800 251.50 810.50Q244 821 244 832Z"  horiz-adv-x="235" vert-adv-y="1000"  />

      
      <glyph glyph-name="uni012A" unicode="&#x012A;" d="M130 700L130 0L105 0L105 700L130 700M-142 914L358 914L358 749L-142 749L-142 914M-85 787L-54 787Q-31 787-19 799Q-7 811-7 831Q-7 849-19 862Q-31 875-54 875L-85 875L-85 787M-70 859L-54 859Q-39 859-31 851Q-23 843-23 831Q-23 802-54 802L-70 802L-70 859M34 802L34 823L80 823L80 839L34 839L34 859L80 859L80 875L18 875L18 787L80 787L80 802L34 802M199 787L199 875L178 875L152 839L126 875L105 875L105 787L122 787L122 853L152 814L183 854L183 787L199 787M269 880Q250 880 237 866.50Q224 853 224 833Q224 814 235 800Q246 786 269 786Q293 786 304.50 800Q316 814 316 833Q316 855 302.50 867.50Q289 880 269 880M239 833Q239 845 246.50 855Q254 865 269 865Q285 865 292.50 855Q300 845 300 833Q300 820 293 810.50Q286 801 269 801Q254 801 246.50 811.50Q239 822 239 833Z"  horiz-adv-x="235" vert-adv-y="1000"  />

      
      <glyph glyph-name="uni012E" unicode="&#x012E;" d="M130 700L130 0L105 0L105 700L130 700Z"  horiz-adv-x="235" vert-adv-y="1000"  />

      
      <glyph glyph-name="uni4a" unicode="&#x4a;" d="M425 700L425 184Q425 134 409 97.50Q393 61 364.50 37Q336 13 297 1.50Q258-10 212-10Q159-10 113 0.50Q67 11 33 33L33 58Q68 35 113 24.50Q158 14 209 14Q251 14 286 24Q321 34 346.50 55Q372 76 386 108Q400 140 400 184L400 676L169 676L169 700L425 700Z"  horiz-adv-x="522" vert-adv-y="1000"  />

      
      <glyph glyph-name="uni4b" unicode="&#x4b;" d="M105 0L105 700L130 700L130 371L346 371L592 700L621 700L367 359L649 0L619 0L345 347L130 347L130 0L105 0Z"  horiz-adv-x="654" vert-adv-y="1000"  />

      
      <glyph glyph-name="uni0136" unicode="&#x0136;" d="M105 0L105 700L130 700L130 371L346 371L592 700L621 700L367 359L649 0L619 0L345 347L130 347L130 0L105 0M106-25L606-25L606-190L106-190L106-25M163-152L194-152Q217-152 229-140Q241-128 241-108Q241-90 229-77Q217-64 194-64L163-64L163-152M178-80L194-80Q209-80 217-88Q225-96 225-108Q225-137 194-137L178-137L178-80M282-137L282-116L328-116L328-100L282-100L282-80L328-80L328-64L266-64L266-152L328-152L328-137L282-137M447-152L447-64L426-64L400-100L374-64L353-64L353-152L370-152L370-86L400-125L431-85L431-152L447-152M517-59Q498-59 485-72.50Q472-86 472-106Q472-125 483-139Q494-153 517-153Q541-153 552.50-139Q564-125 564-106Q564-84 550.50-71.50Q537-59 517-59M487-106Q487-94 494.50-84Q502-74 517-74Q533-74 540.50-84Q548-94 548-106Q548-119 541-128.50Q534-138 517-138Q502-138 494.50-127.50Q487-117 487-106Z"  horiz-adv-x="654" vert-adv-y="1000"  />

      
      <glyph glyph-name="uni4c" unicode="&#x4c;" d="M130 700L130 24L558 24L558 0L105 0L105 700L130 700Z"  horiz-adv-x="576" vert-adv-y="1000"  />

      
      <glyph glyph-name="uni0139" unicode="&#x0139;" d="M130 700L130 24L558 24L558 0L105 0L105 700L130 700M-107 914L393 914L393 749L-107 749L-107 914M-50 787L-19 787Q4 787 16 799Q28 811 28 831Q28 849 16 862Q4 875-19 875L-50 875L-50 787M-35 859L-19 859Q-4 859 4 851Q12 843 12 831Q12 802-19 802L-35 802L-35 859M69 802L69 823L115 823L115 839L69 839L69 859L115 859L115 875L53 875L53 787L115 787L115 802L69 802M234 787L234 875L213 875L187 839L161 875L140 875L140 787L157 787L157 853L187 814L218 854L218 787L234 787M304 880Q285 880 272 866.50Q259 853 259 833Q259 814 270 800Q281 786 304 786Q328 786 339.50 800Q351 814 351 833Q351 855 337.50 867.50Q324 880 304 880M274 833Q274 845 281.50 855Q289 865 304 865Q320 865 327.50 855Q335 845 335 833Q335 820 328 810.50Q321 801 304 801Q289 801 281.50 811.50Q274 822 274 833Z"  horiz-adv-x="576" vert-adv-y="1000"  />

      
      <glyph glyph-name="uni013D" unicode="&#x013D;" d="M130 700L130 24L558 24L558 0L105 0L105 700L130 700Z"  horiz-adv-x="576" vert-adv-y="1000"  />

      
      <glyph glyph-name="uni013B" unicode="&#x013B;" d="M130 700L130 24L558 24L558 0L105 0L105 700L130 700M78-25L578-25L578-190L78-190L78-25M135-152L166-152Q189-152 201-140Q213-128 213-108Q213-90 201-77Q189-64 166-64L135-64L135-152M150-80L166-80Q181-80 189-88Q197-96 197-108Q197-137 166-137L150-137L150-80M254-137L254-116L300-116L300-100L254-100L254-80L300-80L300-64L238-64L238-152L300-152L300-137L254-137M419-152L419-64L398-64L372-100L346-64L325-64L325-152L342-152L342-86L372-125L403-85L403-152L419-152M489-59Q470-59 457-72.50Q444-86 444-106Q444-125 455-139Q466-153 489-153Q513-153 524.50-139Q536-125 536-106Q536-84 522.50-71.50Q509-59 489-59M459-106Q459-94 466.50-84Q474-74 489-74Q505-74 512.50-84Q520-94 520-106Q520-119 513-128.50Q506-138 489-138Q474-138 466.50-127.50Q459-117 459-106Z"  horiz-adv-x="576" vert-adv-y="1000"  />

      
      <glyph glyph-name="uni013F" unicode="&#x013F;" d="M130 700L130 24L558 24L558 0L105 0L105 700L130 700Z"  horiz-adv-x="584" vert-adv-y="1000"  />

      
      <glyph glyph-name="uni0141" unicode="&#x0141;" d="M108 0L108 700L133 700L133 24L561 24L561 0L108 0Z"  horiz-adv-x="579" vert-adv-y="1000"  />

      
      <glyph glyph-name="uni4d" unicode="&#x4d;" d="M792 700L792 0L767 0L767 650L456 196L441 196L130 650L130 0L105 0L105 700L124 700L448 227L773 700L792 700Z"  horiz-adv-x="897" vert-adv-y="1000"  />

      
      <glyph glyph-name="uni4e" unicode="&#x4e;" d="M105 0L105 700L126 700L637 44L637 104L637 700L662 700L662 0L640 0L130 657L130 597L130 0L105 0Z"  horiz-adv-x="767" vert-adv-y="1000"  />

      
      <glyph glyph-name="uni0143" unicode="&#x0143;" d="M105 0L105 700L126 700L637 44L637 104L637 700L662 700L662 0L640 0L130 657L130 597L130 0L105 0M143 914L643 914L643 749L143 749L143 914M200 787L231 787Q254 787 266 799Q278 811 278 831Q278 849 266 862Q254 875 231 875L200 875L200 787M215 859L231 859Q246 859 254 851Q262 843 262 831Q262 802 231 802L215 802L215 859M319 802L319 823L365 823L365 839L319 839L319 859L365 859L365 875L303 875L303 787L365 787L365 802L319 802M484 787L484 875L463 875L437 839L411 875L390 875L390 787L407 787L407 853L437 814L468 854L468 787L484 787M554 880Q535 880 522 866.50Q509 853 509 833Q509 814 520 800Q531 786 554 786Q578 786 589.50 800Q601 814 601 833Q601 855 587.50 867.50Q574 880 554 880M524 833Q524 845 531.50 855Q539 865 554 865Q570 865 577.50 855Q585 845 585 833Q585 820 578 810.50Q571 801 554 801Q539 801 531.50 811.50Q524 822 524 833Z"  horiz-adv-x="767" vert-adv-y="1000"  />

      
      <glyph glyph-name="uni0147" unicode="&#x0147;" d="M105 0L105 700L126 700L637 44L637 104L637 700L662 700L662 0L640 0L130 657L130 597L130 0L105 0M136 913L636 913L636 748L136 748L136 913M193 786L224 786Q247 786 259 798Q271 810 271 830Q271 848 259 861Q247 874 224 874L193 874L193 786M208 858L224 858Q239 858 247 850Q255 842 255 830Q255 801 224 801L208 801L208 858M312 801L312 822L358 822L358 838L312 838L312 858L358 858L358 874L296 874L296 786L358 786L358 801L312 801M477 786L477 874L456 874L430 838L404 874L383 874L383 786L400 786L400 852L430 813L461 853L461 786L477 786M547 879Q528 879 515 865.50Q502 852 502 832Q502 813 513 799Q524 785 547 785Q571 785 582.50 799Q594 813 594 832Q594 854 580.50 866.50Q567 879 547 879M517 832Q517 844 524.50 854Q532 864 547 864Q563 864 570.50 854Q578 844 578 832Q578 819 571 809.50Q564 800 547 800Q532 800 524.50 810.50Q517 821 517 832Z"  horiz-adv-x="767" vert-adv-y="1000"  />

      
      <glyph glyph-name="uni0145" unicode="&#x0145;" d="M105 0L105 700L126 700L637 44L637 104L637 700L662 700L662 0L640 0L130 657L130 597L130 0L105 0M141-25L641-25L641-190L141-190L141-25M198-152L229-152Q252-152 264-140Q276-128 276-108Q276-90 264-77Q252-64 229-64L198-64L198-152M213-80L229-80Q244-80 252-88Q260-96 260-108Q260-137 229-137L213-137L213-80M317-137L317-116L363-116L363-100L317-100L317-80L363-80L363-64L301-64L301-152L363-152L363-137L317-137M482-152L482-64L461-64L435-100L409-64L388-64L388-152L405-152L405-86L435-125L466-85L466-152L482-152M552-59Q533-59 520-72.50Q507-86 507-106Q507-125 518-139Q529-153 552-153Q576-153 587.50-139Q599-125 599-106Q599-84 585.50-71.50Q572-59 552-59M522-106Q522-94 529.50-84Q537-74 552-74Q568-74 575.50-84Q583-94 583-106Q583-119 576-128.50Q569-138 552-138Q537-138 529.50-127.50Q522-117 522-106Z"  horiz-adv-x="767" vert-adv-y="1000"  />

      
      <glyph glyph-name="uni014A" unicode="&#x014A;" d="M105 0L105 700L126 700L637 44L637 104L637 700L662 700L662 0L640 0L130 657L130 597L130 0L105 0Z"  horiz-adv-x="767" vert-adv-y="1000"  />

      
      <glyph glyph-name="unid1" unicode="&#xd1;" d="M105 0L105 700L126 700L637 44L637 104L637 700L662 700L662 0L640 0L130 657L130 597L130 0L105 0M116 914L616 914L616 749L116 749L116 914M173 787L204 787Q227 787 239 799Q251 811 251 831Q251 849 239 862Q227 875 204 875L173 875L173 787M188 859L204 859Q219 859 227 851Q235 843 235 831Q235 802 204 802L188 802L188 859M292 802L292 823L338 823L338 839L292 839L292 859L338 859L338 875L276 875L276 787L338 787L338 802L292 802M457 787L457 875L436 875L410 839L384 875L363 875L363 787L380 787L380 853L410 814L441 854L441 787L457 787M527 880Q508 880 495 866.50Q482 853 482 833Q482 814 493 800Q504 786 527 786Q551 786 562.50 800Q574 814 574 833Q574 855 560.50 867.50Q547 880 527 880M497 833Q497 845 504.50 855Q512 865 527 865Q543 865 550.50 855Q558 845 558 833Q558 820 551 810.50Q544 801 527 801Q512 801 504.50 811.50Q497 822 497 833Z"  horiz-adv-x="767" vert-adv-y="1000"  />

      
      <glyph glyph-name="uni4f" unicode="&#x4f;" d="M52 350Q52 415 74.50 479.50Q97 544 142 595Q187 646 254.50 678Q322 710 413 710Q504 710 571.50 678Q639 646 684 595Q729 544 751.50 479.50Q774 415 774 350Q774 285 751.50 220.50Q729 156 684 105Q639 54 571.50 22Q504-10 413-10Q322-10 254.50 22Q187 54 142 105Q97 156 74.50 220.50Q52 285 52 350M749 350Q749 411 728 471Q707 531 665 579Q623 627 560 656.50Q497 686 413 686Q329 686 266 656.50Q203 627 161 579Q119 531 98 471Q77 411 77 350Q77 289 98 229Q119 169 161 121Q203 73 266 43.50Q329 14 413 14Q497 14 560 43.50Q623 73 665 121Q707 169 728 229Q749 289 749 350Z"  horiz-adv-x="826" vert-adv-y="1000"  />

      
      <glyph glyph-name="unid3" unicode="&#xd3;" d="M52 350Q52 415 74.50 479.50Q97 544 142 595Q187 646 254.50 678Q322 710 413 710Q504 710 571.50 678Q639 646 684 595Q729 544 751.50 479.50Q774 415 774 350Q774 285 751.50 220.50Q729 156 684 105Q639 54 571.50 22Q504-10 413-10Q322-10 254.50 22Q187 54 142 105Q97 156 74.50 220.50Q52 285 52 350M749 350Q749 411 728 471Q707 531 665 579Q623 627 560 656.50Q497 686 413 686Q329 686 266 656.50Q203 627 161 579Q119 531 98 471Q77 411 77 350Q77 289 98 229Q119 169 161 121Q203 73 266 43.50Q329 14 413 14Q497 14 560 43.50Q623 73 665 121Q707 169 728 229Q749 289 749 350M173 914L673 914L673 749L173 749L173 914M230 787L261 787Q284 787 296 799Q308 811 308 831Q308 849 296 862Q284 875 261 875L230 875L230 787M245 859L261 859Q276 859 284 851Q292 843 292 831Q292 802 261 802L245 802L245 859M349 802L349 823L395 823L395 839L349 839L349 859L395 859L395 875L333 875L333 787L395 787L395 802L349 802M514 787L514 875L493 875L467 839L441 875L420 875L420 787L437 787L437 853L467 814L498 854L498 787L514 787M584 880Q565 880 552 866.50Q539 853 539 833Q539 814 550 800Q561 786 584 786Q608 786 619.50 800Q631 814 631 833Q631 855 617.50 867.50Q604 880 584 880M554 833Q554 845 561.50 855Q569 865 584 865Q600 865 607.50 855Q615 845 615 833Q615 820 608 810.50Q601 801 584 801Q569 801 561.50 811.50Q554 822 554 833Z"  horiz-adv-x="826" vert-adv-y="1000"  />

      
      <glyph glyph-name="unid4" unicode="&#xd4;" d="M52 350Q52 415 74.50 479.50Q97 544 142 595Q187 646 254.50 678Q322 710 413 710Q504 710 571.50 678Q639 646 684 595Q729 544 751.50 479.50Q774 415 774 350Q774 285 751.50 220.50Q729 156 684 105Q639 54 571.50 22Q504-10 413-10Q322-10 254.50 22Q187 54 142 105Q97 156 74.50 220.50Q52 285 52 350M749 350Q749 411 728 471Q707 531 665 579Q623 627 560 656.50Q497 686 413 686Q329 686 266 656.50Q203 627 161 579Q119 531 98 471Q77 411 77 350Q77 289 98 229Q119 169 161 121Q203 73 266 43.50Q329 14 413 14Q497 14 560 43.50Q623 73 665 121Q707 169 728 229Q749 289 749 350M147 914L647 914L647 749L147 749L147 914M204 787L235 787Q258 787 270 799Q282 811 282 831Q282 849 270 862Q258 875 235 875L204 875L204 787M219 859L235 859Q250 859 258 851Q266 843 266 831Q266 802 235 802L219 802L219 859M323 802L323 823L369 823L369 839L323 839L323 859L369 859L369 875L307 875L307 787L369 787L369 802L323 802M488 787L488 875L467 875L441 839L415 875L394 875L394 787L411 787L411 853L441 814L472 854L472 787L488 787M558 880Q539 880 526 866.50Q513 853 513 833Q513 814 524 800Q535 786 558 786Q582 786 593.50 800Q605 814 605 833Q605 855 591.50 867.50Q578 880 558 880M528 833Q528 845 535.50 855Q543 865 558 865Q574 865 581.50 855Q589 845 589 833Q589 820 582 810.50Q575 801 558 801Q543 801 535.50 811.50Q528 822 528 833Z"  horiz-adv-x="826" vert-adv-y="1000"  />

      
      <glyph glyph-name="unid6" unicode="&#xd6;" d="M52 350Q52 415 74.50 479.50Q97 544 142 595Q187 646 254.50 678Q322 710 413 710Q504 710 571.50 678Q639 646 684 595Q729 544 751.50 479.50Q774 415 774 350Q774 285 751.50 220.50Q729 156 684 105Q639 54 571.50 22Q504-10 413-10Q322-10 254.50 22Q187 54 142 105Q97 156 74.50 220.50Q52 285 52 350M749 350Q749 411 728 471Q707 531 665 579Q623 627 560 656.50Q497 686 413 686Q329 686 266 656.50Q203 627 161 579Q119 531 98 471Q77 411 77 350Q77 289 98 229Q119 169 161 121Q203 73 266 43.50Q329 14 413 14Q497 14 560 43.50Q623 73 665 121Q707 169 728 229Q749 289 749 350M153 914L653 914L653 749L153 749L153 914M210 787L241 787Q264 787 276 799Q288 811 288 831Q288 849 276 862Q264 875 241 875L210 875L210 787M225 859L241 859Q256 859 264 851Q272 843 272 831Q272 802 241 802L225 802L225 859M329 802L329 823L375 823L375 839L329 839L329 859L375 859L375 875L313 875L313 787L375 787L375 802L329 802M494 787L494 875L473 875L447 839L421 875L400 875L400 787L417 787L417 853L447 814L478 854L478 787L494 787M564 880Q545 880 532 866.50Q519 853 519 833Q519 814 530 800Q541 786 564 786Q588 786 599.50 800Q611 814 611 833Q611 855 597.50 867.50Q584 880 564 880M534 833Q534 845 541.50 855Q549 865 564 865Q580 865 587.50 855Q595 845 595 833Q595 820 588 810.50Q581 801 564 801Q549 801 541.50 811.50Q534 822 534 833Z"  horiz-adv-x="826" vert-adv-y="1000"  />

      
      <glyph glyph-name="unid2" unicode="&#xd2;" d="M52 350Q52 415 74.50 479.50Q97 544 142 595Q187 646 254.50 678Q322 710 413 710Q504 710 571.50 678Q639 646 684 595Q729 544 751.50 479.50Q774 415 774 350Q774 285 751.50 220.50Q729 156 684 105Q639 54 571.50 22Q504-10 413-10Q322-10 254.50 22Q187 54 142 105Q97 156 74.50 220.50Q52 285 52 350M749 350Q749 411 728 471Q707 531 665 579Q623 627 560 656.50Q497 686 413 686Q329 686 266 656.50Q203 627 161 579Q119 531 98 471Q77 411 77 350Q77 289 98 229Q119 169 161 121Q203 73 266 43.50Q329 14 413 14Q497 14 560 43.50Q623 73 665 121Q707 169 728 229Q749 289 749 350M158 913L658 913L658 748L158 748L158 913M215 786L246 786Q269 786 281 798Q293 810 293 830Q293 848 281 861Q269 874 246 874L215 874L215 786M230 858L246 858Q261 858 269 850Q277 842 277 830Q277 801 246 801L230 801L230 858M334 801L334 822L380 822L380 838L334 838L334 858L380 858L380 874L318 874L318 786L380 786L380 801L334 801M499 786L499 874L478 874L452 838L426 874L405 874L405 786L422 786L422 852L452 813L483 853L483 786L499 786M569 879Q550 879 537 865.50Q524 852 524 832Q524 813 535 799Q546 785 569 785Q593 785 604.50 799Q616 813 616 832Q616 854 602.50 866.50Q589 879 569 879M539 832Q539 844 546.50 854Q554 864 569 864Q585 864 592.50 854Q600 844 600 832Q600 819 593 809.50Q586 800 569 800Q554 800 546.50 810.50Q539 821 539 832Z"  horiz-adv-x="826" vert-adv-y="1000"  />

      
      <glyph glyph-name="uni0150" unicode="&#x0150;" d="M52 350Q52 415 74.50 479.50Q97 544 142 595Q187 646 254.50 678Q322 710 413 710Q504 710 571.50 678Q639 646 684 595Q729 544 751.50 479.50Q774 415 774 350Q774 285 751.50 220.50Q729 156 684 105Q639 54 571.50 22Q504-10 413-10Q322-10 254.50 22Q187 54 142 105Q97 156 74.50 220.50Q52 285 52 350M749 350Q749 411 728 471Q707 531 665 579Q623 627 560 656.50Q497 686 413 686Q329 686 266 656.50Q203 627 161 579Q119 531 98 471Q77 411 77 350Q77 289 98 229Q119 169 161 121Q203 73 266 43.50Q329 14 413 14Q497 14 560 43.50Q623 73 665 121Q707 169 728 229Q749 289 749 350M163 914L663 914L663 749L163 749L163 914M220 787L251 787Q274 787 286 799Q298 811 298 831Q298 849 286 862Q274 875 251 875L220 875L220 787M235 859L251 859Q266 859 274 851Q282 843 282 831Q282 802 251 802L235 802L235 859M339 802L339 823L385 823L385 839L339 839L339 859L385 859L385 875L323 875L323 787L385 787L385 802L339 802M504 787L504 875L483 875L457 839L431 875L410 875L410 787L427 787L427 853L457 814L488 854L488 787L504 787M574 880Q555 880 542 866.50Q529 853 529 833Q529 814 540 800Q551 786 574 786Q598 786 609.50 800Q621 814 621 833Q621 855 607.50 867.50Q594 880 574 880M544 833Q544 845 551.50 855Q559 865 574 865Q590 865 597.50 855Q605 845 605 833Q605 820 598 810.50Q591 801 574 801Q559 801 551.50 811.50Q544 822 544 833Z"  horiz-adv-x="826" vert-adv-y="1000"  />

      
      <glyph glyph-name="uni014C" unicode="&#x014C;" d="M52 350Q52 415 74.50 479.50Q97 544 142 595Q187 646 254.50 678Q322 710 413 710Q504 710 571.50 678Q639 646 684 595Q729 544 751.50 479.50Q774 415 774 350Q774 285 751.50 220.50Q729 156 684 105Q639 54 571.50 22Q504-10 413-10Q322-10 254.50 22Q187 54 142 105Q97 156 74.50 220.50Q52 285 52 350M749 350Q749 411 728 471Q707 531 665 579Q623 627 560 656.50Q497 686 413 686Q329 686 266 656.50Q203 627 161 579Q119 531 98 471Q77 411 77 350Q77 289 98 229Q119 169 161 121Q203 73 266 43.50Q329 14 413 14Q497 14 560 43.50Q623 73 665 121Q707 169 728 229Q749 289 749 350M153 914L653 914L653 749L153 749L153 914M210 787L241 787Q264 787 276 799Q288 811 288 831Q288 849 276 862Q264 875 241 875L210 875L210 787M225 859L241 859Q256 859 264 851Q272 843 272 831Q272 802 241 802L225 802L225 859M329 802L329 823L375 823L375 839L329 839L329 859L375 859L375 875L313 875L313 787L375 787L375 802L329 802M494 787L494 875L473 875L447 839L421 875L400 875L400 787L417 787L417 853L447 814L478 854L478 787L494 787M564 880Q545 880 532 866.50Q519 853 519 833Q519 814 530 800Q541 786 564 786Q588 786 599.50 800Q611 814 611 833Q611 855 597.50 867.50Q584 880 564 880M534 833Q534 845 541.50 855Q549 865 564 865Q580 865 587.50 855Q595 845 595 833Q595 820 588 810.50Q581 801 564 801Q549 801 541.50 811.50Q534 822 534 833Z"  horiz-adv-x="826" vert-adv-y="1000"  />

      
      <glyph glyph-name="unid8" unicode="&#xd8;" d="M52 350Q52 415 74.50 479.50Q97 544 142 595Q187 646 254.50 678Q322 710 413 710Q504 710 571.50 678Q639 646 684 595Q729 544 751.50 479.50Q774 415 774 350Q774 285 751.50 220.50Q729 156 684 105Q639 54 571.50 22Q504-10 413-10Q322-10 254.50 22Q187 54 142 105Q97 156 74.50 220.50Q52 285 52 350M749 350Q749 411 728 471Q707 531 665 579Q623 627 560 656.50Q497 686 413 686Q329 686 266 656.50Q203 627 161 579Q119 531 98 471Q77 411 77 350Q77 289 98 229Q119 169 161 121Q203 73 266 43.50Q329 14 413 14Q497 14 560 43.50Q623 73 665 121Q707 169 728 229Q749 289 749 350Z"  horiz-adv-x="826" vert-adv-y="1000"  />

      
      <glyph glyph-name="unid5" unicode="&#xd5;" d="M52 350Q52 415 74.50 479.50Q97 544 142 595Q187 646 254.50 678Q322 710 413 710Q504 710 571.50 678Q639 646 684 595Q729 544 751.50 479.50Q774 415 774 350Q774 285 751.50 220.50Q729 156 684 105Q639 54 571.50 22Q504-10 413-10Q322-10 254.50 22Q187 54 142 105Q97 156 74.50 220.50Q52 285 52 350M749 350Q749 411 728 471Q707 531 665 579Q623 627 560 656.50Q497 686 413 686Q329 686 266 656.50Q203 627 161 579Q119 531 98 471Q77 411 77 350Q77 289 98 229Q119 169 161 121Q203 73 266 43.50Q329 14 413 14Q497 14 560 43.50Q623 73 665 121Q707 169 728 229Q749 289 749 350M146 914L646 914L646 749L146 749L146 914M203 787L234 787Q257 787 269 799Q281 811 281 831Q281 849 269 862Q257 875 234 875L203 875L203 787M218 859L234 859Q249 859 257 851Q265 843 265 831Q265 802 234 802L218 802L218 859M322 802L322 823L368 823L368 839L322 839L322 859L368 859L368 875L306 875L306 787L368 787L368 802L322 802M487 787L487 875L466 875L440 839L414 875L393 875L393 787L410 787L410 853L440 814L471 854L471 787L487 787M557 880Q538 880 525 866.50Q512 853 512 833Q512 814 523 800Q534 786 557 786Q581 786 592.50 800Q604 814 604 833Q604 855 590.50 867.50Q577 880 557 880M527 833Q527 845 534.50 855Q542 865 557 865Q573 865 580.50 855Q588 845 588 833Q588 820 581 810.50Q574 801 557 801Q542 801 534.50 811.50Q527 822 527 833Z"  horiz-adv-x="826" vert-adv-y="1000"  />

      
      <glyph glyph-name="uni0152" unicode="&#x0152;" d="M71 0L71 700L303 700L303 0L71 0M247 77L247 125Q247 157 228 171.50Q209 186 186 185Q163 185 144.50 171Q126 157 126 125L126 77L247 77M148 125Q147 145 159.50 153Q172 161 186 163Q200 163 213 154.50Q226 146 226 125L226 99L148 99L148 125M226 243L198 243L198 308L177 308L177 243L149 243L149 310L126 310L126 220L247 220L247 310L226 310L226 243M247 477L126 477L126 451L179 412L126 375L126 349L247 349L247 371L160 371L213 410L213 414L160 455L247 455L247 477M123 574Q123 548 141 530Q159 512 188 512Q211 512 231 527Q251 542 251 574Q251 606 230.50 620.50Q210 635 187 636Q164 636 143.50 621Q123 606 123 574M188 534Q170 533 157 543.50Q144 554 145 574Q145 596 159 605Q173 614 188 614Q203 612 216 604Q229 596 229 574Q229 552 216 543Q203 534 188 534Z"  horiz-adv-x="373" vert-adv-y="1000"  />

      
      <glyph glyph-name="uni50" unicode="&#x50;" d="M322 700Q380 700 433 690Q486 680 526 655Q566 630 590 588Q614 546 614 483Q614 419 590 377Q566 335 526 310.50Q486 286 433 276Q380 266 322 266L130 266L130 0L105 0L105 700L322 700M589 483Q589 540 567.50 577.50Q546 615 510 636.50Q474 658 425.50 667Q377 676 323 676L130 676L130 290L323 290Q377 290 425 299Q473 308 509.50 329.50Q546 351 567.50 388.50Q589 426 589 483Z"  horiz-adv-x="651" vert-adv-y="1000"  />

      
      <glyph glyph-name="unide" unicode="&#xde;" d="M322 567Q380 567 433 557Q486 547 526 522Q566 497 590 455Q614 413 614 350Q614 287 590 245Q566 203 526 178Q486 153 433 143Q380 133 322 133L130 133L130 0L105 0L105 700L130 700L130 567L322 567M323 157Q377 157 425 166Q473 175 509.50 196.50Q546 218 567.50 255.50Q589 293 589 350Q589 407 567.50 444.50Q546 482 510 503.50Q474 525 425.50 534Q377 543 323 543L130 543L130 157L323 157Z"  horiz-adv-x="650" vert-adv-y="1000"  />

      
      <glyph glyph-name="uni51" unicode="&#x51;" d="M760-58L639 62Q596 29 540 9.50Q484-10 413-10Q322-10 254.50 22Q187 54 142 105Q97 156 74.50 220.50Q52 285 52 350Q52 415 74.50 479.50Q97 544 142 595Q187 646 254.50 678Q322 710 413 710Q504 710 571.50 678Q639 646 684 595Q729 544 751.50 479.50Q774 415 774 350Q774 275 745.50 203Q717 131 657 77L776-42L760-58M77 350Q77 289 98 229Q119 169 161 121Q203 73 266 43.50Q329 14 413 14Q478 14 530 31.50Q582 49 622 80L460 242L476 258L639 95Q695 144 722 212Q749 280 749 350Q749 411 728 471Q707 531 665 579Q623 627 560 656.50Q497 686 413 686Q329 686 266 656.50Q203 627 161 579Q119 531 98 471Q77 411 77 350Z"  horiz-adv-x="826" vert-adv-y="1000"  />

      
      <glyph glyph-name="uni52" unicode="&#x52;" d="M105 0L105 700L368 700Q411 700 455 689.50Q499 679 534 655Q569 631 591.50 592Q614 553 614 497Q614 444 594.50 406.50Q575 369 543 345Q511 321 471 309Q431 297 390 295L658 0L627 0L361 294L130 294L130 0L105 0M130 318L369 318Q408 318 447 327Q486 336 517.50 357Q549 378 569 412Q589 446 589 497Q589 547 569 581.50Q549 616 517.50 637Q486 658 447 667Q408 676 369 676L130 676L130 318Z"  horiz-adv-x="682" vert-adv-y="1000"  />

      
      <glyph glyph-name="uni0154" unicode="&#x0154;" d="M105 0L105 700L368 700Q411 700 455 689.50Q499 679 534 655Q569 631 591.50 592Q614 553 614 497Q614 444 594.50 406.50Q575 369 543 345Q511 321 471 309Q431 297 390 295L658 0L627 0L361 294L130 294L130 0L105 0M130 318L369 318Q408 318 447 327Q486 336 517.50 357Q549 378 569 412Q589 446 589 497Q589 547 569 581.50Q549 616 517.50 637Q486 658 447 667Q408 676 369 676L130 676L130 318M102 914L602 914L602 749L102 749L102 914M159 787L190 787Q213 787 225 799Q237 811 237 831Q237 849 225 862Q213 875 190 875L159 875L159 787M174 859L190 859Q205 859 213 851Q221 843 221 831Q221 802 190 802L174 802L174 859M278 802L278 823L324 823L324 839L278 839L278 859L324 859L324 875L262 875L262 787L324 787L324 802L278 802M443 787L443 875L422 875L396 839L370 875L349 875L349 787L366 787L366 853L396 814L427 854L427 787L443 787M513 880Q494 880 481 866.50Q468 853 468 833Q468 814 479 800Q490 786 513 786Q537 786 548.50 800Q560 814 560 833Q560 855 546.50 867.50Q533 880 513 880M483 833Q483 845 490.50 855Q498 865 513 865Q529 865 536.50 855Q544 845 544 833Q544 820 537 810.50Q530 801 513 801Q498 801 490.50 811.50Q483 822 483 833Z"  horiz-adv-x="682" vert-adv-y="1000"  />

      
      <glyph glyph-name="uni0158" unicode="&#x0158;" d="M105 0L105 700L368 700Q411 700 455 689.50Q499 679 534 655Q569 631 591.50 592Q614 553 614 497Q614 444 594.50 406.50Q575 369 543 345Q511 321 471 309Q431 297 390 295L658 0L627 0L361 294L130 294L130 0L105 0M130 318L369 318Q408 318 447 327Q486 336 517.50 357Q549 378 569 412Q589 446 589 497Q589 547 569 581.50Q549 616 517.50 637Q486 658 447 667Q408 676 369 676L130 676L130 318M95 913L595 913L595 748L95 748L95 913M152 786L183 786Q206 786 218 798Q230 810 230 830Q230 848 218 861Q206 874 183 874L152 874L152 786M167 858L183 858Q198 858 206 850Q214 842 214 830Q214 801 183 801L167 801L167 858M271 801L271 822L317 822L317 838L271 838L271 858L317 858L317 874L255 874L255 786L317 786L317 801L271 801M436 786L436 874L415 874L389 838L363 874L342 874L342 786L359 786L359 852L389 813L420 853L420 786L436 786M506 879Q487 879 474 865.50Q461 852 461 832Q461 813 472 799Q483 785 506 785Q530 785 541.50 799Q553 813 553 832Q553 854 539.50 866.50Q526 879 506 879M476 832Q476 844 483.50 854Q491 864 506 864Q522 864 529.50 854Q537 844 537 832Q537 819 530 809.50Q523 800 506 800Q491 800 483.50 810.50Q476 821 476 832Z"  horiz-adv-x="682" vert-adv-y="1000"  />

      
      <glyph glyph-name="uni0156" unicode="&#x0156;" d="M105 0L105 700L368 700Q411 700 455 689.50Q499 679 534 655Q569 631 591.50 592Q614 553 614 497Q614 444 594.50 406.50Q575 369 543 345Q511 321 471 309Q431 297 390 295L658 0L627 0L361 294L130 294L130 0L105 0M130 318L369 318Q408 318 447 327Q486 336 517.50 357Q549 378 569 412Q589 446 589 497Q589 547 569 581.50Q549 616 517.50 637Q486 658 447 667Q408 676 369 676L130 676L130 318M112-25L612-25L612-190L112-190L112-25M169-152L200-152Q223-152 235-140Q247-128 247-108Q247-90 235-77Q223-64 200-64L169-64L169-152M184-80L200-80Q215-80 223-88Q231-96 231-108Q231-137 200-137L184-137L184-80M288-137L288-116L334-116L334-100L288-100L288-80L334-80L334-64L272-64L272-152L334-152L334-137L288-137M453-152L453-64L432-64L406-100L380-64L359-64L359-152L376-152L376-86L406-125L437-85L437-152L453-152M523-59Q504-59 491-72.50Q478-86 478-106Q478-125 489-139Q500-153 523-153Q547-153 558.50-139Q570-125 570-106Q570-84 556.50-71.50Q543-59 523-59M493-106Q493-94 500.50-84Q508-74 523-74Q539-74 546.50-84Q554-94 554-106Q554-119 547-128.50Q540-138 523-138Q508-138 500.50-127.50Q493-117 493-106Z"  horiz-adv-x="682" vert-adv-y="1000"  />

      
      <glyph glyph-name="uni53" unicode="&#x53;" d="M59 541Q59 585 77.50 617Q96 649 127 669.50Q158 690 197 700Q236 710 277 710Q331 710 383.50 697.50Q436 685 475 663L475 638Q436 661 382.50 674Q329 687 278 686Q241 686 206 678Q171 670 144 652.50Q117 635 100.50 607.50Q84 580 84 541Q84 486 116.50 453.50Q149 421 198 399.50Q247 378 303.50 361.50Q360 345 409 321Q458 297 490.50 259.50Q523 222 523 159Q523 113 503.50 80.50Q484 48 452 28Q420 8 378-1Q336-10 290-10Q225-10 163 5.50Q101 21 52 48L52 73Q103 44 165 29Q227 14 288 14Q330 14 368.50 21.50Q407 29 435.50 46Q464 63 481 90.50Q498 118 498 158Q498 201 479 231Q460 261 429.50 281.50Q399 302 359.50 317Q320 332 278.50 345.50Q237 359 197.50 374Q158 389 127.50 411Q97 433 78 464Q59 495 59 541Z"  horiz-adv-x="563" vert-adv-y="1000"  />

      
      <glyph glyph-name="uni015A" unicode="&#x015A;" d="M59 541Q59 585 77.50 617Q96 649 127 669.50Q158 690 197 700Q236 710 277 710Q331 710 383.50 697.50Q436 685 475 663L475 638Q436 661 382.50 674Q329 687 278 686Q241 686 206 678Q171 670 144 652.50Q117 635 100.50 607.50Q84 580 84 541Q84 486 116.50 453.50Q149 421 198 399.50Q247 378 303.50 361.50Q360 345 409 321Q458 297 490.50 259.50Q523 222 523 159Q523 113 503.50 80.50Q484 48 452 28Q420 8 378-1Q336-10 290-10Q225-10 163 5.50Q101 21 52 48L52 73Q103 44 165 29Q227 14 288 14Q330 14 368.50 21.50Q407 29 435.50 46Q464 63 481 90.50Q498 118 498 158Q498 201 479 231Q460 261 429.50 281.50Q399 302 359.50 317Q320 332 278.50 345.50Q237 359 197.50 374Q158 389 127.50 411Q97 433 78 464Q59 495 59 541M31 914L531 914L531 749L31 749L31 914M88 787L119 787Q142 787 154 799Q166 811 166 831Q166 849 154 862Q142 875 119 875L88 875L88 787M103 859L119 859Q134 859 142 851Q150 843 150 831Q150 802 119 802L103 802L103 859M207 802L207 823L253 823L253 839L207 839L207 859L253 859L253 875L191 875L191 787L253 787L253 802L207 802M372 787L372 875L351 875L325 839L299 875L278 875L278 787L295 787L295 853L325 814L356 854L356 787L372 787M442 880Q423 880 410 866.50Q397 853 397 833Q397 814 408 800Q419 786 442 786Q466 786 477.50 800Q489 814 489 833Q489 855 475.50 867.50Q462 880 442 880M412 833Q412 845 419.50 855Q427 865 442 865Q458 865 465.50 855Q473 845 473 833Q473 820 466 810.50Q459 801 442 801Q427 801 419.50 811.50Q412 822 412 833Z"  horiz-adv-x="563" vert-adv-y="1000"  />

      
      <glyph glyph-name="uni0160" unicode="&#x0160;" d="M59 541Q59 585 77.50 617Q96 649 127 669.50Q158 690 197 700Q236 710 277 710Q331 710 383.50 697.50Q436 685 475 663L475 638Q436 661 382.50 674Q329 687 278 686Q241 686 206 678Q171 670 144 652.50Q117 635 100.50 607.50Q84 580 84 541Q84 486 116.50 453.50Q149 421 198 399.50Q247 378 303.50 361.50Q360 345 409 321Q458 297 490.50 259.50Q523 222 523 159Q523 113 503.50 80.50Q484 48 452 28Q420 8 378-1Q336-10 290-10Q225-10 163 5.50Q101 21 52 48L52 73Q103 44 165 29Q227 14 288 14Q330 14 368.50 21.50Q407 29 435.50 46Q464 63 481 90.50Q498 118 498 158Q498 201 479 231Q460 261 429.50 281.50Q399 302 359.50 317Q320 332 278.50 345.50Q237 359 197.50 374Q158 389 127.50 411Q97 433 78 464Q59 495 59 541M24 913L524 913L524 748L24 748L24 913M81 786L112 786Q135 786 147 798Q159 810 159 830Q159 848 147 861Q135 874 112 874L81 874L81 786M96 858L112 858Q127 858 135 850Q143 842 143 830Q143 801 112 801L96 801L96 858M200 801L200 822L246 822L246 838L200 838L200 858L246 858L246 874L184 874L184 786L246 786L246 801L200 801M365 786L365 874L344 874L318 838L292 874L271 874L271 786L288 786L288 852L318 813L349 853L349 786L365 786M435 879Q416 879 403 865.50Q390 852 390 832Q390 813 401 799Q412 785 435 785Q459 785 470.50 799Q482 813 482 832Q482 854 468.50 866.50Q455 879 435 879M405 832Q405 844 412.50 854Q420 864 435 864Q451 864 458.50 854Q466 844 466 832Q466 819 459 809.50Q452 800 435 800Q420 800 412.50 810.50Q405 821 405 832Z"  horiz-adv-x="563" vert-adv-y="1000"  />

      
      <glyph glyph-name="uni015E" unicode="&#x015E;" d="M59 541Q59 585 77.50 617Q96 649 127 669.50Q158 690 197 700Q236 710 277 710Q331 710 383.50 697.50Q436 685 475 663L475 638Q436 661 382.50 674Q329 687 278 686Q241 686 206 678Q171 670 144 652.50Q117 635 100.50 607.50Q84 580 84 541Q84 486 116.50 453.50Q149 421 198 399.50Q247 378 303.50 361.50Q360 345 409 321Q458 297 490.50 259.50Q523 222 523 159Q523 113 503.50 80.50Q484 48 452 28Q420 8 378-1Q336-10 290-10Q225-10 163 5.50Q101 21 52 48L52 73Q103 44 165 29Q227 14 288 14Q330 14 368.50 21.50Q407 29 435.50 46Q464 63 481 90.50Q498 118 498 158Q498 201 479 231Q460 261 429.50 281.50Q399 302 359.50 317Q320 332 278.50 345.50Q237 359 197.50 374Q158 389 127.50 411Q97 433 78 464Q59 495 59 541Z"  horiz-adv-x="563" vert-adv-y="1000"  />

      
      <glyph glyph-name="uni0218" unicode="&#x0218;" d="M59 541Q59 585 77.50 617Q96 649 127 669.50Q158 690 197 700Q236 710 277 710Q331 710 383.50 697.50Q436 685 475 663L475 638Q436 661 382.50 674Q329 687 278 686Q241 686 206 678Q171 670 144 652.50Q117 635 100.50 607.50Q84 580 84 541Q84 486 116.50 453.50Q149 421 198 399.50Q247 378 303.50 361.50Q360 345 409 321Q458 297 490.50 259.50Q523 222 523 159Q523 113 503.50 80.50Q484 48 452 28Q420 8 378-1Q336-10 290-10Q225-10 163 5.50Q101 21 52 48L52 73Q103 44 165 29Q227 14 288 14Q330 14 368.50 21.50Q407 29 435.50 46Q464 63 481 90.50Q498 118 498 158Q498 201 479 231Q460 261 429.50 281.50Q399 302 359.50 317Q320 332 278.50 345.50Q237 359 197.50 374Q158 389 127.50 411Q97 433 78 464Q59 495 59 541M35-25L535-25L535-190L35-190L35-25M92-152L123-152Q146-152 158-140Q170-128 170-108Q170-90 158-77Q146-64 123-64L92-64L92-152M107-80L123-80Q138-80 146-88Q154-96 154-108Q154-137 123-137L107-137L107-80M211-137L211-116L257-116L257-100L211-100L211-80L257-80L257-64L195-64L195-152L257-152L257-137L211-137M376-152L376-64L355-64L329-100L303-64L282-64L282-152L299-152L299-86L329-125L360-85L360-152L376-152M446-59Q427-59 414-72.50Q401-86 401-106Q401-125 412-139Q423-153 446-153Q470-153 481.50-139Q493-125 493-106Q493-84 479.50-71.50Q466-59 446-59M416-106Q416-94 423.50-84Q431-74 446-74Q462-74 469.50-84Q477-94 477-106Q477-119 470-128.50Q463-138 446-138Q431-138 423.50-127.50Q416-117 416-106Z"  horiz-adv-x="563" vert-adv-y="1000"  />

      
      <glyph glyph-name="uni54" unicode="&#x54;" d="M578 700L578 676L309 676L309 0L284 0L284 676L15 676L15 700L578 700Z"  horiz-adv-x="593" vert-adv-y="1000"  />

      
      <glyph glyph-name="uni0166" unicode="&#x0166;" d="M290 0L290 676L21 676L21 700L584 700L584 676L315 676L315 0L290 0Z"  horiz-adv-x="605" vert-adv-y="1000"  />

      
      <glyph glyph-name="uni0164" unicode="&#x0164;" d="M578 700L578 676L309 676L309 0L284 0L284 676L15 676L15 700L578 700M51 913L551 913L551 748L51 748L51 913M108 786L139 786Q162 786 174 798Q186 810 186 830Q186 848 174 861Q162 874 139 874L108 874L108 786M123 858L139 858Q154 858 162 850Q170 842 170 830Q170 801 139 801L123 801L123 858M227 801L227 822L273 822L273 838L227 838L227 858L273 858L273 874L211 874L211 786L273 786L273 801L227 801M392 786L392 874L371 874L345 838L319 874L298 874L298 786L315 786L315 852L345 813L376 853L376 786L392 786M462 879Q443 879 430 865.50Q417 852 417 832Q417 813 428 799Q439 785 462 785Q486 785 497.50 799Q509 813 509 832Q509 854 495.50 866.50Q482 879 462 879M432 832Q432 844 439.50 854Q447 864 462 864Q478 864 485.50 854Q493 844 493 832Q493 819 486 809.50Q479 800 462 800Q447 800 439.50 810.50Q432 821 432 832Z"  horiz-adv-x="593" vert-adv-y="1000"  />

      
      <glyph glyph-name="uni0162" unicode="&#x0162;" d="M578 700L578 676L309 676L309 0L284 0L284 676L15 676L15 700L578 700M46-25L546-25L546-190L46-190L46-25M103-152L134-152Q157-152 169-140Q181-128 181-108Q181-90 169-77Q157-64 134-64L103-64L103-152M118-80L134-80Q149-80 157-88Q165-96 165-108Q165-137 134-137L118-137L118-80M222-137L222-116L268-116L268-100L222-100L222-80L268-80L268-64L206-64L206-152L268-152L268-137L222-137M387-152L387-64L366-64L340-100L314-64L293-64L293-152L310-152L310-86L340-125L371-85L371-152L387-152M457-59Q438-59 425-72.50Q412-86 412-106Q412-125 423-139Q434-153 457-153Q481-153 492.50-139Q504-125 504-106Q504-84 490.50-71.50Q477-59 457-59M427-106Q427-94 434.50-84Q442-74 457-74Q473-74 480.50-84Q488-94 488-106Q488-119 481-128.50Q474-138 457-138Q442-138 434.50-127.50Q427-117 427-106Z"  horiz-adv-x="593" vert-adv-y="1000"  />

      
      <glyph glyph-name="uni021A" unicode="&#x021A;" d="M578 700L578 676L309 676L309 0L284 0L284 676L15 676L15 700L578 700M46-25L546-25L546-190L46-190L46-25M103-152L134-152Q157-152 169-140Q181-128 181-108Q181-90 169-77Q157-64 134-64L103-64L103-152M118-80L134-80Q149-80 157-88Q165-96 165-108Q165-137 134-137L118-137L118-80M222-137L222-116L268-116L268-100L222-100L222-80L268-80L268-64L206-64L206-152L268-152L268-137L222-137M387-152L387-64L366-64L340-100L314-64L293-64L293-152L310-152L310-86L340-125L371-85L371-152L387-152M457-59Q438-59 425-72.50Q412-86 412-106Q412-125 423-139Q434-153 457-153Q481-153 492.50-139Q504-125 504-106Q504-84 490.50-71.50Q477-59 457-59M427-106Q427-94 434.50-84Q442-74 457-74Q473-74 480.50-84Q488-94 488-106Q488-119 481-128.50Q474-138 457-138Q442-138 434.50-127.50Q427-117 427-106Z"  horiz-adv-x="593" vert-adv-y="1000"  />

      
      <glyph glyph-name="uni55" unicode="&#x55;" d="M653 700L653 241Q653 171 631.50 123Q610 75 572.50 45.50Q535 16 484 3Q433-10 375-10Q316-10 265.50 3Q215 16 177 45.50Q139 75 117.50 123Q96 171 96 241L96 700L121 700L121 242Q121 178 140 134.50Q159 91 193 64Q227 37 273.50 25.50Q320 14 375 14Q429 14 475.50 25.50Q522 37 556 64Q590 91 609 134.50Q628 178 628 242L628 700L653 700Z"  horiz-adv-x="749" vert-adv-y="1000"  />

      
      <glyph glyph-name="unida" unicode="&#xda;" d="M653 700L653 241Q653 171 631.50 123Q610 75 572.50 45.50Q535 16 484 3Q433-10 375-10Q316-10 265.50 3Q215 16 177 45.50Q139 75 117.50 123Q96 171 96 241L96 700L121 700L121 242Q121 178 140 134.50Q159 91 193 64Q227 37 273.50 25.50Q320 14 375 14Q429 14 475.50 25.50Q522 37 556 64Q590 91 609 134.50Q628 178 628 242L628 700L653 700M138 914L638 914L638 749L138 749L138 914M195 787L226 787Q249 787 261 799Q273 811 273 831Q273 849 261 862Q249 875 226 875L195 875L195 787M210 859L226 859Q241 859 249 851Q257 843 257 831Q257 802 226 802L210 802L210 859M314 802L314 823L360 823L360 839L314 839L314 859L360 859L360 875L298 875L298 787L360 787L360 802L314 802M479 787L479 875L458 875L432 839L406 875L385 875L385 787L402 787L402 853L432 814L463 854L463 787L479 787M549 880Q530 880 517 866.50Q504 853 504 833Q504 814 515 800Q526 786 549 786Q573 786 584.50 800Q596 814 596 833Q596 855 582.50 867.50Q569 880 549 880M519 833Q519 845 526.50 855Q534 865 549 865Q565 865 572.50 855Q580 845 580 833Q580 820 573 810.50Q566 801 549 801Q534 801 526.50 811.50Q519 822 519 833Z"  horiz-adv-x="749" vert-adv-y="1000"  />

      
      <glyph glyph-name="unidb" unicode="&#xdb;" d="M653 700L653 241Q653 171 631.50 123Q610 75 572.50 45.50Q535 16 484 3Q433-10 375-10Q316-10 265.50 3Q215 16 177 45.50Q139 75 117.50 123Q96 171 96 241L96 700L121 700L121 242Q121 178 140 134.50Q159 91 193 64Q227 37 273.50 25.50Q320 14 375 14Q429 14 475.50 25.50Q522 37 556 64Q590 91 609 134.50Q628 178 628 242L628 700L653 700M112 914L612 914L612 749L112 749L112 914M169 787L200 787Q223 787 235 799Q247 811 247 831Q247 849 235 862Q223 875 200 875L169 875L169 787M184 859L200 859Q215 859 223 851Q231 843 231 831Q231 802 200 802L184 802L184 859M288 802L288 823L334 823L334 839L288 839L288 859L334 859L334 875L272 875L272 787L334 787L334 802L288 802M453 787L453 875L432 875L406 839L380 875L359 875L359 787L376 787L376 853L406 814L437 854L437 787L453 787M523 880Q504 880 491 866.50Q478 853 478 833Q478 814 489 800Q500 786 523 786Q547 786 558.50 800Q570 814 570 833Q570 855 556.50 867.50Q543 880 523 880M493 833Q493 845 500.50 855Q508 865 523 865Q539 865 546.50 855Q554 845 554 833Q554 820 547 810.50Q540 801 523 801Q508 801 500.50 811.50Q493 822 493 833Z"  horiz-adv-x="749" vert-adv-y="1000"  />

      
      <glyph glyph-name="unidc" unicode="&#xdc;" d="M653 700L653 241Q653 171 631.50 123Q610 75 572.50 45.50Q535 16 484 3Q433-10 375-10Q316-10 265.50 3Q215 16 177 45.50Q139 75 117.50 123Q96 171 96 241L96 700L121 700L121 242Q121 178 140 134.50Q159 91 193 64Q227 37 273.50 25.50Q320 14 375 14Q429 14 475.50 25.50Q522 37 556 64Q590 91 609 134.50Q628 178 628 242L628 700L653 700M118 914L618 914L618 749L118 749L118 914M175 787L206 787Q229 787 241 799Q253 811 253 831Q253 849 241 862Q229 875 206 875L175 875L175 787M190 859L206 859Q221 859 229 851Q237 843 237 831Q237 802 206 802L190 802L190 859M294 802L294 823L340 823L340 839L294 839L294 859L340 859L340 875L278 875L278 787L340 787L340 802L294 802M459 787L459 875L438 875L412 839L386 875L365 875L365 787L382 787L382 853L412 814L443 854L443 787L459 787M529 880Q510 880 497 866.50Q484 853 484 833Q484 814 495 800Q506 786 529 786Q553 786 564.50 800Q576 814 576 833Q576 855 562.50 867.50Q549 880 529 880M499 833Q499 845 506.50 855Q514 865 529 865Q545 865 552.50 855Q560 845 560 833Q560 820 553 810.50Q546 801 529 801Q514 801 506.50 811.50Q499 822 499 833Z"  horiz-adv-x="749" vert-adv-y="1000"  />

      
      <glyph glyph-name="unid9" unicode="&#xd9;" d="M653 700L653 241Q653 171 631.50 123Q610 75 572.50 45.50Q535 16 484 3Q433-10 375-10Q316-10 265.50 3Q215 16 177 45.50Q139 75 117.50 123Q96 171 96 241L96 700L121 700L121 242Q121 178 140 134.50Q159 91 193 64Q227 37 273.50 25.50Q320 14 375 14Q429 14 475.50 25.50Q522 37 556 64Q590 91 609 134.50Q628 178 628 242L628 700L653 700M123 913L623 913L623 748L123 748L123 913M180 786L211 786Q234 786 246 798Q258 810 258 830Q258 848 246 861Q234 874 211 874L180 874L180 786M195 858L211 858Q226 858 234 850Q242 842 242 830Q242 801 211 801L195 801L195 858M299 801L299 822L345 822L345 838L299 838L299 858L345 858L345 874L283 874L283 786L345 786L345 801L299 801M464 786L464 874L443 874L417 838L391 874L370 874L370 786L387 786L387 852L417 813L448 853L448 786L464 786M534 879Q515 879 502 865.50Q489 852 489 832Q489 813 500 799Q511 785 534 785Q558 785 569.50 799Q581 813 581 832Q581 854 567.50 866.50Q554 879 534 879M504 832Q504 844 511.50 854Q519 864 534 864Q550 864 557.50 854Q565 844 565 832Q565 819 558 809.50Q551 800 534 800Q519 800 511.50 810.50Q504 821 504 832Z"  horiz-adv-x="749" vert-adv-y="1000"  />

      
      <glyph glyph-name="uni0170" unicode="&#x0170;" d="M653 700L653 241Q653 171 631.50 123Q610 75 572.50 45.50Q535 16 484 3Q433-10 375-10Q316-10 265.50 3Q215 16 177 45.50Q139 75 117.50 123Q96 171 96 241L96 700L121 700L121 242Q121 178 140 134.50Q159 91 193 64Q227 37 273.50 25.50Q320 14 375 14Q429 14 475.50 25.50Q522 37 556 64Q590 91 609 134.50Q628 178 628 242L628 700L653 700M128 914L628 914L628 749L128 749L128 914M185 787L216 787Q239 787 251 799Q263 811 263 831Q263 849 251 862Q239 875 216 875L185 875L185 787M200 859L216 859Q231 859 239 851Q247 843 247 831Q247 802 216 802L200 802L200 859M304 802L304 823L350 823L350 839L304 839L304 859L350 859L350 875L288 875L288 787L350 787L350 802L304 802M469 787L469 875L448 875L422 839L396 875L375 875L375 787L392 787L392 853L422 814L453 854L453 787L469 787M539 880Q520 880 507 866.50Q494 853 494 833Q494 814 505 800Q516 786 539 786Q563 786 574.50 800Q586 814 586 833Q586 855 572.50 867.50Q559 880 539 880M509 833Q509 845 516.50 855Q524 865 539 865Q555 865 562.50 855Q570 845 570 833Q570 820 563 810.50Q556 801 539 801Q524 801 516.50 811.50Q509 822 509 833Z"  horiz-adv-x="749" vert-adv-y="1000"  />

      
      <glyph glyph-name="uni016A" unicode="&#x016A;" d="M653 700L653 241Q653 171 631.50 123Q610 75 572.50 45.50Q535 16 484 3Q433-10 375-10Q316-10 265.50 3Q215 16 177 45.50Q139 75 117.50 123Q96 171 96 241L96 700L121 700L121 242Q121 178 140 134.50Q159 91 193 64Q227 37 273.50 25.50Q320 14 375 14Q429 14 475.50 25.50Q522 37 556 64Q590 91 609 134.50Q628 178 628 242L628 700L653 700M118 914L618 914L618 749L118 749L118 914M175 787L206 787Q229 787 241 799Q253 811 253 831Q253 849 241 862Q229 875 206 875L175 875L175 787M190 859L206 859Q221 859 229 851Q237 843 237 831Q237 802 206 802L190 802L190 859M294 802L294 823L340 823L340 839L294 839L294 859L340 859L340 875L278 875L278 787L340 787L340 802L294 802M459 787L459 875L438 875L412 839L386 875L365 875L365 787L382 787L382 853L412 814L443 854L443 787L459 787M529 880Q510 880 497 866.50Q484 853 484 833Q484 814 495 800Q506 786 529 786Q553 786 564.50 800Q576 814 576 833Q576 855 562.50 867.50Q549 880 529 880M499 833Q499 845 506.50 855Q514 865 529 865Q545 865 552.50 855Q560 845 560 833Q560 820 553 810.50Q546 801 529 801Q514 801 506.50 811.50Q499 822 499 833Z"  horiz-adv-x="749" vert-adv-y="1000"  />

      
      <glyph glyph-name="uni0172" unicode="&#x0172;" d="M653 700L653 241Q653 171 631.50 123Q610 75 572.50 45.50Q535 16 484 3Q433-10 375-10Q316-10 265.50 3Q215 16 177 45.50Q139 75 117.50 123Q96 171 96 241L96 700L121 700L121 242Q121 178 140 134.50Q159 91 193 64Q227 37 273.50 25.50Q320 14 375 14Q429 14 475.50 25.50Q522 37 556 64Q590 91 609 134.50Q628 178 628 242L628 700L653 700Z"  horiz-adv-x="749" vert-adv-y="1000"  />

      
      <glyph glyph-name="uni016E" unicode="&#x016E;" d="M653 700L653 241Q653 171 631.50 123Q610 75 572.50 45.50Q535 16 484 3Q433-10 375-10Q316-10 265.50 3Q215 16 177 45.50Q139 75 117.50 123Q96 171 96 241L96 700L121 700L121 242Q121 178 140 134.50Q159 91 193 64Q227 37 273.50 25.50Q320 14 375 14Q429 14 475.50 25.50Q522 37 556 64Q590 91 609 134.50Q628 178 628 242L628 700L653 700M114 914L614 914L614 749L114 749L114 914M171 787L202 787Q225 787 237 799Q249 811 249 831Q249 849 237 862Q225 875 202 875L171 875L171 787M186 859L202 859Q217 859 225 851Q233 843 233 831Q233 802 202 802L186 802L186 859M290 802L290 823L336 823L336 839L290 839L290 859L336 859L336 875L274 875L274 787L336 787L336 802L290 802M455 787L455 875L434 875L408 839L382 875L361 875L361 787L378 787L378 853L408 814L439 854L439 787L455 787M525 880Q506 880 493 866.50Q480 853 480 833Q480 814 491 800Q502 786 525 786Q549 786 560.50 800Q572 814 572 833Q572 855 558.50 867.50Q545 880 525 880M495 833Q495 845 502.50 855Q510 865 525 865Q541 865 548.50 855Q556 845 556 833Q556 820 549 810.50Q542 801 525 801Q510 801 502.50 811.50Q495 822 495 833Z"  horiz-adv-x="749" vert-adv-y="1000"  />

      
      <glyph glyph-name="uni56" unicode="&#x56;" d="M326 0L20 700L47 700L339 28L631 700L657 700L351 0L326 0Z"  horiz-adv-x="677" vert-adv-y="1000"  />

      
      <glyph glyph-name="uni57" unicode="&#x57;" d="M959 700L735 0L708 0L493 651L279 0L252 0L28 700L55 700L265 34L482 692L505 692L721 34L931 700L959 700Z"  horiz-adv-x="987" vert-adv-y="1000"  />

      
      <glyph glyph-name="uni1E82" unicode="&#x1E82;" d="M959 700L735 0L708 0L493 651L279 0L252 0L28 700L55 700L265 34L482 692L505 692L721 34L931 700L959 700M253 914L753 914L753 749L253 749L253 914M310 787L341 787Q364 787 376 799Q388 811 388 831Q388 849 376 862Q364 875 341 875L310 875L310 787M325 859L341 859Q356 859 364 851Q372 843 372 831Q372 802 341 802L325 802L325 859M429 802L429 823L475 823L475 839L429 839L429 859L475 859L475 875L413 875L413 787L475 787L475 802L429 802M594 787L594 875L573 875L547 839L521 875L500 875L500 787L517 787L517 853L547 814L578 854L578 787L594 787M664 880Q645 880 632 866.50Q619 853 619 833Q619 814 630 800Q641 786 664 786Q688 786 699.50 800Q711 814 711 833Q711 855 697.50 867.50Q684 880 664 880M634 833Q634 845 641.50 855Q649 865 664 865Q680 865 687.50 855Q695 845 695 833Q695 820 688 810.50Q681 801 664 801Q649 801 641.50 811.50Q634 822 634 833Z"  horiz-adv-x="987" vert-adv-y="1000"  />

      
      <glyph glyph-name="uni0174" unicode="&#x0174;" d="M959 700L735 0L708 0L493 651L279 0L252 0L28 700L55 700L265 34L482 692L505 692L721 34L931 700L959 700M227 914L727 914L727 749L227 749L227 914M284 787L315 787Q338 787 350 799Q362 811 362 831Q362 849 350 862Q338 875 315 875L284 875L284 787M299 859L315 859Q330 859 338 851Q346 843 346 831Q346 802 315 802L299 802L299 859M403 802L403 823L449 823L449 839L403 839L403 859L449 859L449 875L387 875L387 787L449 787L449 802L403 802M568 787L568 875L547 875L521 839L495 875L474 875L474 787L491 787L491 853L521 814L552 854L552 787L568 787M638 880Q619 880 606 866.50Q593 853 593 833Q593 814 604 800Q615 786 638 786Q662 786 673.50 800Q685 814 685 833Q685 855 671.50 867.50Q658 880 638 880M608 833Q608 845 615.50 855Q623 865 638 865Q654 865 661.50 855Q669 845 669 833Q669 820 662 810.50Q655 801 638 801Q623 801 615.50 811.50Q608 822 608 833Z"  horiz-adv-x="987" vert-adv-y="1000"  />

      
      <glyph glyph-name="uni1E84" unicode="&#x1E84;" d="M959 700L735 0L708 0L493 651L279 0L252 0L28 700L55 700L265 34L482 692L505 692L721 34L931 700L959 700M233 914L733 914L733 749L233 749L233 914M290 787L321 787Q344 787 356 799Q368 811 368 831Q368 849 356 862Q344 875 321 875L290 875L290 787M305 859L321 859Q336 859 344 851Q352 843 352 831Q352 802 321 802L305 802L305 859M409 802L409 823L455 823L455 839L409 839L409 859L455 859L455 875L393 875L393 787L455 787L455 802L409 802M574 787L574 875L553 875L527 839L501 875L480 875L480 787L497 787L497 853L527 814L558 854L558 787L574 787M644 880Q625 880 612 866.50Q599 853 599 833Q599 814 610 800Q621 786 644 786Q668 786 679.50 800Q691 814 691 833Q691 855 677.50 867.50Q664 880 644 880M614 833Q614 845 621.50 855Q629 865 644 865Q660 865 667.50 855Q675 845 675 833Q675 820 668 810.50Q661 801 644 801Q629 801 621.50 811.50Q614 822 614 833Z"  horiz-adv-x="987" vert-adv-y="1000"  />

      
      <glyph glyph-name="uni1E80" unicode="&#x1E80;" d="M959 700L735 0L708 0L493 651L279 0L252 0L28 700L55 700L265 34L482 692L505 692L721 34L931 700L959 700M238 913L738 913L738 748L238 748L238 913M295 786L326 786Q349 786 361 798Q373 810 373 830Q373 848 361 861Q349 874 326 874L295 874L295 786M310 858L326 858Q341 858 349 850Q357 842 357 830Q357 801 326 801L310 801L310 858M414 801L414 822L460 822L460 838L414 838L414 858L460 858L460 874L398 874L398 786L460 786L460 801L414 801M579 786L579 874L558 874L532 838L506 874L485 874L485 786L502 786L502 852L532 813L563 853L563 786L579 786M649 879Q630 879 617 865.50Q604 852 604 832Q604 813 615 799Q626 785 649 785Q673 785 684.50 799Q696 813 696 832Q696 854 682.50 866.50Q669 879 649 879M619 832Q619 844 626.50 854Q634 864 649 864Q665 864 672.50 854Q680 844 680 832Q680 819 673 809.50Q666 800 649 800Q634 800 626.50 810.50Q619 821 619 832Z"  horiz-adv-x="987" vert-adv-y="1000"  />

      
      <glyph glyph-name="uni58" unicode="&#x58;" d="M11 0L288 360L26 700L56 700L303 379L551 700L580 700L318 360L595 0L566 0L303 340L41 0L11 0Z"  horiz-adv-x="606" vert-adv-y="1000"  />

      
      <glyph glyph-name="uni59" unicode="&#x59;" d="M300 0L300 284L24 700L52 700L312 308L572 700L600 700L325 284L325 0L300 0Z"  horiz-adv-x="625" vert-adv-y="1000"  />

      
      <glyph glyph-name="unidd" unicode="&#xdd;" d="M300 0L300 284L24 700L52 700L312 308L572 700L600 700L325 284L325 0L300 0M73 914L573 914L573 749L73 749L73 914M130 787L161 787Q184 787 196 799Q208 811 208 831Q208 849 196 862Q184 875 161 875L130 875L130 787M145 859L161 859Q176 859 184 851Q192 843 192 831Q192 802 161 802L145 802L145 859M249 802L249 823L295 823L295 839L249 839L249 859L295 859L295 875L233 875L233 787L295 787L295 802L249 802M414 787L414 875L393 875L367 839L341 875L320 875L320 787L337 787L337 853L367 814L398 854L398 787L414 787M484 880Q465 880 452 866.50Q439 853 439 833Q439 814 450 800Q461 786 484 786Q508 786 519.50 800Q531 814 531 833Q531 855 517.50 867.50Q504 880 484 880M454 833Q454 845 461.50 855Q469 865 484 865Q500 865 507.50 855Q515 845 515 833Q515 820 508 810.50Q501 801 484 801Q469 801 461.50 811.50Q454 822 454 833Z"  horiz-adv-x="625" vert-adv-y="1000"  />

      
      <glyph glyph-name="uni0176" unicode="&#x0176;" d="M300 0L300 284L24 700L52 700L312 308L572 700L600 700L325 284L325 0L300 0M47 914L547 914L547 749L47 749L47 914M104 787L135 787Q158 787 170 799Q182 811 182 831Q182 849 170 862Q158 875 135 875L104 875L104 787M119 859L135 859Q150 859 158 851Q166 843 166 831Q166 802 135 802L119 802L119 859M223 802L223 823L269 823L269 839L223 839L223 859L269 859L269 875L207 875L207 787L269 787L269 802L223 802M388 787L388 875L367 875L341 839L315 875L294 875L294 787L311 787L311 853L341 814L372 854L372 787L388 787M458 880Q439 880 426 866.50Q413 853 413 833Q413 814 424 800Q435 786 458 786Q482 786 493.50 800Q505 814 505 833Q505 855 491.50 867.50Q478 880 458 880M428 833Q428 845 435.50 855Q443 865 458 865Q474 865 481.50 855Q489 845 489 833Q489 820 482 810.50Q475 801 458 801Q443 801 435.50 811.50Q428 822 428 833Z"  horiz-adv-x="625" vert-adv-y="1000"  />

      
      <glyph glyph-name="uni0178" unicode="&#x0178;" d="M300 0L300 284L24 700L52 700L312 308L572 700L600 700L325 284L325 0L300 0M53 914L553 914L553 749L53 749L53 914M110 787L141 787Q164 787 176 799Q188 811 188 831Q188 849 176 862Q164 875 141 875L110 875L110 787M125 859L141 859Q156 859 164 851Q172 843 172 831Q172 802 141 802L125 802L125 859M229 802L229 823L275 823L275 839L229 839L229 859L275 859L275 875L213 875L213 787L275 787L275 802L229 802M394 787L394 875L373 875L347 839L321 875L300 875L300 787L317 787L317 853L347 814L378 854L378 787L394 787M464 880Q445 880 432 866.50Q419 853 419 833Q419 814 430 800Q441 786 464 786Q488 786 499.50 800Q511 814 511 833Q511 855 497.50 867.50Q484 880 464 880M434 833Q434 845 441.50 855Q449 865 464 865Q480 865 487.50 855Q495 845 495 833Q495 820 488 810.50Q481 801 464 801Q449 801 441.50 811.50Q434 822 434 833Z"  horiz-adv-x="625" vert-adv-y="1000"  />

      
      <glyph glyph-name="uni1EF2" unicode="&#x1EF2;" d="M300 0L300 284L24 700L52 700L312 308L572 700L600 700L325 284L325 0L300 0M58 913L558 913L558 748L58 748L58 913M115 786L146 786Q169 786 181 798Q193 810 193 830Q193 848 181 861Q169 874 146 874L115 874L115 786M130 858L146 858Q161 858 169 850Q177 842 177 830Q177 801 146 801L130 801L130 858M234 801L234 822L280 822L280 838L234 838L234 858L280 858L280 874L218 874L218 786L280 786L280 801L234 801M399 786L399 874L378 874L352 838L326 874L305 874L305 786L322 786L322 852L352 813L383 853L383 786L399 786M469 879Q450 879 437 865.50Q424 852 424 832Q424 813 435 799Q446 785 469 785Q493 785 504.50 799Q516 813 516 832Q516 854 502.50 866.50Q489 879 469 879M439 832Q439 844 446.50 854Q454 864 469 864Q485 864 492.50 854Q500 844 500 832Q500 819 493 809.50Q486 800 469 800Q454 800 446.50 810.50Q439 821 439 832Z"  horiz-adv-x="625" vert-adv-y="1000"  />

      
      <glyph glyph-name="uni5a" unicode="&#x5a;" d="M24 0L24 22L500 676L44 676L44 700L532 700L532 678L55 24L539 24L539 0L24 0Z"  horiz-adv-x="569" vert-adv-y="1000"  />

      
      <glyph glyph-name="uni0179" unicode="&#x0179;" d="M24 0L24 22L500 676L44 676L44 700L532 700L532 678L55 24L539 24L539 0L24 0M47 914L547 914L547 749L47 749L47 914M104 787L135 787Q158 787 170 799Q182 811 182 831Q182 849 170 862Q158 875 135 875L104 875L104 787M119 859L135 859Q150 859 158 851Q166 843 166 831Q166 802 135 802L119 802L119 859M223 802L223 823L269 823L269 839L223 839L223 859L269 859L269 875L207 875L207 787L269 787L269 802L223 802M388 787L388 875L367 875L341 839L315 875L294 875L294 787L311 787L311 853L341 814L372 854L372 787L388 787M458 880Q439 880 426 866.50Q413 853 413 833Q413 814 424 800Q435 786 458 786Q482 786 493.50 800Q505 814 505 833Q505 855 491.50 867.50Q478 880 458 880M428 833Q428 845 435.50 855Q443 865 458 865Q474 865 481.50 855Q489 845 489 833Q489 820 482 810.50Q475 801 458 801Q443 801 435.50 811.50Q428 822 428 833Z"  horiz-adv-x="569" vert-adv-y="1000"  />

      
      <glyph glyph-name="uni017D" unicode="&#x017D;" d="M24 0L24 22L500 676L44 676L44 700L532 700L532 678L55 24L539 24L539 0L24 0M40 913L540 913L540 748L40 748L40 913M97 786L128 786Q151 786 163 798Q175 810 175 830Q175 848 163 861Q151 874 128 874L97 874L97 786M112 858L128 858Q143 858 151 850Q159 842 159 830Q159 801 128 801L112 801L112 858M216 801L216 822L262 822L262 838L216 838L216 858L262 858L262 874L200 874L200 786L262 786L262 801L216 801M381 786L381 874L360 874L334 838L308 874L287 874L287 786L304 786L304 852L334 813L365 853L365 786L381 786M451 879Q432 879 419 865.50Q406 852 406 832Q406 813 417 799Q428 785 451 785Q475 785 486.50 799Q498 813 498 832Q498 854 484.50 866.50Q471 879 451 879M421 832Q421 844 428.50 854Q436 864 451 864Q467 864 474.50 854Q482 844 482 832Q482 819 475 809.50Q468 800 451 800Q436 800 428.50 810.50Q421 821 421 832Z"  horiz-adv-x="569" vert-adv-y="1000"  />

      
      <glyph glyph-name="uni017B" unicode="&#x017B;" d="M24 0L24 22L500 676L44 676L44 700L532 700L532 678L55 24L539 24L539 0L24 0M22 914L522 914L522 749L22 749L22 914M79 787L110 787Q133 787 145 799Q157 811 157 831Q157 849 145 862Q133 875 110 875L79 875L79 787M94 859L110 859Q125 859 133 851Q141 843 141 831Q141 802 110 802L94 802L94 859M198 802L198 823L244 823L244 839L198 839L198 859L244 859L244 875L182 875L182 787L244 787L244 802L198 802M363 787L363 875L342 875L316 839L290 875L269 875L269 787L286 787L286 853L316 814L347 854L347 787L363 787M433 880Q414 880 401 866.50Q388 853 388 833Q388 814 399 800Q410 786 433 786Q457 786 468.50 800Q480 814 480 833Q480 855 466.50 867.50Q453 880 433 880M403 833Q403 845 410.50 855Q418 865 433 865Q449 865 456.50 855Q464 845 464 833Q464 820 457 810.50Q450 801 433 801Q418 801 410.50 811.50Q403 822 403 833Z"  horiz-adv-x="569" vert-adv-y="1000"  />

      
      <glyph glyph-name="uni61" unicode="&#x61;" d="M444 70Q444 42 459.50 31.50Q475 21 496 21Q516 21 533 28L533 7Q512-1 491-1Q478-1 465 2.50Q452 6 442 14.50Q432 23 426 36Q420 49 420 69L420 105Q385 49 327 19.50Q269-10 203-10Q173-10 143.50-2Q114 6 91 23Q68 40 54 66Q40 92 40 127Q40 169 58 197.50Q76 226 105 244Q134 262 171 270Q208 278 246 278Q293 278 336.50 270Q380 262 420 248L420 300Q420 376 376.50 422Q333 468 247 468Q193 468 149.50 458.50Q106 449 77 438L77 462Q105 472 148 481Q191 490 248 490Q344 490 394 438.50Q444 387 444 298L444 70M64 128Q64 98 76 76Q88 54 108.50 39.50Q129 25 154.50 18Q180 11 207 11Q239 11 270 19Q301 27 329 43Q357 59 380.50 82.50Q404 106 420 137L420 226Q382 240 338 248Q294 256 248 256Q213 256 180 249.50Q147 243 121.50 228Q96 213 80 188.50Q64 164 64 128Z"  horiz-adv-x="539" vert-adv-y="1000"  />

      
      <glyph glyph-name="unie1" unicode="&#xe1;" d="M444 70Q444 42 459.50 31.50Q475 21 496 21Q516 21 533 28L533 7Q512-1 491-1Q478-1 465 2.50Q452 6 442 14.50Q432 23 426 36Q420 49 420 69L420 105Q385 49 327 19.50Q269-10 203-10Q173-10 143.50-2Q114 6 91 23Q68 40 54 66Q40 92 40 127Q40 169 58 197.50Q76 226 105 244Q134 262 171 270Q208 278 246 278Q293 278 336.50 270Q380 262 420 248L420 300Q420 376 376.50 422Q333 468 247 468Q193 468 149.50 458.50Q106 449 77 438L77 462Q105 472 148 481Q191 490 248 490Q344 490 394 438.50Q444 387 444 298L444 70M64 128Q64 98 76 76Q88 54 108.50 39.50Q129 25 154.50 18Q180 11 207 11Q239 11 270 19Q301 27 329 43Q357 59 380.50 82.50Q404 106 420 137L420 226Q382 240 338 248Q294 256 248 256Q213 256 180 249.50Q147 243 121.50 228Q96 213 80 188.50Q64 164 64 128M11 694L511 694L511 529L11 529L11 694M68 567L99 567Q122 567 134 579Q146 591 146 611Q146 629 134 642Q122 655 99 655L68 655L68 567M83 639L99 639Q114 639 122 631Q130 623 130 611Q130 582 99 582L83 582L83 639M187 582L187 603L233 603L233 619L187 619L187 639L233 639L233 655L171 655L171 567L233 567L233 582L187 582M352 567L352 655L331 655L305 619L279 655L258 655L258 567L275 567L275 633L305 594L336 634L336 567L352 567M422 660Q403 660 390 646.50Q377 633 377 613Q377 594 388 580Q399 566 422 566Q446 566 457.50 580Q469 594 469 613Q469 635 455.50 647.50Q442 660 422 660M392 613Q392 625 399.50 635Q407 645 422 645Q438 645 445.50 635Q453 625 453 613Q453 600 446 590.50Q439 581 422 581Q407 581 399.50 591.50Q392 602 392 613Z"  horiz-adv-x="539" vert-adv-y="1000"  />

      
      <glyph glyph-name="uni0103" unicode="&#x0103;" d="M444 70Q444 42 459.50 31.50Q475 21 496 21Q516 21 533 28L533 7Q512-1 491-1Q478-1 465 2.50Q452 6 442 14.50Q432 23 426 36Q420 49 420 69L420 105Q385 49 327 19.50Q269-10 203-10Q173-10 143.50-2Q114 6 91 23Q68 40 54 66Q40 92 40 127Q40 169 58 197.50Q76 226 105 244Q134 262 171 270Q208 278 246 278Q293 278 336.50 270Q380 262 420 248L420 300Q420 376 376.50 422Q333 468 247 468Q193 468 149.50 458.50Q106 449 77 438L77 462Q105 472 148 481Q191 490 248 490Q344 490 394 438.50Q444 387 444 298L444 70M64 128Q64 98 76 76Q88 54 108.50 39.50Q129 25 154.50 18Q180 11 207 11Q239 11 270 19Q301 27 329 43Q357 59 380.50 82.50Q404 106 420 137L420 226Q382 240 338 248Q294 256 248 256Q213 256 180 249.50Q147 243 121.50 228Q96 213 80 188.50Q64 164 64 128M-4 694L496 694L496 529L-4 529L-4 694M53 567L84 567Q107 567 119 579Q131 591 131 611Q131 629 119 642Q107 655 84 655L53 655L53 567M68 639L84 639Q99 639 107 631Q115 623 115 611Q115 582 84 582L68 582L68 639M172 582L172 603L218 603L218 619L172 619L172 639L218 639L218 655L156 655L156 567L218 567L218 582L172 582M337 567L337 655L316 655L290 619L264 655L243 655L243 567L260 567L260 633L290 594L321 634L321 567L337 567M407 660Q388 660 375 646.50Q362 633 362 613Q362 594 373 580Q384 566 407 566Q431 566 442.50 580Q454 594 454 613Q454 635 440.50 647.50Q427 660 407 660M377 613Q377 625 384.50 635Q392 645 407 645Q423 645 430.50 635Q438 625 438 613Q438 600 431 590.50Q424 581 407 581Q392 581 384.50 591.50Q377 602 377 613Z"  horiz-adv-x="539" vert-adv-y="1000"  />

      
      <glyph glyph-name="unie2" unicode="&#xe2;" d="M444 70Q444 42 459.50 31.50Q475 21 496 21Q516 21 533 28L533 7Q512-1 491-1Q478-1 465 2.50Q452 6 442 14.50Q432 23 426 36Q420 49 420 69L420 105Q385 49 327 19.50Q269-10 203-10Q173-10 143.50-2Q114 6 91 23Q68 40 54 66Q40 92 40 127Q40 169 58 197.50Q76 226 105 244Q134 262 171 270Q208 278 246 278Q293 278 336.50 270Q380 262 420 248L420 300Q420 376 376.50 422Q333 468 247 468Q193 468 149.50 458.50Q106 449 77 438L77 462Q105 472 148 481Q191 490 248 490Q344 490 394 438.50Q444 387 444 298L444 70M64 128Q64 98 76 76Q88 54 108.50 39.50Q129 25 154.50 18Q180 11 207 11Q239 11 270 19Q301 27 329 43Q357 59 380.50 82.50Q404 106 420 137L420 226Q382 240 338 248Q294 256 248 256Q213 256 180 249.50Q147 243 121.50 228Q96 213 80 188.50Q64 164 64 128M-15 694L485 694L485 529L-15 529L-15 694M42 567L73 567Q96 567 108 579Q120 591 120 611Q120 629 108 642Q96 655 73 655L42 655L42 567M57 639L73 639Q88 639 96 631Q104 623 104 611Q104 582 73 582L57 582L57 639M161 582L161 603L207 603L207 619L161 619L161 639L207 639L207 655L145 655L145 567L207 567L207 582L161 582M326 567L326 655L305 655L279 619L253 655L232 655L232 567L249 567L249 633L279 594L310 634L310 567L326 567M396 660Q377 660 364 646.50Q351 633 351 613Q351 594 362 580Q373 566 396 566Q420 566 431.50 580Q443 594 443 613Q443 635 429.50 647.50Q416 660 396 660M366 613Q366 625 373.50 635Q381 645 396 645Q412 645 419.50 635Q427 625 427 613Q427 600 420 590.50Q413 581 396 581Q381 581 373.50 591.50Q366 602 366 613Z"  horiz-adv-x="539" vert-adv-y="1000"  />

      
      <glyph glyph-name="unie4" unicode="&#xe4;" d="M444 70Q444 42 459.50 31.50Q475 21 496 21Q516 21 533 28L533 7Q512-1 491-1Q478-1 465 2.50Q452 6 442 14.50Q432 23 426 36Q420 49 420 69L420 105Q385 49 327 19.50Q269-10 203-10Q173-10 143.50-2Q114 6 91 23Q68 40 54 66Q40 92 40 127Q40 169 58 197.50Q76 226 105 244Q134 262 171 270Q208 278 246 278Q293 278 336.50 270Q380 262 420 248L420 300Q420 376 376.50 422Q333 468 247 468Q193 468 149.50 458.50Q106 449 77 438L77 462Q105 472 148 481Q191 490 248 490Q344 490 394 438.50Q444 387 444 298L444 70M64 128Q64 98 76 76Q88 54 108.50 39.50Q129 25 154.50 18Q180 11 207 11Q239 11 270 19Q301 27 329 43Q357 59 380.50 82.50Q404 106 420 137L420 226Q382 240 338 248Q294 256 248 256Q213 256 180 249.50Q147 243 121.50 228Q96 213 80 188.50Q64 164 64 128M-9 694L491 694L491 529L-9 529L-9 694M48 567L79 567Q102 567 114 579Q126 591 126 611Q126 629 114 642Q102 655 79 655L48 655L48 567M63 639L79 639Q94 639 102 631Q110 623 110 611Q110 582 79 582L63 582L63 639M167 582L167 603L213 603L213 619L167 619L167 639L213 639L213 655L151 655L151 567L213 567L213 582L167 582M332 567L332 655L311 655L285 619L259 655L238 655L238 567L255 567L255 633L285 594L316 634L316 567L332 567M402 660Q383 660 370 646.50Q357 633 357 613Q357 594 368 580Q379 566 402 566Q426 566 437.50 580Q449 594 449 613Q449 635 435.50 647.50Q422 660 402 660M372 613Q372 625 379.50 635Q387 645 402 645Q418 645 425.50 635Q433 625 433 613Q433 600 426 590.50Q419 581 402 581Q387 581 379.50 591.50Q372 602 372 613Z"  horiz-adv-x="539" vert-adv-y="1000"  />

      
      <glyph glyph-name="unie0" unicode="&#xe0;" d="M444 70Q444 42 459.50 31.50Q475 21 496 21Q516 21 533 28L533 7Q512-1 491-1Q478-1 465 2.50Q452 6 442 14.50Q432 23 426 36Q420 49 420 69L420 105Q385 49 327 19.50Q269-10 203-10Q173-10 143.50-2Q114 6 91 23Q68 40 54 66Q40 92 40 127Q40 169 58 197.50Q76 226 105 244Q134 262 171 270Q208 278 246 278Q293 278 336.50 270Q380 262 420 248L420 300Q420 376 376.50 422Q333 468 247 468Q193 468 149.50 458.50Q106 449 77 438L77 462Q105 472 148 481Q191 490 248 490Q344 490 394 438.50Q444 387 444 298L444 70M64 128Q64 98 76 76Q88 54 108.50 39.50Q129 25 154.50 18Q180 11 207 11Q239 11 270 19Q301 27 329 43Q357 59 380.50 82.50Q404 106 420 137L420 226Q382 240 338 248Q294 256 248 256Q213 256 180 249.50Q147 243 121.50 228Q96 213 80 188.50Q64 164 64 128M-4 693L496 693L496 528L-4 528L-4 693M53 566L84 566Q107 566 119 578Q131 590 131 610Q131 628 119 641Q107 654 84 654L53 654L53 566M68 638L84 638Q99 638 107 630Q115 622 115 610Q115 581 84 581L68 581L68 638M172 581L172 602L218 602L218 618L172 618L172 638L218 638L218 654L156 654L156 566L218 566L218 581L172 581M337 566L337 654L316 654L290 618L264 654L243 654L243 566L260 566L260 632L290 593L321 633L321 566L337 566M407 659Q388 659 375 645.50Q362 632 362 612Q362 593 373 579Q384 565 407 565Q431 565 442.50 579Q454 593 454 612Q454 634 440.50 646.50Q427 659 407 659M377 612Q377 624 384.50 634Q392 644 407 644Q423 644 430.50 634Q438 624 438 612Q438 599 431 589.50Q424 580 407 580Q392 580 384.50 590.50Q377 601 377 612Z"  horiz-adv-x="539" vert-adv-y="1000"  />

      
      <glyph glyph-name="uni0101" unicode="&#x0101;" d="M444 70Q444 42 459.50 31.50Q475 21 496 21Q516 21 533 28L533 7Q512-1 491-1Q478-1 465 2.50Q452 6 442 14.50Q432 23 426 36Q420 49 420 69L420 105Q385 49 327 19.50Q269-10 203-10Q173-10 143.50-2Q114 6 91 23Q68 40 54 66Q40 92 40 127Q40 169 58 197.50Q76 226 105 244Q134 262 171 270Q208 278 246 278Q293 278 336.50 270Q380 262 420 248L420 300Q420 376 376.50 422Q333 468 247 468Q193 468 149.50 458.50Q106 449 77 438L77 462Q105 472 148 481Q191 490 248 490Q344 490 394 438.50Q444 387 444 298L444 70M64 128Q64 98 76 76Q88 54 108.50 39.50Q129 25 154.50 18Q180 11 207 11Q239 11 270 19Q301 27 329 43Q357 59 380.50 82.50Q404 106 420 137L420 226Q382 240 338 248Q294 256 248 256Q213 256 180 249.50Q147 243 121.50 228Q96 213 80 188.50Q64 164 64 128M-9 694L491 694L491 529L-9 529L-9 694M48 567L79 567Q102 567 114 579Q126 591 126 611Q126 629 114 642Q102 655 79 655L48 655L48 567M63 639L79 639Q94 639 102 631Q110 623 110 611Q110 582 79 582L63 582L63 639M167 582L167 603L213 603L213 619L167 619L167 639L213 639L213 655L151 655L151 567L213 567L213 582L167 582M332 567L332 655L311 655L285 619L259 655L238 655L238 567L255 567L255 633L285 594L316 634L316 567L332 567M402 660Q383 660 370 646.50Q357 633 357 613Q357 594 368 580Q379 566 402 566Q426 566 437.50 580Q449 594 449 613Q449 635 435.50 647.50Q422 660 402 660M372 613Q372 625 379.50 635Q387 645 402 645Q418 645 425.50 635Q433 625 433 613Q433 600 426 590.50Q419 581 402 581Q387 581 379.50 591.50Q372 602 372 613Z"  horiz-adv-x="539" vert-adv-y="1000"  />

      
      </font>
</defs>
</svg>
