<?xml version="1.0" standalone="no"?>
  <!DOCTYPE svg PUBLIC "-//W3C//DTD SVG 1.1//EN" "http://www.w3.org/Graphics/SVG/1.1/DTD/svg11.dtd" >
  <svg>
  <metadata>
  Created by font-carrier
  </metadata>
  <defs>
  <font id="DomesticManners" horiz-adv-x="2306" vert-adv-y="2306" >
    <font-face
      
      font-family="Domestic Manners"
      
      font-weight="400"
      
      font-stretch="normal"
      
      units-per-em="2048"
      
      ascent="2447"
      
      descent="-752"
      
    />
      <missing-glyph />

      

      
      <glyph glyph-name="uni21" unicode="&#x21;" d="M438 1171Q438 1161 426 1122Q413 1076 411 1068Q392 974 381 834Q373 720 340 496Q238 612 238 815Q238 881 252 1023Q254 1094 266 1233Q279 1326 279 1356Q279 1378 277.50 1422.50Q276 1467 276 1489Q276 1616 315 1688Q440 1619 440 1314Q440 1286 439 1237.50Q438 1189 438 1171M393 131Q393 81 364 46.50Q335 12 285 12Q234 12 196 66Q169 115 143 164Q143 241 145 253Q154 311 193 311Q267 311 329 259Q393 204 393 131Z"  horiz-adv-x="473" vert-adv-y="2048"  />

      
      <glyph glyph-name="uni22" unicode="&#x22;" d="M532 1335Q532 1296 543.50 1219.50Q555 1143 555 1104Q555 1001 492 936Q436 993 436 1087Q436 1116 442.50 1173.50Q449 1231 449 1260Q449 1278 442 1308.50Q435 1339 434 1352L426 1524Q465 1509 499 1469Q537 1426 536 1388Q536 1380 534 1362.50Q532 1345 532 1335M225 1167L297 1147Q268 1020 182 952Q115 1012 115 1108Q115 1157 172 1350L158 1380Q152 1376 139 1376Q121 1376 92 1382L91 1389Q88 1424 145.50 1452.50Q203 1481 203 1507Q203 1518 197 1534Q233 1527 254 1491Q269 1457 285 1423L225 1167Z"  horiz-adv-x="563" vert-adv-y="2048"  />

      
      <glyph glyph-name="uni23" unicode="&#x23;" d="M1503 1458Q1384 1268 1368 1139Q1418 1121 1530 1123Q1637 1124 1688 1101Q1724 1084 1749 1053Q1687 1015 1526.50 987.50Q1366 960 1307 923Q1208 862 1208 721L1228 720Q1275 718 1363 734Q1456 750 1499 750Q1597 750 1663 696Q1590 637 1408 586Q1215 530 1150 487Q1030 409 1024 254Q1057 231 1057 203Q1057 181 1025 137Q991 89 987 70L938 57Q889 96 889 150Q889 187 914.50 259Q940 331 940 369Q940 385 938 401Q666 401 545 266L582 254L422-16Q402-16 376 8Q340 42 336 45Q332 61 332 80Q332 118 363 170Q406 243 410 254Q375 276 305 284Q235 292 212 306Q170 330 164 401Q185 454 332 485Q474 515 483 561L520 758Q494 750 461 750Q415 750 349 770Q277 791 250 819Q174 896 174 970Q174 981 176 991Q236 954 344 954L520 954Q586 1149 586 1317Q586 1358 582 1397Q612 1444 659 1444Q678 1444 692 1434Q733 1333 733 1305Q733 1274 705.50 1208.50Q678 1143 678 1108Q678 1055 717 1016L1159 1090Q1197 1138 1241 1245Q1288 1361 1317 1403Q1371 1482 1454 1507L1503 1458M999 659Q1067 772 1067 831Q1067 852 1061 868L643 758L644 739Q646 712 630 661Q614 610 614 586Q614 557 631 537L999 659Z"  horiz-adv-x="1675" vert-adv-y="2048"  />

      
      <glyph glyph-name="uni24" unicode="&#x24;" d="M676 1260Q651 1212 651 1180Q651 1123 764 1097Q877 1071 877 1040Q877 1006 823 940Q805 942 788 942Q680 942 651 854Q670 823 670 778Q670 734 646.50 648Q623 562 623 518Q623 412 774 412Q852 358 852 260Q852 160 771 127Q696 109 620 91Q539 66 539-17Q539-20 540-29.50Q541-39 541-43L528-240Q514-246 504-246Q485-246 467-220Q455-199 442-178L467 43Q432 61 373 61Q347 61 296 56Q245 51 219 51Q160 51 120 78Q73 109 73 165Q73 239 174 272Q345 328 418 326L369 264Q383 244 414 242Q441 241 467 240Q489 256 494 285Q494 282 493 282L492 290L492 298L492 338Q294 507 289 512Q174 630 174 737Q174 791 184 817Q248 981 541 1087L578 1395Q632 1395 653 1351Q658 1340 676 1260M479 854Q428 809 377 763Q319 705 319 645Q358 616 396 587Q448 551 481 551Q500 551 516 559L541 854L479 854Z"  horiz-adv-x="860" vert-adv-y="2048"  />

      
      <glyph glyph-name="uni25" unicode="&#x25;" d="M950 1225Q966 1125 1074 1083Q1177 1053 1281 1023Q1402 980 1442 881Q1233 766 932 489Q695 261 459 33Q414 48 402 112Q397 139 397 217Q634 443 1122 881Q1100 902 1007 922Q926 940 901 991Q796 911 691 831Q548 735 459 735Q368 735 298 823Q231 906 231 999Q231 1138 379 1271Q523 1401 664 1401Q740 1401 822 1342Q864 1311 950 1225M754 1200Q723 1219 676 1219Q582 1219 490 1156Q389 1086 389 997Q389 895 496 895Q574 895 671 959Q778 1031 778 1110Q778 1151 754 1200M1589 315Q1589 177 1486.50 81.50Q1384-14 1245-14Q1128-14 1042 63Q952 142 952 258Q952 302 975 340Q1079 510 1292 510Q1400 510 1484 457Q1519 434 1551 395Q1589 349 1589 315M1456 336Q1331 377 1292 377Q1226 377 1175 342Q1118 302 1118 240Q1118 119 1274 119Q1350 119 1404 174Q1458 229 1458 305Q1458 320 1456 336Z"  horiz-adv-x="1538" vert-adv-y="2048"  />

      
      <glyph glyph-name="uni26" unicode="&#x26;" d="M1012 1280Q1007 1195 921.50 1039Q836 883 834 813Q938 774 997 681Q1053 591 1053 477Q1053 325 952 184Q860 55 717-23Q496-23 496 148Q496 281 539 446Q560 526 631 735Q584 770 530 770Q475 770 361.50 708.50Q248 647 195 647Q172 647 152 653Q86 732 86 758Q86 786 102 801Q108 807 155 835Q336 940 520 940Q606 940 680 911Q711 1011 784 1139Q848 1246 913 1354Q921 1356 928 1356Q962 1356 1012 1280M915 518Q915 666 778 666Q732 560 686 454Q635 324 635 233Q635 197 643 162Q817 316 818 317Q915 420 915 518Z"  horiz-adv-x="1061" vert-adv-y="2048"  />

      
      <glyph glyph-name="uni27" unicode="&#x27;" d="M225 1167L297 1147Q268 1020 182 952Q115 1012 115 1108Q115 1157 172 1350L158 1380Q152 1376 139 1376Q121 1376 92 1382L91 1389Q88 1424 145.50 1452.50Q203 1481 203 1507Q203 1518 197 1534Q233 1527 254 1491Q269 1457 285 1423L225 1167Z"  horiz-adv-x="334" vert-adv-y="2048"  />

      
      <glyph glyph-name="uni28" unicode="&#x28;" d="M809 1348Q750 1307 745 1303Q711 1272 711 1237Q553 1087 448 874Q366 709 293 451Q281 409 281 373Q281 211 452 141Q545 103 760 82Q686-41 616-41Q592-41 575-16Q555-57 532-57Q526-57 514-53L489-16Q471-29 449-29Q389-29 305 45Q238 104 199 208Q164 304 164 401Q164 563 248 778Q377 1109 391 1126Q493 1249 698 1495L712 1496Q754 1499 780 1443Q794 1396 809 1348Z"  horiz-adv-x="799" vert-adv-y="2048"  />

      
      <glyph glyph-name="uni29" unicode="&#x29;" d="M682 373Q682 116 520-78Q487-117 453-117Q419-117 368-80Q308-36 287-29Q279-20 279-8Q279 15 297 39Q315 63 336 70Q365 45 391 45Q428 45 471 104Q495 134 532 193Q565 264 565 406Q565 566 486 760Q452 843 321 1097Q214 1305 176 1434L201 1544Q211 1548 221 1548Q249 1548 277 1516Q358 1332 461 1104Q565 880 612 741Q682 533 682 373Z"  horiz-adv-x="715" vert-adv-y="2048"  />

      
      <glyph glyph-name="uni2a" unicode="&#x2a;" d="M786 1497Q784 1483 784 1468Q784 1435 799 1390Q811 1351 823 1313Q849 1318 917 1347Q975 1372 1012 1372Q1069 1372 1094 1300L958 1190Q967 1166 1049 1118Q1124 1075 1124 1034Q1124 1022 1118 1006Q1032 1079 811 1079L1118 821L1118 772Q1034 796 922 872Q763 979 737 993Q688 834 676 748Q687 748 709 734.50Q731 721 748 721Q755 721 762 723Q763 715 763 709Q763 662 676 662Q627 662 580 698Q529 736 528 784Q528 784 528 895L519 895Q473 896 370 841Q267 786 219 786Q147 786 98 870L406 1079Q378 1099 228 1121Q112 1138 86 1214Q111 1271 174 1292Q193 1298 295 1313Q287 1334 238 1385Q196 1428 196 1462L197 1473Q282 1466 393 1369Q518 1259 578 1239Q631 1292 631 1415Q631 1440 628 1489Q625 1538 625 1563Q625 1589 627 1608Q741 1608 786 1497Z"  horiz-adv-x="1092" vert-adv-y="2048"  />

      
      <glyph glyph-name="uni2b" unicode="&#x2b;" d="M891 1049Q870 1008 841 893Q815 791 780 741Q840 690 946 690Q971 690 1021 694Q1071 698 1096 698Q1239 698 1272 569Q1204 516 1116 516Q1067 516 970.50 537.50Q874 559 825 559Q776 559 731 545Q705 518 705 477Q705 445 725 384.50Q745 324 745 293Q745 233 670 213Q605 266 586 392Q563 539 535 582Q522 584 504 584Q459 584 370 566.50Q281 549 236 549Q174 549 125 577Q66 610 66 668Q66 721 147 754Q212 772 276 791L547 729Q607 790 654.50 951Q702 1112 756 1171Q772 1176 784 1176Q821 1176 848 1126Q886 1054 891 1049Z"  horiz-adv-x="1231" vert-adv-y="2048"  />

      
      <glyph glyph-name="uni2c" unicode="&#x2c;" d="M469 94Q469 82 449-3Q376-317 211-483Q199-487 184-487Q104-487 88-422Q63-393 63-373Q63-358 100-323Q142-284 150-262Q210-117 270 27Q336 203 336 328Q336 391 322 451Q469 336 469 94Z"  horiz-adv-x="565" vert-adv-y="2048"  />

      
      <glyph glyph-name="uni2d" unicode="&#x2d;" d="M1008 608Q944 618 874 618Q760 618 536 575Q312 532 199 532Q166 532 135 535Q96 561 75 623Q73 631 49 731Q92 754 123 754Q164 754 197 719Q214 718 234 718Q332 718 522.50 759.50Q713 801 809 801Q952 801 1044 719L1044 657L1008 608Z"  horiz-adv-x="1018" vert-adv-y="2048"  />

      
      <glyph glyph-name="uni2010" unicode="&#x2010;" d="M1008 608Q944 618 874 618Q760 618 536 575Q312 532 199 532Q166 532 135 535Q96 561 75 623Q73 631 49 731Q92 754 123 754Q164 754 197 719Q214 718 234 718Q332 718 522.50 759.50Q713 801 809 801Q952 801 1044 719L1044 657L1008 608Z"  horiz-adv-x="1018" vert-adv-y="2048"  />

      
      <glyph glyph-name="uni2e" unicode="&#x2e;" d="M346 236Q346 187 313 111Q262-5 260-10Q244-25 227-25Q206-25 178 11Q142 59 137 63Q119 98 119 131Q119 218 226 260Q255 272 260 272Q322 272 346 236Z"  horiz-adv-x="430" vert-adv-y="2048"  />

      
      <glyph glyph-name="uni2f" unicode="&#x2f;" d="M985 1464Q885 1293 730 972Q559 617 481 474Q331 202 174 14Q136-10 63-35Q35 12 35 57Q35 133 137 245Q269 391 285 420Q363 562 565 996Q734 1359 862 1563Q907 1563 937 1532Q942 1526 985 1464Z"  horiz-adv-x="963" vert-adv-y="2048"  />

      
      <glyph glyph-name="uni30" unicode="&#x30;" d="M621 848Q658 854 782 893Q882 924 946 924Q1053 924 1118 838Q1178 760 1178 649Q1178 549 1116 465Q847 102 313-12Q214-33 190-33Q84-33 84 98Q84 216 178 401Q232 500 338 700Q360 748 408 842Q461 936 518 936Q569 936 621 848M946 770Q898 770 821 745Q623 680 499 528Q466 487 289 197Q616 238 854 406Q1049 543 1049 659Q1049 770 946 770Z"  horiz-adv-x="1143" vert-adv-y="2048"  />

      
      <glyph glyph-name="uni31" unicode="&#x31;" d="M825-123Q797-12 715-12Q676-12 601-37.50Q526-63 487-63Q453-63 420-23.50Q387 16 387 51Q387 105 469 128Q555 153 640 177Q745 221 784 319Q808 379 815 537Q821 680 862 750Q734 726 568 629Q433 542 297 455Q240 483 240 575Q240 676 297 725Q331 754 645 874Q870 960 985 1032Q1065 967 1065 864Q1065 776 999.50 607Q934 438 934 348Q934 301 948 258Q971 257 998 257Q1038 257 1117.50 261.50Q1197 266 1237 266Q1378 266 1493 209Q1375 109 1243 90Q1129 84 948 61Q907 51 885.50-33.50Q864-118 825-123Z"  horiz-adv-x="1452" vert-adv-y="2048"  />

      
      <glyph glyph-name="uni32" unicode="&#x32;" d="M1124 772Q1124 641 1046 487Q1003 403 887 233Q1018 219 1050 211Q1140 187 1182 123Q1155 29 1079 29Q1034 29 945 58.50Q856 88 809 88Q729 88 598.50-12.50Q468-113 424-113Q352-113 346 61Q737 258 948 688Q997 788 997 885Q874 965 713 965Q587 965 442 916Q384 896 186 811Q183 810 173 810Q139 810 108 852Q85 887 63 922Q111 1041 316 1102Q469 1147 641 1147Q1124 1147 1124 772Z"  horiz-adv-x="1184" vert-adv-y="2048"  />

      
      <glyph glyph-name="uni33" unicode="&#x33;" d="M995 940Q995 888 895 790Q757 656 754 651Q856 614 959 577Q1087 525 1153 464Q1239 383 1239 274Q1239 121 1085 49Q969-4 795-4Q670-4 562 30Q424 74 373 160Q360 182 360 203Q360 246 434 246Q446 246 497 229Q559 209 567 207Q729 168 883 168Q1063 168 1063 281Q1063 372 868 428Q631 496 520 516Q476 524 449 565Q424 603 424 651Q424 685 446 700L791 934Q712 971 604 971Q422 971 324 885Q316 883 308 883Q271 883 242 914.50Q213 946 213 983Q281 1159 551 1159Q675 1159 796 1116Q944 1063 987 971Q995 954 995 940Z"  horiz-adv-x="1233" vert-adv-y="2048"  />

      
      <glyph glyph-name="uni34" unicode="&#x34;" d="M356 1321Q408 1321 447.50 1277Q487 1233 487 1180Q487 1123 396 961.50Q305 800 305 733Q305 608 477 608Q553 608 639 631Q655 696 655 941Q655 1094 680 1184Q698 1198 717 1198Q742 1198 766.50 1167Q791 1136 791 1110L791 692Q852 690 913 688Q984 678 1012 631Q999 567 931 527Q873 493 815 458Q756 409 756 317Q756 263 784.50 167.50Q813 72 813 39Q813-8 741-8Q677-8 645 82Q632 119 629 177Q627 216 629 284Q632 359 632 383L631 410L598 410Q170 403 170 758Q170 950 360 1159Q303 1243 303 1272Q303 1321 356 1321Z"  horiz-adv-x="987" vert-adv-y="2048"  />

      
      <glyph glyph-name="uni35" unicode="&#x35;" d="M1636 1044Q1552 1057 1462 1057Q1063 1057 645 848Q620 774 592 651Q608 649 627 649Q653 649 705.50 656.50Q758 664 784 664Q1028 664 1028 422Q1028 240 930 113Q823-25 647-25Q479-25 332 70Q170 174 150 332L211 369Q255 285 351 233Q405 204 535 162Q581 147 623 147Q723 147 805 221.50Q887 296 887 395Q887 483 744 483Q703 483 621.50 474.50Q540 466 499 466Q393 466 393 518Q393 557 442 772Q474 908 506 1044Q589 1058 883 1147Q1117 1217 1266 1217Q1499 1217 1636 1044Z"  horiz-adv-x="1571" vert-adv-y="2048"  />

      
      <glyph glyph-name="uni36" unicode="&#x36;" d="M789 1200Q761 1088 676 941Q603 818 531 696Q653 713 741 713Q1035 713 1133 549Q1163 499 1163 449Q1163 276 870 137Q619 18 422 18Q297 18 224 80Q145 146 145 270Q145 448 348 780Q366 810 666 1249Q776 1250 789 1200M1010 487Q911 539 778 539Q628 539 538 498Q434 451 367 333Q330 268 330 242Q330 234 334 229Q900 271 1010 487Z"  horiz-adv-x="1272" vert-adv-y="2048"  />

      
      <glyph glyph-name="uni37" unicode="&#x37;" d="M1288 897Q1288 793 1204 602Q1288 595 1371 589Q1483 577 1548 550Q1635 513 1659 442Q1581 479 1464 479Q1358 479 1198 442Q989 393 946 209Q997 198 999 197Q1015 187 1014 147Q854 14 780 14Q740 14 715 46Q690 78 690 119Q690 190 829 354Q815 358 793 358Q770 358 723 353Q676 348 653 348Q539 348 539 460Q539 475 541 492Q805 541 946 553Q1067 698 1080 718Q1152 818 1167 909Q1032 981 817 981Q510 981 246 860Q152 860 152 983Q152 1053 240 1087Q300 1111 510 1137Q705 1161 797 1161Q901 1161 1022 1137Q1170 1107 1229 1057.50Q1288 1008 1288 897Z"  horiz-adv-x="1591" vert-adv-y="2048"  />

      
      <glyph glyph-name="uni38" unicode="&#x38;" d="M1141 992Q1141 864 1066 722Q984 568 874 524Q957 447 970 431Q1012 378 1012 307Q1012 273 1006 242Q986 141 849 62Q725-10 612-10Q501-10 415 51Q319 119 319 225Q319 360 487 475Q248 528 248 709Q248 825 438 954Q598 1063 768 1063Q856 1063 930 1028Q946 1062 985 1086Q1024 1110 1061 1110Q1141 1110 1141 992M979 831Q901 852 813 852Q569 852 463 702Q536 621 676 621Q734 621 745 623Q824 636 890 695.50Q956 755 979 831M676 150Q746 150 817.50 207.50Q889 265 889 334Q889 373 834 398Q790 412 745 426Q543 340 487 242Q580 150 676 150Z"  horiz-adv-x="1108" vert-adv-y="2048"  />

      
      <glyph glyph-name="uni39" unicode="&#x39;" d="M922 1133Q922 1111 900 1072Q878 1033 877 1020Q768 1047 635 1047Q305 1047 305 893Q305 799 465 799Q598 799 766 848Q872 879 976 1017Q1089 1169 1159 1204Q1227 1145 1227 1083Q1227 1032 1144 918.50Q1061 805 1061 750Q1061 420 901-37Q887-43 877-43Q863-43 850-25Q834-4 827 0Q811 68 811 145Q811 257 854 442Q905 657 913 737Q835 732 663 685Q503 641 412 641Q296 641 216 697Q127 760 127 872Q127 910 139 946Q236 1237 639 1237Q922 1237 922 1133Z"  horiz-adv-x="1188" vert-adv-y="2048"  />

      
      <glyph glyph-name="uni3a" unicode="&#x3a;" d="M348 1032Q348 982 315 907Q266 798 262 786Q246 772 229 772Q208 772 180 808Q144 856 139 860Q121 895 121 928Q121 1015 228 1057Q257 1069 262 1069Q324 1069 348 1032M250 246Q264 203 264 162Q264 66 188 12Q180 10 173 10Q149 10 102 74Q101 84 101 95Q101 149 135 197Q173 250 225 250Q238 250 250 246Z"  horiz-adv-x="369" vert-adv-y="2048"  />

      
      <glyph glyph-name="uni3b" unicode="&#x3b;" d="M461 766Q373 678 328 678Q294 678 270 712Q248 743 248 778Q248 842 287 921Q332 1012 387 1012Q415 980 417 937Q414 1003 414 854Q414 795 461 766M190-401Q158-401 129-377Q128-376 80-328Q80-319 78-299.50Q76-280 76-270Q76-227 131-215Q200-199 229-147Q256-100 270-5Q286 100 301 139Q293 159 293 178Q293 215 319 247Q345 279 381 279Q428 279 428 213Q428 198 424 176Q380-67 358-137Q302-314 190-401Z"  horiz-adv-x="487" vert-adv-y="2048"  />

      
      <glyph glyph-name="uni3c" unicode="&#x3c;" d="M827 1151Q752 1063 548 959Q338 851 262 770Q393 614 613 443Q806 299 999 156Q1029 133 1035 88Q1035 48 1036 8Q733 141 213 635Q117 657 82 708Q49 755 53 856Q172 967 369 1092L606 1243Q636 1266 692 1298Q711 1305 729 1305Q773 1305 798 1247Q801 1241 827 1151Z"  horiz-adv-x="1012" vert-adv-y="2048"  />

      
      <glyph glyph-name="uni3d" unicode="&#x3d;" d="M856 858Q856 747 806 747Q801 747 741.50 762.50Q682 778 643 778Q571 778 429 750Q287 722 214 722Q86 722 33 809L20 907Q154 952 369 952Q408 952 770 932L856 858M733 465Q708 411 592 394Q455 375 426 354Q412 360 395 360Q353 360 265 319.50Q177 279 141 279Q80 279 82 378L82 391Q106 434 131 453Q389 532 496 532Q605 532 733 465Z"  horiz-adv-x="842" vert-adv-y="2048"  />

      
      <glyph glyph-name="uni3e" unicode="&#x3e;" d="M162 1249Q263 1161 472 1088Q765 986 809 965Q986 880 1059 745L1034 647Q934 552 655 333Q409 139 285 8Q268 8 240-7.50Q212-23 199-23Q158-23 135 55Q130 69 113 168Q328 316 874 770Q785 841 625 895Q491 939 357 984Q209 1044 125 1139L113 1249L162 1249Z"  horiz-adv-x="1032" vert-adv-y="2048"  />

      
      <glyph glyph-name="uni3f" unicode="&#x3f;" d="M1125 1295Q1125 1190 1034 1071Q949 972 864 872Q772 756 772 657Q772 627 780 596Q768 535 674 535Q580 535 580 633Q580 728 764.50 983Q949 1238 949 1299Q949 1380 707 1380Q382 1380 190 1284L104 1432Q276 1546 575 1546Q773 1546 958 1503Q1028 1487 1076.50 1426.50Q1125 1366 1125 1295M795 10Q766 2 737 2Q666 2 637 27.50Q608 53 598 121Q590 177 590 170Q590 218 675 228Q774 239 795 268Q860 225 860 158Q860 90 795 10Z"  horiz-adv-x="1094" vert-adv-y="2048"  />

      
      <glyph glyph-name="uni40" unicode="&#x40;" d="M1373 1706Q1587 1706 1731 1530Q1866 1364 1866 1145Q1866 965 1763 844Q1786 791 1786 729Q1786 541 1581 324Q1407 141 1204 41Q988-65 764-65Q729-65 700-63Q445-44 265 201Q98 429 98 694Q98 842 158 973Q308 1300 662 1507Q1003 1706 1373 1706M1724 1171Q1724 1316 1640 1433Q1550 1557 1411 1577Q1369 1583 1323 1583Q1114 1583 864 1459.50Q614 1336 487 1171Q274 894 274 643Q274 436 396 277Q529 104 730 104Q992 104 1250 270Q1468 410 1653 647Q1333 377 1026 377Q869 377 763 445Q639 526 639 674Q639 818 761 909Q871 991 1020 991Q1133 991 1223 954Q1272 1102 1272 1311Q1118 1192 915 1151Q860 1171 848 1234Q845 1291 842 1348Q872 1356 1097 1445Q1256 1507 1358 1507Q1421 1397 1421 1247Q1421 1166 1397.50 1004.50Q1374 843 1374 762Q1374 715 1378 674Q1388 672 1397 672Q1497 672 1606 833Q1724 1007 1724 1171M1071 813Q996 813 906 765Q803 709 803 641Q803 600 883 572Q947 549 999 549Q1075 549 1143 579Q1229 618 1229 684Q1229 746 1179 782Q1135 813 1071 813Z"  horiz-adv-x="1786" vert-adv-y="2048"  />

      
      <glyph glyph-name="uni41" unicode="&#x41;" d="M1237 737Q1258 739 1352 751Q1423 760 1468 760Q1561 760 1642 725Q1623 659 1533 625Q1481 606 1357 587Q1246 571 1214 553Q1214 352 1188 258Q1253 231 1253 178Q1253 138 1229 104Q1203 66 1165 66Q1089 66 1089 321Q1089 359 1091 411Q1093 463 1093 469Q1093 521 1095 499Q1093 515 1078 515Q1011 515 835 474Q627 425 573 418L266 0Q234 0 208 36Q188 67 168 98Q179 126 292 331Q369 472 377 578Q435 586 474 653Q483 670 524 774L475 836Q606 924 778 1184Q952 1448 1077 1536Q1171 1452 1199 1258Q1210 1100 1221 942L1237 737M1100 823Q1100 895 1076.50 1038.50Q1053 1182 1053 1253L770 664L1040 688Q1100 693 1100 823Z"  horiz-adv-x="1577" vert-adv-y="2048"  />

      
      <glyph glyph-name="uni42" unicode="&#x42;" d="M1135 1026Q1135 807 950 727Q1027 666 1084 579Q1151 477 1151 395Q1151 211 938 92Q757-10 558-10Q524-10 457.50 1Q391 12 358 12Q250 12 221-109Q186-102 158.50-64Q131-26 131 11Q131 108 264 662Q365 1081 365 1331Q365 1427 352 1516Q743 1516 922 1386Q1135 1231 1135 1026M989 1020Q989 1199 819 1291Q686 1363 489 1368Q504 1276 504 1190Q504 1108 463 856Q549 819 647 819Q767 819 863 861Q989 916 989 1020M346 193L352 193Q391 195 464 178Q537 161 573 161Q694 161 829 241Q981 331 981 442Q981 543 876 599Q791 645 682 645Q661 645 559 640Q483 637 436 641L346 193Z"  horiz-adv-x="1155" vert-adv-y="2048"  />

      
      <glyph glyph-name="uni43" unicode="&#x43;" d="M975 1139Q946 1139 889 1146Q832 1153 803 1153Q650 1153 546 1020Q454 901 444 741Q442 705 442 666Q442 537 469 399Q506 210 575 176Q604 162 639 162Q704 162 919.50 275.50Q1135 389 1239 389Q1333 389 1333 342Q1333 332 1329 324Q1243 298 958 132Q709-12 612-12Q479-12 358 250Q279 422 279 645Q279 932 406 1125Q554 1348 827 1348Q917 1348 984 1327Q1083 1296 1083 1230Q1083 1139 975 1139Z"  horiz-adv-x="1288" vert-adv-y="2048"  />

      
      <glyph glyph-name="uni44" unicode="&#x44;" d="M1458 498Q1458-23 1077-23Q1016-23 896 1Q776 25 715 25Q573 25 430-55Q357-34 289 12Q205 70 197 129L328 166Q395 319 395 547Q395 655 371 878Q347 1096 348 1209L348 1223L483 1174Q489 1196 489 1223Q489 1266 461.50 1348.50Q434 1431 434 1475Q434 1509 446 1542Q521 1536 635 1488Q768 1431 819 1419Q1032 1371 1112 1323Q1284 1221 1379 957Q1458 737 1458 498M612 1323Q637 1223 637 1092Q637 910 583 621Q515 260 504 154Q578 170 659 170Q712 170 818 158.50Q924 147 977 147Q1162 147 1241 238Q1315 322 1315 510Q1315 639 1284 778Q1221 1061 1052 1173Q950 1240 612 1323Z"  horiz-adv-x="1450" vert-adv-y="2048"  />

      
      <glyph glyph-name="uni45" unicode="&#x45;" d="M1368 1233Q1311 1247 1245 1247Q1124 1247 887.50 1176.50Q651 1106 529 1106Q493 1106 459 1110Q424 1065 424 979Q424 962 440 780Q485 770 541 770Q604 770 729.50 786.50Q855 803 918 803Q1069 803 1159 729Q1046 678 801 648.50Q556 619 446 569L459 176Q821 252 979 252Q1126 252 1245 213Q1245 163 1186 143Q1160 135 1085 127Q785 96 658 68Q423 17 262-94Q214-94 152 4Q324 94 324 389Q324 516 290 769.50Q256 1023 256 1151Q256 1172 259 1215Q262 1258 262 1279Q262 1321 299 1346Q331 1368 375 1368Q463 1368 471 1294Q600 1294 856 1344Q1112 1394 1243 1394Q1381 1394 1381 1311Q1381 1304 1368 1233Z"  horiz-adv-x="1333" vert-adv-y="2048"  />

      
      <glyph glyph-name="uni46" unicode="&#x46;" d="M1149 1270Q1078 1189 884 1189Q852 1189 794 1191.50Q736 1194 713 1194Q567 1194 485 1147L485 754Q766 848 932 848Q1090 848 1235 778L1235 729Q866 715 436 520Q418 456 409 323Q401 198 381 138Q349 42 264-20L168 35Q362 702 362 1294Q362 1349 399 1368Q478 1352 650 1351Q850 1350 924 1342Q1072 1325 1149 1270Z"  horiz-adv-x="1196" vert-adv-y="2048"  />

      
      <glyph glyph-name="uni47" unicode="&#x47;" d="M1030 1438Q981 1305 798 1089Q525 766 499 730Q350 525 350 379Q350 156 551 156Q624 156 698 184Q1196 372 1374 725Q1294 741 1208 741Q961 741 809 627Q768 634 733 664Q694 698 694 737Q694 774 745 805Q748 807 834 836Q1037 905 1180 905Q1384 905 1473 762L1474 736Q1480 571 1308 373Q1175 219 993 100Q786-35 608-35Q445-35 319 85.50Q193 206 193 369Q193 663 433 983Q627 1241 920 1450L1030 1438Z"  horiz-adv-x="1419" vert-adv-y="2048"  />

      
      <glyph glyph-name="uni48" unicode="&#x48;" d="M915 778Q1031 748 1037 746Q1109 719 1124 668Q1088 632 1006 612Q962 604 883 578Q818 545 805 471Q762 219 756 53L836 70Q838 61 838 52Q838 7 806-38Q772-88 729-88Q635-88 635 109Q635 266 690 528Q672 530 651 530Q595 530 500 510Q391 487 350 483Q308 374 240 152Q276 125 276 78Q276 33 240 4L129 4Q90 4 90 68Q90 99 174 379Q241 602 268 853Q277 942 301 1343Q315 1354 334 1354Q364 1354 401 1320Q438 1286 436 1257L387 680Q457 683 596 694Q737 711 768 791Q779 819 801 1004Q817 1146 833 1212Q860 1330 915 1405Q928 1409 934 1409Q983 1409 1001 1356L915 778Z"  horiz-adv-x="1094" vert-adv-y="2048"  />

      
      <glyph glyph-name="uni49" unicode="&#x49;" d="M1245 1368Q1177 1328 955 1289Q756 1255 680 1184Q660 971 603 697Q597 669 494 215Q551 179 666 171Q758 169 850 166Q784 12 526 12Q505 12 462.50 14.50Q420 17 399 17Q360 17 284 1.50Q208-14 170-14Q90-14 63 80Q87 133 165 145Q232 152 299 159Q369 175 383 240Q387 280 399 359Q420 471 471 643Q541 878 541 1030Q541 1094 532 1159Q524 1157 472 1143Q436 1133 412 1133Q327 1133 336 1257Q745 1444 967 1444Q1126 1444 1245 1368Z"  horiz-adv-x="1206" vert-adv-y="2048"  />

      
      <glyph glyph-name="uni4a" unicode="&#x4a;" d="M1432 1266Q1345 1191 1149 1160Q930 1125 854 1081L854 1063Q852 931 909 679Q967 424 967 297Q967 135 903 0Q821-20 719-20Q403-20 203 135Q113 205 113 262Q113 320 188 355Q248 383 313 383Q367 383 436 369L272 258Q524 133 676 133Q780 133 854 184Q862 248 862 315Q862 588 694 1069L680 1070Q641 1072 567 1052Q493 1032 457 1032Q417 1032 383.50 1061Q350 1090 350 1130Q350 1204 492 1227Q662 1254 694 1290Q750 1282 811 1282Q875 1282 1002.50 1294.50Q1130 1307 1194 1307Q1327 1307 1432 1266Z"  horiz-adv-x="1380" vert-adv-y="2048"  />

      
      <glyph glyph-name="uni4b" unicode="&#x4b;" d="M442 1292Q442 667 414 463Q634 681 717 778Q872 961 954 1143Q996 1237 1087 1237Q1100 1237 1114 1235Q1174 1190 1171 1126Q1113 1059 894 751Q718 502 602 406Q622 341 664 281Q718 205 770 205Q814 205 901 236.50Q988 268 1034 268Q1126 268 1126 176Q1126 113 1018 74Q934 43 854 43Q754 43 681 88Q655 104 575 176Q516 230 463 242Q395 134 266-86L121 35Q211 216 255 453Q288 632 303 896Q313 1116 324 1337Q342 1352 365 1352Q421 1352 442 1292Z"  horiz-adv-x="1137" vert-adv-y="2048"  />

      
      <glyph glyph-name="uni4c" unicode="&#x4c;" d="M438 1270Q434 1244 422 1090L395 733Q369 391 295 215Q326 209 362 209Q422 209 539.50 227.50Q657 246 717 246Q888 246 958 129Q967 114 967 98Q967 58 934 26Q901-6 860-6Q807-6 800 36Q788 113 786 117Q737 127 684 127Q559 127 385 63Q147-24 128-24Q74-24 74 18Q74 38 160 274Q212 416 231 535Q252 664 270 1071Q274 1170 281 1224Q297 1352 328 1356Q338 1362 350 1362Q393 1362 438 1270Z"  horiz-adv-x="946" vert-adv-y="2048"  />

      
      <glyph glyph-name="uni4d" unicode="&#x4d;" d="M840 463Q931 588 1056 896Q1176 1191 1282 1323Q1298 1331 1313 1331Q1350 1331 1385 1277Q1417 1228 1417 1188Q1417 1189 1389 1022Q1278 350 1278 41Q1278-33 1282-102L1196-66Q1174 49 1174 172Q1174 299 1211 561Q1247 817 1245 950L1245 979Q1212 910 1147 706Q1089 523 1036 433Q955 297 827 242Q755 389 689 599Q636 783 582 967Q527 852 467 631Q396 368 368 289Q292 72 201-16Q175-41 150-41Q113-41 90-1Q70 33 70 72Q70 147 146 305Q247 515 256 541Q344 797 344 987Q344 1083 324 1176Q343 1204 367 1204Q384 1204 410 1188Q423 1155 459 1114Q505 1226 511 1239Q548 1319 582 1348Q690 1278 727 1097Q746 946 766 795Q788 673 840 463Z"  horiz-adv-x="1415" vert-adv-y="2048"  />

      
      <glyph glyph-name="uni4e" unicode="&#x4e;" d="M1411 1124Q1411 763 1359 489Q1271 23 1057 23Q899 23 789 188Q734 270 649 492Q615 580 565 743Q518 530 398 271Q382 237 172-178L157-179Q112-183 93-132Q88-121 74-43Q217 386 271.50 617Q326 848 351 1083Q356 1178 369 1309Q376 1337 408 1337Q429 1337 455 1321Q456 1308 473.50 1284.50Q491 1261 492 1247Q503 1257 537 1327Q564 1384 590 1384Q606 1384 627 1370Q672 1240 725 920Q777 611 812 489Q904 172 1040 172Q1198 172 1247 720Q1266 938 1266 1395Q1266 1425 1288.50 1445.50Q1311 1466 1341 1466Q1388 1466 1401 1407Q1411 1362 1411 1124Z"  horiz-adv-x="1372" vert-adv-y="2048"  />

      
      <glyph glyph-name="uni4f" unicode="&#x4f;" d="M1413 799Q1413 675 1292 539Q1155 385 863 196Q536-16 373-16Q295-16 231 26Q158 73 158 147Q158 594 440 934Q436 971 436 1004Q436 1174 550.50 1293.50Q665 1413 834 1413Q1011 1413 1214 1194Q1413 978 1413 799M850 1231Q707 1231 625 1094Q721 1055 721 1001Q721 970 648 879.50Q575 789 575 745Q575 723 588 700L514 725Q406 556 367 477Q295 328 295 202Q295 162 300 149Q310 125 344 125Q439 125 783 338Q1099 535 1204 635Q1292 719 1292 803Q1292 841 1276 881Q1220 1022 1111 1120Q988 1231 850 1231Z"  horiz-adv-x="1362" vert-adv-y="2048"  />

      
      <glyph glyph-name="uni50" unicode="&#x50;" d="M489 1499Q547 1442 766.50 1290Q986 1138 1080 1046Q1231 899 1231 772Q1231 526 944 526Q859 526 710 555Q548 586 477 590Q462 430 446 271Q413 83 317-12Q305-16 293-16Q259-16 238 20Q219 50 219 86Q219 712 303 1286Q308 1344 330 1450Q342 1488 399 1497Q413 1499 489 1499M465 1327Q436 1210 436 1094Q436 1033 455 829Q684 670 891 670Q966 670 1024 689Q1108 717 1108 774Q1108 873 951 995Q890 1042 709 1151Q539 1253 465 1327Z"  horiz-adv-x="1192" vert-adv-y="2048"  />

      
      <glyph glyph-name="uni51" unicode="&#x51;" d="M1524 737Q1524 601 1444 458Q1370 325 1255 236Q1293 107 1323 43Q1378-73 1452-109Q1506-135 1542-135Q1582-135 1612-96Q1628-131 1628-162Q1628-244 1550-244Q1397-244 1283-123Q1244-82 1108 125Q857 37 828 29Q664-20 537-20Q358-20 249 99Q143 214 143 395Q143 563 263 787Q365 977 504 1126Q774 1415 1047 1415Q1232 1415 1353 1226Q1418 1124 1501 874Q1524 805 1524 737M1145 1255Q979 1255 773 1104Q578 961 442 757Q299 542 299 373Q299 152 518 152Q668 152 1047 309Q1022 359 996 410Q967 471 967 516Q967 593 1036 593Q1082 593 1130 524Q1140 511 1194 414Q1397 561 1397 754Q1397 1022 1145 1255Z"  horiz-adv-x="1565" vert-adv-y="2048"  />

      
      <glyph glyph-name="uni52" unicode="&#x52;" d="M1321 803Q1321 610 1207 510Q1099 414 905 414Q863 414 778 419Q693 424 651 424Q529 424 526 362Q566 334 763 311Q982 286 1074 250Q1228 189 1225 57L1225 47Q1188-43 1141-43Q1124-43 1112-27Q1094 97 949 134Q882 151 657 159Q472 164 410 207Q376 143 342 79Q291-1 242-14L162 84Q249 447 286 771Q303 921 307 1024L311 1116Q321 1145 342 1202L451 1190Q473 1231 481 1387Q487 1515 567 1583Q724 1485 882 1386Q1081 1253 1185 1131Q1321 970 1321 803M1190 784Q1190 959 979 1118Q863 1205 612 1325Q577 1150 542 975Q506 773 506 621Q506 569 510 526Q578 575 692 575Q740 575 835.50 564Q931 553 979 553Q1190 553 1190 784Z"  horiz-adv-x="1278" vert-adv-y="2048"  />

      
      <glyph glyph-name="uni53" unicode="&#x53;" d="M969 1290Q969 1245 883 1235Q779 1224 676 1214Q516 1193 426 1154Q305 1101 305 1014Q305 921 473 860Q587 826 799 748Q988 665 988 444Q988 244 911 119Q818-31 631-31Q496-31 337 29Q141 103 141 211Q141 254 169 288Q197 322 240 322Q283 322 336 273Q422 193 438 182Q509 133 598 133Q711 133 782.50 203.50Q854 274 854 387Q854 518 758 569Q698 601 517 659Q362 709 291 761Q184 840 158 977Q152 1008 152 1034Q152 1227 403 1358Q528 1423 702 1423Q788 1423 920 1407Q969 1306 969 1290Z"  horiz-adv-x="987" vert-adv-y="2048"  />

      
      <glyph glyph-name="uni54" unicode="&#x54;" d="M705 1155Q764 1158 895 1187Q1018 1214 1087 1214Q1241 1214 1282 1094Q1194 1082 1000 1037Q818 995 717 983Q704 903 667 489Q640 186 582 0Q569-4 563-4Q535-4 513 34Q493 69 496 98L582 872Q590 946 508 946Q481 946 361 891Q241 836 164 836Q115 885 115 971Q166 1026 286 1059Q448 1104 473 1116Q566 1160 582 1253Q589 1255 596 1255Q625 1255 658 1217Q682 1186 705 1155Z"  horiz-adv-x="1241" vert-adv-y="2048"  />

      
      <glyph glyph-name="uni55" unicode="&#x55;" d="M1225 1260Q1225 1217 1209 1155Q1196 1103 1182 1051Q1138 864 1093 676Q1042 442 1042 303Q1042 109 1157 109Q1218 109 1242 154Q1266 199 1294 197Q1350 154 1362 55Q1350 11 1281-26Q1217-59 1167-59Q1074-59 990.50 27.50Q907 114 905 207Q797 78 706 25Q596-39 444-39Q229-39 229 352Q229 534 274 805Q300 931 340 1182Q342 1243 354 1362Q370 1458 465 1468Q528 1419 528 1341Q528 1322 522 1303Q430 1013 369 371Q368 356 368 341Q368 280 391 216Q420 134 467 127Q481 125 510 125Q776 125 922 573Q980 751 1043 1164Q1050 1235 1073 1370Q1084 1415 1124 1415Q1174 1415 1203 1360Q1225 1315 1225 1260Z"  horiz-adv-x="1335" vert-adv-y="2048"  />

      
      <glyph glyph-name="uni56" unicode="&#x56;" d="M1077 1475Q1077 1442 1053 1402Q1021 1350 1016 1335Q987 1237 925 1041Q810 711 619 311Q569 197 475 20Q448-20 391-20Q377-20 365-16Q261 229 193 584Q174 683 124 1009Q94 1210 94 1212Q94 1235 116.50 1261.50Q139 1288 162 1288Q178 1288 193 1274Q237 1137 298 773Q353 452 426 279Q701 751 833 1178Q860 1291 918 1520Q933 1575 977 1575Q1017 1575 1047 1545Q1077 1515 1077 1475Z"  horiz-adv-x="1049" vert-adv-y="2048"  />

      
      <glyph glyph-name="uni57" unicode="&#x57;" d="M1432 1065Q1432 422 1075 123Q989 51 952 51Q920 51 879 78Q698 196 694 492Q504 154 399-12Q317-12 279 55Q252 103 246 207Q245 261 240 369Q234 467 188 702Q147 915 147 1038Q147 1194 178 1266Q184 1281 209 1281Q217 1281 231.50 1279.50Q246 1278 252 1278Q310 1121 329 799Q349 468 399 319Q466 409 572 642Q671 859 756 958Q848 913 848 834Q848 803 835 755Q820 695 817 676Q807 604 807 547Q807 468 833 366Q867 233 920 233Q955 233 1001 283Q1292 598 1292 1065Q1292 1188 1272 1303Q1251 1424 1251 1427Q1251 1530 1323 1530Q1369 1530 1395 1462Q1432 1365 1432 1065Z"  horiz-adv-x="1380" vert-adv-y="2048"  />

      
      <glyph glyph-name="uni58" unicode="&#x58;" d="M1425 1235Q1380 1102 1260 957Q1207 893 1026 710Q877 559 811 461Q963 209 1094 117Q1106 141 1167 141Q1190 111 1190 84Q1190 58 1148 15Q1101-34 1094-55Q1079-57 1069-57Q1037-57 1008 18L688 338Q528 227 270-31Q197-6 172 31L171 44Q167 121 265 205Q357 273 449 342Q549 421 549 485Q549 532 508 577Q499 587 430 645Q306 749 224 881Q127 1036 127 1174Q127 1217 135 1260Q156 1264 174 1264Q209 1264 282 1234Q350 1205 393 1210Q394 1168 346 1158Q292 1147 283 1124Q323 980 448 828Q527 732 688 584Q751 659 901 792Q1048 923 1111 999Q1215 1124 1253 1260Q1292 1307 1350 1307Q1418 1307 1425 1235Z"  horiz-adv-x="1374" vert-adv-y="2048"  />

      
      <glyph glyph-name="uni59" unicode="&#x59;" d="M295 1356Q295 1344 283 1167L276 1077Q276 965 313 869Q363 741 457 741Q536 741 668 879Q760 975 833 1147Q933 1382 961 1430Q975 1434 989 1434Q1073 1434 1096 1319Q937 1001 875 905Q739 692 555 565Q550 528 515 367Q489 246 489 168Q489 102 506 49Q525 50 546 74Q573 107 580 111Q621 74 621 33Q621-11 565-69Q503-133 494-160L484-160Q412-163 358-74Q362 262 403 539Q273 617 197 792Q129 949 129 1116Q129 1296 209 1442Q239 1435 265 1411Q295 1385 295 1356Z"  horiz-adv-x="1067" vert-adv-y="2048"  />

      
      <glyph glyph-name="uni5a" unicode="&#x5a;" d="M1470 895Q1470 801 1417 705Q1529 674 1565 656Q1647 615 1663 545Q1561 580 1462 580Q1163 580 815 213Q827 212 843 212Q893 212 991.50 224Q1090 236 1139 236Q1350 236 1417 90L1417 53Q1323 84 1227 84Q1135 84 951 42Q767 0 680 0Q629 0 582 115Q598 218 686 319Q695 329 852 483Q807 545 807 590Q807 635 864 643Q1019 665 1161 751Q1321 847 1321 909Q1321 1017 1058 1074Q875 1114 700 1114Q414 1114 188 1049Q125 1146 125 1177Q125 1187 127 1196Q344 1309 625 1309Q834 1309 1037 1249Q1263 1183 1405 1061Q1470 1005 1470 895Z"  horiz-adv-x="1595" vert-adv-y="2048"  />

      
      <glyph glyph-name="uni5b" unicode="&#x5b;" d="M772 1421Q686 1456 569 1456Q475 1456 367 1434Q381 1325 381 1210Q381 1020 321 664Q260 296 256 119Q390 126 661 175Q929 223 1067 229Q1122 189 1122 125Q1122 94 1104 70Q962 70 686-10Q410-90 268-90Q203-90 145-78L109 82Q109 87 133 275L188 702Q227 1031 227 1335Q227 1468 219 1593Q344 1651 494 1651Q698 1651 772 1532L772 1421Z"  horiz-adv-x="1090" vert-adv-y="2048"  />

      
      <glyph glyph-name="uni5c" unicode="&#x5c;" d="M53 1257Q97 1319 127 1319Q152 1319 188 1221Q213 1153 238 1085Q263 1031 317 926Q410 755 555 549Q683 367 724 306Q817 166 877 53Q860 14 842-25Q816-70 778-70Q670-17 595 113Q537 234 479 355Q409 500 324 569Q301 639 169 907Q68 1113 53 1257Z"  horiz-adv-x="862" vert-adv-y="2048"  />

      
      <glyph glyph-name="uni5d" unicode="&#x5d;" d="M1040 1307Q994 1101 948 896Q899 655 899 479Q899 274 967 90L942 16Q856 61 739 61Q652 61 502 30Q336-3 266-8Q205 41 205 176Q324 215 491 231Q636 240 782 250Q782 626 787 716Q802 987 868 1171Q801 1194 721 1194Q652 1194 515 1171.50Q378 1149 309 1149Q248 1149 193 1159Q115 1221 94 1343Q247 1343 526 1372Q673 1385 967 1417L1040 1307Z"  horiz-adv-x="1036" vert-adv-y="2048"  />

      
      <glyph glyph-name="uni5e" unicode="&#x5e;" d="M729 1886Q721 1851 721 1815Q721 1701 820 1574Q864 1516 1003 1380Q1102 1284 1102 1247Q1068 1172 1069 1163Q944 1209 826 1329Q814 1340 631 1554L557 1540Q398 1306 395 1301Q287 1158 190 1106Q156 1144 123 1183Q86 1232 84 1274Q129 1342 339 1599Q500 1795 567 1944Q586 1950 606 1950Q680 1950 729 1886Z"  horiz-adv-x="1071" vert-adv-y="2048"  />

      
      <glyph glyph-name="uni5f" unicode="&#x5f;" d="M1395-317L1395-393L1346-430Q1180-385 995-385Q888-385 652-409Q395-434 133-434Q89-434 69-371Q68-369 49-270L61-221Q216-254 419-254Q516-254 709.50-239.50Q903-225 1000-225Q1267-225 1358-258Q1395-271 1395-317Z"  horiz-adv-x="1346" vert-adv-y="2048"  />

      
      <glyph glyph-name="uni60" unicode="&#x60;" d="M610 1110Q610 1061 592 1010Q569 944 530 944Q508 944 479 977Q441 1019 434 1024Q451 1075 451 1116Q451 1201 373 1276Q302 1336 231 1395Q184 1439 163 1499Q146 1559 129 1618Q292 1571 393 1454Q561 1259 592 1204Q610 1172 610 1110Z"  horiz-adv-x="612" vert-adv-y="2048"  />

      
      <glyph glyph-name="uni61" unicode="&#x61;" d="M848 844Q848 734 782 533Q714 324 709 221Q735 182 778 176Q840 169 856 160Q874 125 874 92Q874 23 745-86Q551-100 528-100Q393-100 294-47Q172 20 172 145Q172 240 261 304Q341 362 440 362Q512 362 573 332Q670 492 688 721Q609 706 439 613Q284 530 184 524Q117 578 117 666Q117 688 123 709Q194 740 453 839Q734 946 756 946Q848 946 848 844M614 98Q577 115 549 197Q508 215 459 215Q347 215 351 127L352 111Q401 59 494 59Q571 59 614 98Z"  horiz-adv-x="918" vert-adv-y="2048"  />

      
      <glyph glyph-name="uni62" unicode="&#x62;" d="M573 1485Q573 1188 520 821L551 822Q720 827 880 725Q1059 611 1059 449Q1059 402 1042 350Q960 102 543 43Q281 6 270 6Q223 6 162 77Q156 84 80 190Q78 197 78 203Q78 226 135 264L184 264Q444 966 444 1415Q444 1524 422 1589Q467 1589 517 1560Q573 1527 573 1485M909 479Q909 575 817 626Q743 668 639 668Q562 668 532 651Q466 614 417 454Q384 338 350 223Q432 182 541 182Q691 182 793 254Q909 335 909 479Z"  horiz-adv-x="1032" vert-adv-y="2048"  />

      
      <glyph glyph-name="uni63" unicode="&#x63;" d="M1018 707Q997 645 902 645Q878 645 829.50 648Q781 651 757 651Q628 651 456 508Q279 361 279 236Q279 177 320 136.50Q361 96 420 96Q496 96 697 197.50Q898 299 977 299Q1071 299 1071 231Q1071 201 1059 178Q625-39 412-39Q297-39 211 19Q113 85 113 195Q113 373 311 574Q455 720 662 842L687 843Q766 847 860 799Q939 753 1018 707Z"  horiz-adv-x="1184" vert-adv-y="2048"  />

      
      <glyph glyph-name="uni64" unicode="&#x64;" d="M1274 1518Q1276 1477 1276 1436Q1276 1208 1195 905Q1118 646 1040 387Q1051 379 1061 379Q1072 379 1113.50 420Q1155 461 1188 461Q1174 405 1082 277Q1000 164 1003 93L1004 80L1040 80Q1041 25 975 25Q956 25 915.50 33Q875 41 854 41Q785 41 646.50 21.50Q508 2 438 2Q350 2 268 30Q165 65 131 129Q109 170 109 250Q109 488 372 639Q595 766 852 766Q924 766 991 756Q1040 879 1101.50 1137Q1163 1395 1212 1518L1274 1518M930 596Q874 612 809 612Q617 612 436.50 499Q256 386 256 274Q256 143 463 143Q691 143 881 264Q881 327 902 431Q926 553 930 596Z"  horiz-adv-x="1235" vert-adv-y="2048"  />

      
      <glyph glyph-name="uni65" unicode="&#x65;" d="M1159 674Q1159 623 1112 563Q831 397 520 397Q463 397 403 403Q352 367 352 305Q352 241 404 202Q450 166 516 166Q609 166 809 247Q1009 328 1094 328Q1143 328 1174 305Q834 6 555 6Q398 6 309 79Q213 158 213 311Q213 334 215 378.50Q217 423 217 446Q217 516 197 551Q285 566 402 674Q527 789 590 809Q694 842 823 842Q928 842 1026 807Q1159 759 1159 674M1014 674Q940 711 850 711Q767 711 679 678Q580 641 537 582Q514 550 514 532Q514 498 575 498Q668 498 807 554Q946 610 1014 674Z"  horiz-adv-x="1188" vert-adv-y="2048"  />

      
      <glyph glyph-name="uni66" unicode="&#x66;" d="M1436 924Q1436 892 1414 870Q1392 848 1360 848Q1316 848 1275 880Q1231 913 1231 956Q1231 981 1255 1006Q1276 1025 1298 1044Q1252 1651 1049 1806Q1027 1823 1008 1823Q883 1823 735 1348Q602 921 602 700Q602 675 606 662Q909 631 1149 498Q1148 481 1165 457Q1120 449 1071 449Q1003 449 868.50 469Q734 489 666 489Q633 489 604 485Q551 416 551 272Q551 260 558 163Q563 95 555 55L782 166Q784 157 784 147Q784 75 698-24Q612-123 539-123Q476-123 443-47Q418 10 418 82Q418 117 425 186.50Q432 256 432 291Q432 416 319 416Q283 416 211 400.50Q139 385 104 385Q29 385 29 487Q29 596 130 624Q232 644 335 663Q457 706 494 848Q540 1044 586 1239Q659 1530 740 1701Q849 1932 983 1974Q1002 1980 1018 1980Q1190 1980 1326 1525Q1436 1157 1436 924Z"  horiz-adv-x="1384" vert-adv-y="2048"  />

      
      <glyph glyph-name="uni67" unicode="&#x67;" d="M936 756Q1067 756 1067 651Q1067 578 963.50 377Q860 176 860 86Q860 8 951-99Q1035-191 1119-283Q1210-394 1210-483Q1210-565 1139-651Q1055-752 860-752Q636-752 362-658Q198-601 186-596Q49-540 49-494Q49-479 63-465Q186-469 441-556Q690-641 823-641Q913-641 996-599Q1096-547 1096-466Q1096-395 921-216Q736-28 715 78Q573 0 395 0Q274 0 202.50 72Q131 144 131 266Q131 433 260 609Q399 797 559 797Q605 797 691.50 767Q778 737 823 737Q843 737 879.50 746.50Q916 756 936 756M760 594Q715 668 575 668Q473 668 376 507Q287 360 287 248Q287 129 389 129Q477 129 614 180Q679 204 719 364Q724 383 760 594Z"  horiz-adv-x="1174" vert-adv-y="2048"  />

      
      <glyph glyph-name="uni68" unicode="&#x68;" d="M424 547Q604 745 788 745Q908 745 951 667Q981 612 981 485Q981 201 866-129Q854-133 848-133Q825-133 798-102Q762-59 756-55Q852 272 852 498Q852 584 823 584Q642 584 379 182Q379 181 338 59Q315-10 274-7L264-6L190 80Q212 194 250 624Q280 962 350 1161Q446 1110 446 1008Q446 953 418.50 844.50Q391 736 391 680Q391 606 424 547Z"  horiz-adv-x="981" vert-adv-y="2048"  />

      
      <glyph glyph-name="uni69" unicode="&#x69;" d="M791 907Q764 870 729 870Q696 870 668 907Q650 903 590 853Q534 805 508 805Q453 805 453 926Q453 1040 569 1055Q637 1033 706 1010Q781 977 791 907M461 616Q456 550 401 410Q349 278 349 205Q349 135 422 135Q477 135 577 168Q654 196 731 223Q750 199 750 170Q750 135 719 88Q520-31 371-31Q217-31 217 133Q217 242 282 414Q362 624 375 690Q408 678 461 616Z"  horiz-adv-x="782" vert-adv-y="2048"  />

      
      <glyph glyph-name="uni6a" unicode="&#x6a;" d="M614 721Q602 684 504 684Q457 717 446 791Q442 815 442 918Q505 911 540 826Q578 734 614 721M616-379Q616-565 541-717Q496-737 449-737Q325-737 204-599Q111-494 49-348Q128-353 250-458Q368-561 430-561Q449-561 467-557Q489-475 489-381Q489-251 428 3Q367 257 367 387Q367 459 381 524L396 525Q493 528 502 426Q500 365 506 242Q532 129 578-72Q616-247 616-379Z"  horiz-adv-x="618" vert-adv-y="2048"  />

      
      <glyph glyph-name="uni6b" unicode="&#x6b;" d="M399 377Q515 398 687 544Q813 663 940 782Q974 782 1000 747Q1019 716 1038 684Q1040 607 963 540Q884 484 805 429Q709 360 682 291Q808 222 1124 168Q1059 59 913 59Q870 59 784 71Q698 83 654 83Q637 83 621 82Q559 113 559 229Q497 216 396 126Q391 121 252-16Q249-14 201 9Q166 25 166 45Q166 216 300 561Q434 906 434 1090Q434 1157 424 1225L461 1262Q539 1190 539 1055Q539 981 516 880Q494 795 473 709L399 377Z"  horiz-adv-x="1098" vert-adv-y="2048"  />

      
      <glyph glyph-name="uni6c" unicode="&#x6c;" d="M566 1265Q566 1128 455 1053Q406 609 369 94Q397 68 397 31Q397-2 377-30Q354-61 322-61Q284-61 258-16Q273 483 309 860Q319 994 356 1237Q365 1276 415 1318Q465 1360 504 1360Q566 1360 566 1265Z"  horiz-adv-x="571" vert-adv-y="2048"  />

      
      <glyph glyph-name="uni6d" unicode="&#x6d;" d="M877 561Q878 561 1019.50 657.50Q1161 754 1245 754Q1411 754 1411 518Q1411 490 1376 184Q1340-129 1255-129Q1221-129 1196-95Q1174-65 1174-29Q1174 8 1214 109Q1242 180 1266 319Q1288 452 1288 535Q1288 612 1264 612Q1197 612 1098 537Q982 449 831 223Q754 108 727 108Q687 108 656 156Q627 199 627 244Q627 297 654.50 400.50Q682 504 682 557Q682 588 674 612Q561 508 458 307Q416 223 305-39Q293-41 287-41Q255-41 226-20Q192 4 195 35L244 649Q245 660 304 661Q314 661 317 662L391 563Q438 642 522 711Q619 791 696 791Q762 791 797 731Q811 706 836 621Q854 561 877 561Z"  horiz-adv-x="1454" vert-adv-y="2048"  />

      
      <glyph glyph-name="uni6e" unicode="&#x6e;" d="M997 387Q997 66 817-197Q803-203 791-203Q755-203 718-152Q684-104 684-66Q684 18 813 109Q848 223 848 385Q848 520 826 584Q790 692 684 692Q531 692 418 513Q358 417 272 179Q207 0 170 0Q70 0 70 203Q70 275 94.50 448Q119 621 119 686Q119 707 117 725Q203 702 252 639Q252 631 250 607Q249 587 249 575Q249 546 264 528Q396 713 436 752Q546 860 688 860Q851 860 933 696Q997 569 997 387Z"  horiz-adv-x="1038" vert-adv-y="2048"  />

      
      <glyph glyph-name="uni6f" unicode="&#x6f;" d="M618 846Q764 846 872.50 740.50Q981 635 981 489Q981 288 824 137Q667-14 465-14Q274-14 156 131Q154 155 154 178Q154 412 328 586Q328 696 419 773Q506 846 618 846M836 506Q836 581 784 631.50Q732 682 657 682Q602 682 561 647Q590 598 590 557Q590 497 520 436Q455 383 391 330Q323 263 327 187L328 168Q471 168 540 182Q654 205 727 276Q836 383 836 506Z"  horiz-adv-x="1004" vert-adv-y="2048"  />

      
      <glyph glyph-name="uni70" unicode="&#x70;" d="M729-29Q578-29 416 68Q369-93 323-253Q251-470 182-537Q90-522 90-444Q90-410 135-281Q229-13 229 158Q229 215 221 266Q288 322 342 483Q419 710 433 737Q494 860 592 860Q750 860 884 661Q1006 479 1006 312Q1006 197 957 102Q898-10 795-25Q768-29 729-29M649 679Q553 679 500 504Q473 374 446 244Q588 143 702 143Q775 143 818.50 191Q862 239 862 312Q862 407 800 534Q730 679 649 679Z"  horiz-adv-x="1042" vert-adv-y="2048"  />

      
      <glyph glyph-name="uni71" unicode="&#x71;" d="M934 453Q965 462 1006 540Q1044 614 1073 614Q1111 614 1150.50 566.50Q1190 519 1190 479Q1190 435 1115 329Q1060 253 1006 178Q869-42 836-334Q881-385 985-417Q1105-453 1143-481Q1121-484 1030-506Q961-522 915-522Q891-522 855.50-510Q820-498 807-498Q761-498 692-596Q617-703 604-709Q492-709 492-604Q492-533 630-310Q779-69 799 23Q696 0 582 0Q209 0 209 246Q209 395 353 519Q492 638 644 638Q817 638 934 453M885 330Q782 478 620 478Q534 478 453 417Q367 352 367 269Q367 193 448 155Q510 126 595 126Q844 126 885 330Z"  horiz-adv-x="1208" vert-adv-y="2048"  />

      
      <glyph glyph-name="uni72" unicode="&#x72;" d="M918 588Q860 516 797 516Q774 516 756 526Q732 567 687 599Q638 633 594 633Q457 633 363 364Q287 149 287-27Q268-35 252-35Q170-35 152 84Q147 162 136 309Q119 461 119 535Q119 662 152 760Q262 724 262 686Q262 672 258 645Q254 618 254 604Q254 571 274 551Q414 690 426 700Q526 782 616 782Q703 782 785 717Q792 711 918 588Z"  horiz-adv-x="899" vert-adv-y="2048"  />

      
      <glyph glyph-name="uni73" unicode="&#x73;" d="M971 690Q973 676 973 663Q973 573 883 573Q842 573 762.50 593.50Q683 614 643 614Q592 614 547 584Q496 550 496 502Q496 453 605 382Q707 317 809 252Q918 170 918 96Q918 31 868-5Q824-37 758-37Q681-37 528-7Q375 23 297 23Q244 23 199 14Q176 23 142 79Q101 148 92 158Q147 170 217 170Q329 170 512 132Q695 94 721 94Q758 94 758 113Q758 160 648 225Q452 340 442 347Q332 428 332 514Q332 638 459 724Q572 801 702 801Q866 801 971 690Z"  horiz-adv-x="981" vert-adv-y="2048"  />

      
      <glyph glyph-name="uni74" unicode="&#x74;" d="M811 1151L812 1131Q814 1061 774 960Q721 829 713 795Q739 793 772 793Q805 793 870.50 796Q936 799 969 799Q1051 799 1106 782Q1095 716 971 698Q810 675 753 634Q639 552 639 324Q639 173 659 96Q665 72 684 72Q734 72 855 191Q947 280 1008 360Q1042 346 1042 303Q1042 288 1037 258Q1032 228 1032 213Q829-49 678-49Q557-49 518 143Q498 238 498 428Q498 516 504 586Q477 602 440 602Q403 602 331 580.50Q259 559 223 559Q145 559 135 659Q205 695 335 721Q490 752 541 770Q579 829 614 1005Q647 1165 713 1237Q753 1237 776 1211Q786 1200 811 1151Z"  horiz-adv-x="1075" vert-adv-y="2048"  />

      
      <glyph glyph-name="uni75" unicode="&#x75;" d="M352 664Q320 555 287 447Q248 303 248 231Q248 126 314 126Q393 126 544 333Q639 465 721 614Q739 629 758 629Q783 629 808 596Q826 568 844 541Q711 291 711 195Q711 156 722 145Q728 138 792 101Q842 72 842 45Q842 16 804-15.50Q766-47 735-47Q651-47 586 172Q523 114 461 56Q379-10 311-10Q218-10 167 65Q123 130 123 227Q123 298 143 381L229 737Q242 741 254 741Q276 741 307 711Q330 688 352 664Z"  horiz-adv-x="887" vert-adv-y="2048"  />

      
      <glyph glyph-name="uni76" unicode="&#x76;" d="M979 950Q1077 950 1077 854Q1077 779 957 622Q868 511 780 401Q651 219 624 184Q530 65 436-6Q323 34 256 183Q214 277 170 483Q125 693 96 762Q122 840 158 840Q175 840 195 823Q241 737 302 504Q357 294 428 193Q556 312 698 559Q872 861 938 946Q961 950 979 950Z"  horiz-adv-x="1092" vert-adv-y="2048"  />

      
      <glyph glyph-name="uni77" unicode="&#x77;" d="M618 494Q647 512 664 512Q680 512 717 494Q745 457 745 403Q745 377 736 324.50Q727 272 727 246Q727 171 787 130Q839 94 918 94Q1058 94 1175 198Q1296 306 1296 444Q1296 625 1122 764Q1122 778 1117 806.50Q1112 835 1112 850Q1112 891 1147 911Q1267 856 1342 736Q1417 616 1417 483Q1417 285 1261.50 131Q1106-23 909-23Q709-23 606 186Q531 119 457 53Q355-37 294-37Q162-37 162 143Q162 240 192 375Q221 490 250 604Q262 608 274 608Q307 608 360 555L361 537Q363 475 336 359Q307 238 307 182Q307 143 328 143Q334 143 348 150Q526 237 618 494Z"  horiz-adv-x="1432" vert-adv-y="2048"  />

      
      <glyph glyph-name="uni78" unicode="&#x78;" d="M743 578Q803 641 863 704Q940 774 1014 774Q1102 730 1102 652Q1102 640 1100 627Q1008 597 904 491Q896 483 743 307Q786 233 913 210Q1109 175 1117 172Q1217 133 1223 12Q1169 2 1116 2Q889 2 608 221Q539 203 431 82Q327-33 313-33Q249-33 227 111L573 485Q537 562 446 593Q432 598 276 627Q256 598 229 598Q207 598 190 614Q170 680 170 713Q170 760 203 811Q233 797 483 715Q655 659 743 578Z"  horiz-adv-x="1200" vert-adv-y="2048"  />

      
      <glyph glyph-name="uni79" unicode="&#x79;" d="M418-571Q308-571 253-518Q203-468 184-356Q283-385 387-385Q807-385 889 115Q702-20 547-20Q289-20 289 256Q289 350 320.50 505.50Q352 661 352 678Q352 685 348 699.50Q344 714 344 721Q344 756 377 781Q407 803 444 803Q508 803 508 728Q508 649 465 495.50Q422 342 422 264Q422 129 571 129Q713 129 907 283Q911 356 911 442Q911 516 904 664.50Q897 813 897 885Q1042 813 1042 610Q1042 197 988-22Q899-387 639-516Q528-571 418-571Z"  horiz-adv-x="1098" vert-adv-y="2048"  />

      
      <glyph glyph-name="uni7a" unicode="&#x7a;" d="M965 668Q965 654 969 627Q973 600 973 586Q973 553 952 532Q959 525 1064 475Q1140 438 1137 394L1137 385Q1071 348 955 341Q803 332 768 324Q679 246 653 221Q592 162 551 104Q569 100 592 100Q649 100 761 126Q873 152 930 152Q995 152 1038 127Q1009 5 839-28Q771-41 562-41Q499-41 442-10Q375 28 375 86Q375 143 451.50 204.50Q528 266 528 303Q528 330 485 380.50Q442 431 442 451Q442 481 488 504Q528 524 561 524Q586 524 636 517Q686 510 711 510Q807 510 842 594Q727 614 610 614Q389 614 215 545Q145 596 145 653Q145 672 154 692Q352 786 573 786Q813 786 965 668Z"  horiz-adv-x="1106" vert-adv-y="2048"  />

      
      <glyph glyph-name="uni7b" unicode="&#x7b;" d="M1026 1640Q954 1598 774 1553Q603 1510 526 1458Q403 1376 403 1313Q403 1248 564 1185Q713 1129 863 1073Q1024 997 1024 901Q1024 870 1008.50 839Q993 808 866 772Q714 729 696 719Q755 699 806.50 625.50Q858 552 858 489Q858 407 700 307Q585 245 469 182Q393 140 341 69.50Q289-1 289-49Q289-99 344-99Q366-99 409.50-95.50Q453-92 475-92Q556-92 715-121Q874-150 954-150Q1020-150 1085-135L1102-162Q1097-169 1075-178Q899-252 508-252L301-252Q288-252 244-238Q94-188 94-43Q94 73 213 186Q290 259 466 367Q646 478 694 522Q669 551 601 555Q629 553 496 553Q374 553 374 639Q374 742 458 799Q514 837 644 870Q787 907 829 928Q641 1024 424 1075Q339 1095 284 1149Q223 1209 223 1292Q223 1399 329 1511Q417 1603 532 1659Q725 1753 829 1788Q853 1796 874 1796Q981 1796 1026 1640Z"  horiz-adv-x="1073" vert-adv-y="2048"  />

      
      <glyph glyph-name="uni7c" unicode="&#x7c;" d="M195 2241Q350 2210 411 2068Q456 1964 456 1775Q456 1733 453.50 1657.50Q451 1582 451 1550Q451 1349 465 948Q479 547 479 346Q479 188 464 73Q455 2 416-205Q397-213 379-213Q292-213 244-94Q315 299 315 860Q315 997 310 1281Q302 1729 299 1765Q281 1999 195 2241Z"  horiz-adv-x="543" vert-adv-y="2048"  />

      
      <glyph glyph-name="uni7d" unicode="&#x7d;" d="M526 1948Q684 1948 936 1882Q1226 1806 1291 1714Q1343 1640 1343 1604Q1343 1577 1325 1552Q969 1339 821 1147Q821 1094 889 1072Q952 1055 1016 1039Q1084 1010 1084 940Q1084 870 1004 813Q973 790 854 732Q774 693 774 666Q774 636 889 579Q1046 501 1104 457Q1219 368 1219 260Q1219 199 1202 164Q1160 78 1023-18Q910-97 795-145Q630-213 305-279Q238-174 238-143Q238-117 256-94Q592 4 715 47Q1092 178 1092 257Q1092 337 967 400Q850 453 733 505Q607 574 607 669Q607 724 712 804Q790 856 868 909Q602 934 602 1042Q602 1149 726 1291Q792 1367 956 1512Q1080 1621 1080 1647L1079 1651Q1078 1698 890 1732Q743 1759 653 1759Q513 1759 403 1712Q384 1704 369 1704Q292 1704 292 1827Q292 1948 526 1948Z"  horiz-adv-x="1298" vert-adv-y="2048"  />

      
      <glyph glyph-name="uni7e" unicode="&#x7e;" d="M954 1290Q1002 1290 1075 1373Q1142 1450 1209 1527Q1295 1610 1374 1610Q1391 1610 1407 1606Q1448 1546 1448 1509Q1448 1495 1444 1483Q1381 1459 1207 1298Q1057 1159 958 1159Q811 1159 756 1333Q734 1442 690 1597Q679 1620 651 1620Q586 1620 488 1468Q410 1347 375 1249Q310 1309 300 1321Q258 1369 258 1413Q258 1484 428.50 1631Q599 1778 682 1778Q803 1778 847 1651Q861 1611 886 1416Q902 1290 954 1290Z"  horiz-adv-x="1395" vert-adv-y="2048"  />

      
      <glyph glyph-name="unic4" unicode="&#xc4;" d="M1278 737Q1299 739 1393 751Q1464 760 1509 760Q1602 760 1683 725Q1664 659 1574 625Q1522 606 1398 587Q1287 571 1255 553Q1255 352 1229 258Q1294 231 1294 178Q1294 138 1270 104Q1244 66 1206 66Q1130 66 1130 321Q1130 359 1132 411Q1134 463 1134 469Q1134 521 1136 499Q1134 515 1119 515Q1052 515 876 474Q668 425 614 418L307 0Q275 0 249 36Q229 67 209 98Q220 126 333 331Q410 472 418 578Q476 586 515 653Q524 670 565 774L516 836Q647 924 819 1184Q993 1448 1118 1536Q1212 1452 1240 1258Q1251 1100 1262 942L1278 737M1141 823Q1141 895 1117.50 1038.50Q1094 1182 1094 1253L811 664L1081 688Q1141 693 1141 823M999 1806Q999 1765 968 1705Q921 1614 919 1610Q903 1599 889 1599Q863 1599 825.50 1646Q788 1693 788 1722Q788 1763 834 1800Q877 1835 919 1835Q977 1835 999 1806M1358 1833Q1372 1790 1372 1749Q1372 1653 1296 1599Q1288 1597 1281 1597Q1257 1597 1210 1661Q1209 1671 1209 1682Q1209 1736 1243 1784Q1281 1837 1333 1837Q1345 1837 1358 1833Z"  horiz-adv-x="1577" vert-adv-y="2048"  />

      
      <glyph glyph-name="unic5" unicode="&#xc5;" d="M1278 737Q1299 739 1393 751Q1464 760 1509 760Q1602 760 1683 725Q1664 659 1574 625Q1522 606 1398 587Q1287 571 1255 553Q1255 352 1229 258Q1294 231 1294 178Q1294 138 1270 104Q1244 66 1206 66Q1130 66 1130 321Q1130 359 1132 411Q1134 463 1134 469Q1134 521 1136 499Q1134 515 1119 515Q1052 515 876 474Q668 425 614 418L307 0Q275 0 249 36Q229 67 209 98Q220 126 333 331Q410 472 418 578Q476 586 515 653Q524 670 565 774L516 836Q647 924 819 1184Q993 1448 1118 1536Q1212 1452 1240 1258Q1251 1100 1262 942L1278 737M1141 823Q1141 895 1117.50 1038.50Q1094 1182 1094 1253L811 664L1081 688Q1141 693 1141 823M1321 1774Q1321 1688 1257.50 1627.50Q1194 1567 1108 1567Q1035 1567 979.50 1616.50Q924 1666 924 1739Q924 1806 999 1853Q1064 1895 1135 1895Q1192 1895 1251 1864Q1321 1827 1321 1774M1239 1786Q1162 1811 1137 1811Q1095 1811 1063 1790Q1026 1766 1026 1727Q1026 1651 1125 1651Q1174 1651 1208 1688Q1242 1725 1240 1773L1239 1786Z"  horiz-adv-x="1577" vert-adv-y="2048"  />

      
      <glyph glyph-name="unic7" unicode="&#xc7;" d="M1016 1139Q987 1139 930 1146Q873 1153 844 1153Q691 1153 587 1020Q495 901 485 741Q483 705 483 666Q483 537 510 399Q547 210 616 176Q645 162 680 162Q745 162 960.50 275.50Q1176 389 1280 389Q1374 389 1374 342Q1374 332 1370 324Q1284 298 999 132Q750-12 653-12Q520-12 399 250Q320 422 320 645Q320 932 447 1125Q595 1348 868 1348Q958 1348 1025 1327Q1124 1296 1124 1230Q1124 1139 1016 1139M553-420Q576-409 736-396Q864-386 864-345Q864-307 742.50-187Q621-67 621 4Q621 23 625 39Q668 70 700 70Q713 70 725 66Q744 10 875-134Q991-262 991-338Q991-448 855-503Q829-514 625-563Q647-557 657-549Q622-530 587-511Q541-484 541-455Q541-438 553-420Z"  horiz-adv-x="1288" vert-adv-y="2048"  />

      
      <glyph glyph-name="unic9" unicode="&#xc9;" d="M1409 1233Q1352 1247 1286 1247Q1165 1247 928.50 1176.50Q692 1106 570 1106Q534 1106 500 1110Q465 1065 465 979Q465 962 481 780Q526 770 582 770Q645 770 770.50 786.50Q896 803 959 803Q1110 803 1200 729Q1087 678 842 648.50Q597 619 487 569L500 176Q862 252 1020 252Q1167 252 1286 213Q1286 163 1227 143Q1201 135 1126 127Q826 96 699 68Q464 17 303-94Q255-94 193 4Q365 94 365 389Q365 516 331 769.50Q297 1023 297 1151Q297 1172 300 1215Q303 1258 303 1279Q303 1321 340 1346Q372 1368 416 1368Q504 1368 512 1294Q641 1294 897 1344Q1153 1394 1284 1394Q1422 1394 1422 1311Q1422 1304 1409 1233M1049 2020Q1032 1960 1015 1901Q993 1839 947 1796Q876 1737 805 1678Q727 1604 727 1518Q727 1477 744 1426Q737 1421 699 1379Q670 1346 648 1346Q629 1346 607 1366Q568 1442 568 1512Q568 1574 586 1606Q617 1661 785 1856Q886 1973 1049 2020Z"  horiz-adv-x="1333" vert-adv-y="2048"  />

      
      <glyph glyph-name="unid1" unicode="&#xd1;" d="M1452 1124Q1452 763 1400 489Q1312 23 1098 23Q940 23 830 188Q775 270 690 492Q656 580 606 743Q559 530 439 271Q423 237 213-178L198-179Q153-183 134-132Q129-121 115-43Q258 386 312.50 617Q367 848 392 1083Q397 1178 410 1309Q417 1337 449 1337Q470 1337 496 1321Q497 1308 514.50 1284.50Q532 1261 533 1247Q544 1257 578 1327Q605 1384 631 1384Q647 1384 668 1370Q713 1240 766 920Q818 611 853 489Q945 172 1081 172Q1239 172 1288 720Q1307 938 1307 1395Q1307 1425 1329.50 1445.50Q1352 1466 1382 1466Q1429 1466 1442 1407Q1452 1362 1452 1124M914 1868Q954 1882 1090 1984Q1200 2068 1294 2065L1307 2065Q1352 2042 1352 1985Q1352 1960 1331 1880Q1316 1882 1302 1882Q1205 1882 1085 1768.50Q965 1655 879 1655Q860 1655 840 1659Q792 1690 787 1800Q782 1921 754 1954Q596 1891 564 1875Q454 1822 397 1758Q336 1794 336 1868Q336 1901 348 1930Q453 2034 563 2072Q605 2087 815 2126L901 2040L914 1868Z"  horiz-adv-x="1362" vert-adv-y="2048"  />

      
      <glyph glyph-name="unid6" unicode="&#xd6;" d="M1454 799Q1454 675 1333 539Q1196 385 904 196Q577-16 414-16Q336-16 272 26Q199 73 199 147Q199 594 481 934Q477 971 477 1004Q477 1174 591.50 1293.50Q706 1413 875 1413Q1052 1413 1255 1194Q1454 978 1454 799M891 1231Q748 1231 666 1094Q762 1055 762 1001Q762 970 689 879.50Q616 789 616 745Q616 723 629 700L555 725Q447 556 408 477Q336 328 336 202Q336 162 341 149Q351 125 385 125Q480 125 824 338Q1140 535 1245 635Q1333 719 1333 803Q1333 841 1317 881Q1261 1022 1152 1120Q1029 1231 891 1231M755 1730Q755 1689 724 1629Q677 1538 675 1534Q659 1523 645 1523Q619 1523 581.50 1570Q544 1617 544 1646Q544 1687 590 1724Q633 1759 675 1759Q733 1759 755 1730M1114 1757Q1128 1714 1128 1673Q1128 1577 1052 1523Q1044 1521 1037 1521Q1013 1521 966 1585Q965 1595 965 1606Q965 1660 999 1708Q1037 1761 1089 1761Q1101 1761 1114 1757Z"  horiz-adv-x="1362" vert-adv-y="2048"  />

      
      <glyph glyph-name="unidc" unicode="&#xdc;" d="M1266 1260Q1266 1217 1250 1155Q1237 1103 1223 1051Q1179 864 1134 676Q1083 442 1083 303Q1083 109 1198 109Q1259 109 1283 154Q1307 199 1335 197Q1391 154 1403 55Q1391 11 1322-26Q1258-59 1208-59Q1115-59 1031.50 27.50Q948 114 946 207Q838 78 747 25Q637-39 485-39Q270-39 270 352Q270 534 315 805Q341 931 381 1182Q383 1243 395 1362Q411 1458 506 1468Q569 1419 569 1341Q569 1322 563 1303Q471 1013 410 371Q409 356 409 341Q409 280 432 216Q461 134 508 127Q522 125 551 125Q817 125 963 573Q1021 751 1084 1164Q1091 1235 1114 1370Q1125 1415 1165 1415Q1215 1415 1244 1360Q1266 1315 1266 1260M774 1790Q774 1749 743 1689Q696 1598 694 1594Q678 1583 664 1583Q638 1583 600.50 1630Q563 1677 563 1706Q563 1747 609 1784Q652 1819 694 1819Q752 1819 774 1790M1133 1817Q1147 1774 1147 1733Q1147 1637 1071 1583Q1063 1581 1056 1581Q1032 1581 985 1645Q984 1655 984 1666Q984 1720 1018 1768Q1056 1821 1108 1821Q1120 1821 1133 1817Z"  horiz-adv-x="1337" vert-adv-y="2048"  />

      
      <glyph glyph-name="unie1" unicode="&#xe1;" d="M756 946Q734 946 453 839Q194 740 123 709Q117 688 117 666Q117 578 184 524Q284 530 439 613Q609 706 688 721Q670 492 573 332Q512 362 440 362Q341 362 261 304Q172 240 172 145Q172 20 294-47Q393-100 528-100Q551-100 745-86Q874 23 874 92Q874 125 856 160Q840 169 778 176Q735 182 709 221Q714 324 782 533Q848 734 848 844Q848 946 756 946M614 98Q571 59 494 59Q401 59 352 111L351 127Q347 215 459 215Q508 215 549 197Q566 148 570 140Q585 111 614 98M842 1667Q825 1608 808 1549Q787 1489 739 1444Q668 1384 597 1325Q520 1250 520 1165Q520 1124 537 1073Q528 1068 492 1026Q464 993 440 993Q422 993 399 1014Q360 1090 360 1159Q360 1220 379 1253Q412 1310 578 1503Q679 1620 842 1667Z"  horiz-adv-x="883" vert-adv-y="2048"  />

      
      <glyph glyph-name="unie0" unicode="&#xe0;" d="M889 844Q889 734 823 533Q755 324 750 221Q776 182 819 176Q881 169 897 160Q915 125 915 92Q915 23 786-86Q592-100 569-100Q434-100 335-47Q213 20 213 145Q213 240 302 304Q382 362 481 362Q553 362 614 332Q711 492 729 721Q650 706 480 613Q325 530 225 524Q158 578 158 666Q158 688 164 709Q235 740 494 839Q775 946 797 946Q889 946 889 844M655 98Q618 115 590 197Q549 215 500 215Q388 215 392 127L393 111Q442 59 535 59Q612 59 655 98M696 1149Q696 1100 678 1049Q655 983 616 983Q594 983 565 1016Q527 1058 520 1063Q537 1114 537 1155Q537 1240 459 1315Q388 1375 317 1434Q270 1478 249 1538Q232 1598 215 1657Q378 1610 479 1493Q647 1298 678 1243Q696 1211 696 1149Z"  horiz-adv-x="887" vert-adv-y="2048"  />

      
      <glyph glyph-name="unie2" unicode="&#xe2;" d="M889 844Q889 734 823 533Q755 324 750 221Q776 182 819 176Q881 169 897 160Q915 125 915 92Q915 23 786-86Q592-100 569-100Q434-100 335-47Q213 20 213 145Q213 240 302 304Q382 362 481 362Q553 362 614 332Q711 492 729 721Q650 706 480 613Q325 530 225 524Q158 578 158 666Q158 688 164 709Q235 740 494 839Q775 946 797 946Q889 946 889 844M655 98Q618 115 590 197Q549 215 500 215Q388 215 392 127L393 111Q442 59 535 59Q612 59 655 98M655 1509Q649 1485 649 1460Q649 1378 717 1291Q746 1254 844 1159Q913 1092 913 1063Q903 1046 893 1006Q802 1038 721 1120Q654 1199 586 1278L535 1268Q434 1117 422 1101Q344 998 279 965Q244 1002 232 1018Q207 1052 205 1081Q240 1134 383 1308Q497 1446 543 1548Q555 1554 569 1554Q621 1554 655 1509Z"  horiz-adv-x="928" vert-adv-y="2048"  />

      
      <glyph glyph-name="unie4" unicode="&#xe4;" d="M889 844Q889 734 823 533Q755 324 750 221Q776 182 819 176Q881 169 897 160Q915 125 915 92Q915 23 786-86Q592-100 569-100Q434-100 335-47Q213 20 213 145Q213 240 302 304Q382 362 481 362Q553 362 614 332Q711 492 729 721Q650 706 480 613Q325 530 225 524Q158 578 158 666Q158 688 164 709Q235 740 494 839Q775 946 797 946Q889 946 889 844M655 98Q618 115 590 197Q549 215 500 215Q388 215 392 127L393 111Q442 59 535 59Q612 59 655 98M452 1274Q452 1233 421 1173Q374 1082 372 1078Q356 1067 342 1067Q316 1067 278.50 1114Q241 1161 241 1190Q241 1231 287 1268Q330 1303 372 1303Q430 1303 452 1274M811 1301Q825 1258 825 1217Q825 1121 749 1067Q741 1065 734 1065Q710 1065 663 1129Q662 1139 662 1150Q662 1204 696 1252Q734 1305 786 1305Q798 1305 811 1301Z"  horiz-adv-x="897" vert-adv-y="2048"  />

      
      <glyph glyph-name="unie3" unicode="&#xe3;" d="M889 844Q889 734 823 533Q755 324 750 221Q776 182 819 176Q881 169 897 160Q915 125 915 92Q915 23 786-86Q592-100 569-100Q434-100 335-47Q213 20 213 145Q213 240 302 304Q382 362 481 362Q553 362 614 332Q711 492 729 721Q650 706 480 613Q325 530 225 524Q158 578 158 666Q158 688 164 709Q235 740 494 839Q775 946 797 946Q889 946 889 844M655 98Q618 115 590 197Q549 215 500 215Q388 215 392 127L393 111Q442 59 535 59Q612 59 655 98M607 1239Q647 1253 783 1355Q893 1439 987 1436L1000 1436Q1045 1413 1045 1356Q1045 1331 1024 1251Q1009 1253 995 1253Q898 1253 778 1139.50Q658 1026 572 1026Q553 1026 533 1030Q485 1061 480 1171Q475 1292 447 1325Q289 1262 257 1246Q147 1193 90 1129Q29 1165 29 1239Q29 1272 41 1301Q146 1405 256 1443Q298 1458 508 1497L594 1411L607 1239Z"  horiz-adv-x="979" vert-adv-y="2048"  />

      
      <glyph glyph-name="unie5" unicode="&#xe5;" d="M889 844Q889 734 823 533Q755 324 750 221Q776 182 819 176Q881 169 897 160Q915 125 915 92Q915 23 786-86Q592-100 569-100Q434-100 335-47Q213 20 213 145Q213 240 302 304Q382 362 481 362Q553 362 614 332Q711 492 729 721Q650 706 480 613Q325 530 225 524Q158 578 158 666Q158 688 164 709Q235 740 494 839Q775 946 797 946Q889 946 889 844M655 98Q618 115 590 197Q549 215 500 215Q388 215 392 127L393 111Q442 59 535 59Q612 59 655 98M874 1229Q874 1143 810.50 1082.50Q747 1022 661 1022Q588 1022 532.50 1071.50Q477 1121 477 1194Q477 1261 552 1308Q617 1350 688 1350Q745 1350 804 1319Q874 1282 874 1229M792 1241Q715 1266 690 1266Q648 1266 616 1245Q579 1221 579 1182Q579 1106 678 1106Q727 1106 761 1143Q795 1180 793 1228L792 1241Z"  horiz-adv-x="891" vert-adv-y="2048"  />

      
      <glyph glyph-name="unie7" unicode="&#xe7;" d="M1059 707Q1038 645 943 645Q919 645 870.50 648Q822 651 798 651Q669 651 497 508Q320 361 320 236Q320 177 361 136.50Q402 96 461 96Q537 96 738 197.50Q939 299 1018 299Q1112 299 1112 231Q1112 201 1100 178Q666-39 453-39Q338-39 252 19Q154 85 154 195Q154 373 352 574Q496 720 703 842L728 843Q807 847 901 799Q980 753 1059 707M571-420Q594-409 754-396Q882-386 882-345Q882-307 760.50-187Q639-67 639 4Q639 23 643 39Q686 70 718 70Q731 70 743 66Q762 10 893-134Q1009-262 1009-338Q1009-448 873-503Q847-514 643-563Q665-557 675-549Q640-530 605-511Q559-484 559-455Q559-438 571-420Z"  horiz-adv-x="1184" vert-adv-y="2048"  />

      
      <glyph glyph-name="unie9" unicode="&#xe9;" d="M1200 674Q1200 623 1153 563Q872 397 561 397Q504 397 444 403Q393 367 393 305Q393 241 445 202Q491 166 557 166Q650 166 850 247Q1050 328 1135 328Q1184 328 1215 305Q875 6 596 6Q439 6 350 79Q254 158 254 311Q254 334 256 378.50Q258 423 258 446Q258 516 238 551Q326 566 443 674Q568 789 631 809Q735 842 864 842Q969 842 1067 807Q1200 759 1200 674M1055 674Q981 711 891 711Q808 711 720 678Q621 641 578 582Q555 550 555 532Q555 498 616 498Q709 498 848 554Q987 610 1055 674M991 1610Q974 1550 957 1491Q935 1429 889 1386Q818 1327 747 1268Q669 1194 669 1108Q669 1067 686 1016Q679 1011 641 969Q612 936 590 936Q571 936 549 956Q510 1032 510 1102Q510 1164 528 1196Q559 1251 727 1446Q828 1563 991 1610Z"  horiz-adv-x="1165" vert-adv-y="2048"  />

      
      <glyph glyph-name="unie8" unicode="&#xe8;" d="M1200 674Q1200 623 1153 563Q872 397 561 397Q504 397 444 403Q393 367 393 305Q393 241 445 202Q491 166 557 166Q650 166 850 247Q1050 328 1135 328Q1184 328 1215 305Q875 6 596 6Q439 6 350 79Q254 158 254 311Q254 334 256 378.50Q258 423 258 446Q258 516 238 551Q326 566 443 674Q568 789 631 809Q735 842 864 842Q969 842 1067 807Q1200 759 1200 674M1055 674Q981 711 891 711Q808 711 720 678Q621 641 578 582Q555 550 555 532Q555 498 616 498Q709 498 848 554Q987 610 1055 674M977 1110Q977 1061 959 1010Q936 944 897 944Q875 944 846 977Q808 1019 801 1024Q818 1075 818 1116Q818 1201 740 1276Q669 1336 598 1395Q551 1439 530 1499Q513 1559 496 1618Q659 1571 760 1454Q928 1259 959 1204Q977 1172 977 1110Z"  horiz-adv-x="1167" vert-adv-y="2048"  />

      
      <glyph glyph-name="uniea" unicode="&#xea;" d="M1200 674Q1200 623 1153 563Q872 397 561 397Q504 397 444 403Q393 367 393 305Q393 241 445 202Q491 166 557 166Q650 166 850 247Q1050 328 1135 328Q1184 328 1215 305Q875 6 596 6Q439 6 350 79Q254 158 254 311Q254 334 256 378.50Q258 423 258 446Q258 516 238 551Q326 566 443 674Q568 789 631 809Q735 842 864 842Q969 842 1067 807Q1200 759 1200 674M1055 674Q981 711 891 711Q808 711 720 678Q621 641 578 582Q555 550 555 532Q555 498 616 498Q709 498 848 554Q987 610 1055 674M823 1509Q817 1485 817 1460Q817 1378 885 1291Q914 1254 1012 1159Q1081 1092 1081 1063Q1071 1046 1061 1006Q970 1038 889 1120Q822 1199 754 1278L703 1268Q602 1117 590 1101Q512 998 447 965Q412 1002 400 1018Q375 1052 373 1081Q408 1134 551 1308Q665 1446 711 1548Q723 1554 737 1554Q789 1554 823 1509Z"  horiz-adv-x="1169" vert-adv-y="2048"  />

      
      <glyph glyph-name="unieb" unicode="&#xeb;" d="M1200 674Q1200 623 1153 563Q872 397 561 397Q504 397 444 403Q393 367 393 305Q393 241 445 202Q491 166 557 166Q650 166 850 247Q1050 328 1135 328Q1184 328 1215 305Q875 6 596 6Q439 6 350 79Q254 158 254 311Q254 334 256 378.50Q258 423 258 446Q258 516 238 551Q326 566 443 674Q568 789 631 809Q735 842 864 842Q969 842 1067 807Q1200 759 1200 674M1055 674Q981 711 891 711Q808 711 720 678Q621 641 578 582Q555 550 555 532Q555 498 616 498Q709 498 848 554Q987 610 1055 674M676 1243Q676 1202 645 1142Q598 1051 596 1047Q580 1036 566 1036Q540 1036 502.50 1083Q465 1130 465 1159Q465 1200 511 1237Q554 1272 596 1272Q654 1272 676 1243M1035 1270Q1049 1227 1049 1186Q1049 1090 973 1036Q965 1034 958 1034Q934 1034 887 1098Q886 1108 886 1119Q886 1173 920 1221Q958 1274 1010 1274Q1022 1274 1035 1270Z"  horiz-adv-x="1165" vert-adv-y="2048"  />

      
      <glyph glyph-name="unied" unicode="&#xed;" d="M502 616Q497 550 442 410Q390 278 390 205Q390 135 463 135Q518 135 618 168Q695 196 772 223Q791 199 791 170Q791 135 760 88Q561-31 412-31Q258-31 258 133Q258 242 323 414Q403 624 416 690Q449 678 502 616M764 1610Q747 1550 730 1491Q708 1429 662 1386Q591 1327 520 1268Q442 1194 442 1108Q442 1067 459 1016Q452 1011 414 969Q385 936 363 936Q344 936 322 956Q283 1032 283 1102Q283 1164 301 1196Q332 1251 500 1446Q601 1563 764 1610Z"  horiz-adv-x="743" vert-adv-y="2048"  />

      
      <glyph glyph-name="uniec" unicode="&#xec;" d="M502 616Q497 550 442 410Q390 278 390 205Q390 135 463 135Q518 135 618 168Q695 196 772 223Q791 199 791 170Q791 135 760 88Q561-31 412-31Q258-31 258 133Q258 242 323 414Q403 624 416 690Q449 678 502 616M749 1110Q749 1061 731 1010Q708 944 669 944Q647 944 618 977Q580 1019 573 1024Q590 1075 590 1116Q590 1201 512 1276Q441 1336 370 1395Q323 1439 302 1499Q285 1559 268 1618Q431 1571 532 1454Q700 1259 731 1204Q749 1172 749 1110Z"  horiz-adv-x="743" vert-adv-y="2048"  />

      
      <glyph glyph-name="uniee" unicode="&#xee;" d="M502 616Q497 550 442 410Q390 278 390 205Q390 135 463 135Q518 135 618 168Q695 196 772 223Q791 199 791 170Q791 135 760 88Q561-31 412-31Q258-31 258 133Q258 242 323 414Q403 624 416 690Q449 678 502 616M600 1509Q594 1485 594 1460Q594 1378 662 1291Q691 1254 789 1159Q858 1092 858 1063Q848 1046 838 1006Q747 1038 666 1120Q599 1199 531 1278L480 1268Q379 1117 367 1101Q289 998 224 965Q189 1002 177 1018Q152 1052 150 1081Q185 1134 328 1308Q442 1446 488 1548Q500 1554 514 1554Q566 1554 600 1509Z"  horiz-adv-x="805" vert-adv-y="2048"  />

      
      <glyph glyph-name="unief" unicode="&#xef;" d="M502 616Q497 550 442 410Q390 278 390 205Q390 135 463 135Q518 135 618 168Q695 196 772 223Q791 199 791 170Q791 135 760 88Q561-31 412-31Q258-31 258 133Q258 242 323 414Q403 624 416 690Q449 678 502 616M448 1243Q448 1202 417 1142Q370 1051 368 1047Q352 1036 338 1036Q312 1036 274.50 1083Q237 1130 237 1159Q237 1200 283 1237Q326 1272 368 1272Q426 1272 448 1243M807 1270Q821 1227 821 1186Q821 1090 745 1036Q737 1034 730 1034Q706 1034 659 1098Q658 1108 658 1119Q658 1173 692 1221Q730 1274 782 1274Q794 1274 807 1270Z"  horiz-adv-x="772" vert-adv-y="2048"  />

      
      <glyph glyph-name="unif1" unicode="&#xf1;" d="M1038 387Q1038 66 858-197Q844-203 832-203Q796-203 759-152Q725-104 725-66Q725 18 854 109Q889 223 889 385Q889 520 867 584Q831 692 725 692Q572 692 459 513Q399 417 313 179Q248 0 211 0Q111 0 111 203Q111 275 135.50 448Q160 621 160 686Q160 707 158 725Q244 702 293 639Q293 631 291 607Q290 587 290 575Q290 546 305 528Q437 713 477 752Q587 860 729 860Q892 860 974 696Q1038 569 1038 387M707 1232Q747 1246 883 1348Q993 1432 1087 1429L1100 1429Q1145 1406 1145 1349Q1145 1324 1124 1244Q1109 1246 1095 1246Q998 1246 878 1132.50Q758 1019 672 1019Q653 1019 633 1023Q585 1054 580 1164Q575 1285 547 1318Q389 1255 357 1239Q247 1186 190 1122Q129 1158 129 1232Q129 1265 141 1294Q246 1398 356 1436Q398 1451 608 1490L694 1404L707 1232Z"  horiz-adv-x="1073" vert-adv-y="2048"  />

      
      <glyph glyph-name="unif3" unicode="&#xf3;" d="M659 846Q805 846 913.50 740.50Q1022 635 1022 489Q1022 288 865 137Q708-14 506-14Q315-14 197 131Q195 155 195 178Q195 412 369 586Q369 696 460 773Q547 846 659 846M877 506Q877 581 825 631.50Q773 682 698 682Q643 682 602 647Q631 598 631 557Q631 497 561 436Q496 383 432 330Q364 263 368 187L369 168Q512 168 581 182Q695 205 768 276Q877 383 877 506M913 1610Q896 1550 879 1491Q857 1429 811 1386Q740 1327 669 1268Q591 1194 591 1108Q591 1067 608 1016Q601 1011 563 969Q534 936 512 936Q493 936 471 956Q432 1032 432 1102Q432 1164 450 1196Q481 1251 649 1446Q750 1563 913 1610Z"  horiz-adv-x="965" vert-adv-y="2048"  />

      
      <glyph glyph-name="unif2" unicode="&#xf2;" d="M659 846Q805 846 913.50 740.50Q1022 635 1022 489Q1022 288 865 137Q708-14 506-14Q315-14 197 131Q195 155 195 178Q195 412 369 586Q369 696 460 773Q547 846 659 846M877 506Q877 581 825 631.50Q773 682 698 682Q643 682 602 647Q631 598 631 557Q631 497 561 436Q496 383 432 330Q364 263 368 187L369 168Q512 168 581 182Q695 205 768 276Q877 383 877 506M899 1110Q899 1061 881 1010Q858 944 819 944Q797 944 768 977Q730 1019 723 1024Q740 1075 740 1116Q740 1201 662 1276Q591 1336 520 1395Q473 1439 452 1499Q435 1559 418 1618Q581 1571 682 1454Q850 1259 881 1204Q899 1172 899 1110Z"  horiz-adv-x="971" vert-adv-y="2048"  />

      
      <glyph glyph-name="unif4" unicode="&#xf4;" d="M659 846Q805 846 913.50 740.50Q1022 635 1022 489Q1022 288 865 137Q708-14 506-14Q315-14 197 131Q195 155 195 178Q195 412 369 586Q369 696 460 773Q547 846 659 846M877 506Q877 581 825 631.50Q773 682 698 682Q643 682 602 647Q631 598 631 557Q631 497 561 436Q496 383 432 330Q364 263 368 187L369 168Q512 168 581 182Q695 205 768 276Q877 383 877 506M745 1509Q739 1485 739 1460Q739 1378 807 1291Q836 1254 934 1159Q1003 1092 1003 1063Q993 1046 983 1006Q892 1038 811 1120Q744 1199 676 1278L625 1268Q524 1117 512 1101Q434 998 369 965Q334 1002 322 1018Q297 1052 295 1081Q330 1134 473 1308Q587 1446 633 1548Q645 1554 659 1554Q711 1554 745 1509Z"  horiz-adv-x="981" vert-adv-y="2048"  />

      
      <glyph glyph-name="unif6" unicode="&#xf6;" d="M659 846Q805 846 913.50 740.50Q1022 635 1022 489Q1022 288 865 137Q708-14 506-14Q315-14 197 131Q195 155 195 178Q195 412 369 586Q369 696 460 773Q547 846 659 846M877 506Q877 581 825 631.50Q773 682 698 682Q643 682 602 647Q631 598 631 557Q631 497 561 436Q496 383 432 330Q364 263 368 187L369 168Q512 168 581 182Q695 205 768 276Q877 383 877 506M598 1243Q598 1202 567 1142Q520 1051 518 1047Q502 1036 488 1036Q462 1036 424.50 1083Q387 1130 387 1159Q387 1200 433 1237Q476 1272 518 1272Q576 1272 598 1243M957 1270Q971 1227 971 1186Q971 1090 895 1036Q887 1034 880 1034Q856 1034 809 1098Q808 1108 808 1119Q808 1173 842 1221Q880 1274 932 1274Q944 1274 957 1270Z"  horiz-adv-x="989" vert-adv-y="2048"  />

      
      <glyph glyph-name="unif5" unicode="&#xf5;" d="M659 846Q805 846 913.50 740.50Q1022 635 1022 489Q1022 288 865 137Q708-14 506-14Q315-14 197 131Q195 155 195 178Q195 412 369 586Q369 696 460 773Q547 846 659 846M877 506Q877 581 825 631.50Q773 682 698 682Q643 682 602 647Q631 598 631 557Q631 497 561 436Q496 383 432 330Q364 263 368 187L369 168Q512 168 581 182Q695 205 768 276Q877 383 877 506M687 1209Q727 1223 863 1325Q973 1409 1067 1406L1080 1406Q1125 1383 1125 1326Q1125 1301 1104 1221Q1089 1223 1075 1223Q978 1223 858 1109.50Q738 996 652 996Q633 996 613 1000Q565 1031 560 1141Q555 1262 527 1295Q369 1232 337 1216Q227 1163 170 1099Q109 1135 109 1209Q109 1242 121 1271Q226 1375 336 1413Q378 1428 588 1467L674 1381L687 1209Z"  horiz-adv-x="1094" vert-adv-y="2048"  />

      
      <glyph glyph-name="unifa" unicode="&#xfa;" d="M393 664Q361 555 328 447Q289 303 289 231Q289 126 355 126Q434 126 585 333Q680 465 762 614Q780 629 799 629Q824 629 849 596Q867 568 885 541Q752 291 752 195Q752 156 763 145Q769 138 833 101Q883 72 883 45Q883 16 845-15.50Q807-47 776-47Q692-47 627 172Q564 114 502 56Q420-10 352-10Q259-10 208 65Q164 130 164 227Q164 298 184 381L270 737Q283 741 295 741Q317 741 348 711Q371 688 393 664M830 1610Q813 1550 796 1491Q774 1429 728 1386Q657 1327 586 1268Q508 1194 508 1108Q508 1067 525 1016Q518 1011 480 969Q451 936 429 936Q410 936 388 956Q349 1032 349 1102Q349 1164 367 1196Q398 1251 566 1446Q667 1563 830 1610Z"  horiz-adv-x="831" vert-adv-y="2048"  />

      
      <glyph glyph-name="unif9" unicode="&#xf9;" d="M393 664Q361 555 328 447Q289 303 289 231Q289 126 355 126Q434 126 585 333Q680 465 762 614Q780 629 799 629Q824 629 849 596Q867 568 885 541Q752 291 752 195Q752 156 763 145Q769 138 833 101Q883 72 883 45Q883 16 845-15.50Q807-47 776-47Q692-47 627 172Q564 114 502 56Q420-10 352-10Q259-10 208 65Q164 130 164 227Q164 298 184 381L270 737Q283 741 295 741Q317 741 348 711Q371 688 393 664M815 1110Q815 1061 797 1010Q774 944 735 944Q713 944 684 977Q646 1019 639 1024Q656 1075 656 1116Q656 1201 578 1276Q507 1336 436 1395Q389 1439 368 1499Q351 1559 334 1618Q497 1571 598 1454Q766 1259 797 1204Q815 1172 815 1110Z"  horiz-adv-x="831" vert-adv-y="2048"  />

      
      <glyph glyph-name="unifb" unicode="&#xfb;" d="M393 664Q361 555 328 447Q289 303 289 231Q289 126 355 126Q434 126 585 333Q680 465 762 614Q780 629 799 629Q824 629 849 596Q867 568 885 541Q752 291 752 195Q752 156 763 145Q769 138 833 101Q883 72 883 45Q883 16 845-15.50Q807-47 776-47Q692-47 627 172Q564 114 502 56Q420-10 352-10Q259-10 208 65Q164 130 164 227Q164 298 184 381L270 737Q283 741 295 741Q317 741 348 711Q371 688 393 664M661 1509Q655 1485 655 1460Q655 1378 723 1291Q752 1254 850 1159Q919 1092 919 1063Q909 1046 899 1006Q808 1038 727 1120Q660 1199 592 1278L541 1268Q440 1117 428 1101Q350 998 285 965Q250 1002 238 1018Q213 1052 211 1081Q246 1134 389 1308Q503 1446 549 1548Q561 1554 575 1554Q627 1554 661 1509Z"  horiz-adv-x="864" vert-adv-y="2048"  />

      
      <glyph glyph-name="unifc" unicode="&#xfc;" d="M393 664Q361 555 328 447Q289 303 289 231Q289 126 355 126Q434 126 585 333Q680 465 762 614Q780 629 799 629Q824 629 849 596Q867 568 885 541Q752 291 752 195Q752 156 763 145Q769 138 833 101Q883 72 883 45Q883 16 845-15.50Q807-47 776-47Q692-47 627 172Q564 114 502 56Q420-10 352-10Q259-10 208 65Q164 130 164 227Q164 298 184 381L270 737Q283 741 295 741Q317 741 348 711Q371 688 393 664M514 1243Q514 1202 483 1142Q436 1051 434 1047Q418 1036 404 1036Q378 1036 340.50 1083Q303 1130 303 1159Q303 1200 349 1237Q392 1272 434 1272Q492 1272 514 1243M873 1270Q887 1227 887 1186Q887 1090 811 1036Q803 1034 796 1034Q772 1034 725 1098Q724 1108 724 1119Q724 1173 758 1221Q796 1274 848 1274Q860 1274 873 1270Z"  horiz-adv-x="838" vert-adv-y="2048"  />

      
      <glyph glyph-name="uni2020" unicode="&#x2020;" d="M698 1036Q737 1024 786 1024Q842 1024 953 1040.50Q1064 1057 1120 1057Q1311 1057 1337 889Q1298 883 1213 828Q1133 778 1079 778L1078 788Q1078 807 1103 832Q1128 857 1128 877Q1036 891 952 891Q758 891 649 815Q629 480 514-389Q469-389 440-326Q416-274 416-223Q416-61 478.50 257Q541 575 541 737Q541 776 539 815Q485 831 420 831Q392 831 337 827Q282 823 254 823Q117 823 59 950L84 1024L514 1024L551 1049Q565 1141 565 1237Q565 1316 552 1474.50Q539 1633 539 1712Q601 1712 649 1589Q662 1556 665 1413Q665 1318 666 1223Q669 1112 698 1036Z"  horiz-adv-x="1292" vert-adv-y="2048"  />

      
      <glyph glyph-name="unib0" unicode="&#xb0;" d="M780 1346Q780 1207 677.50 1111.50Q575 1016 436 1016Q319 1016 233 1093Q143 1172 143 1288Q143 1332 166 1370Q270 1540 483 1540Q591 1540 675 1487Q711 1465 742 1426Q780 1380 780 1346M647 1366Q522 1407 483 1407Q416 1407 366 1373Q309 1334 309 1270Q309 1149 465 1149Q541 1149 595 1204.50Q649 1260 649 1336Q649 1350 647 1366Z"  horiz-adv-x="772" vert-adv-y="2048"  />

      
      <glyph glyph-name="unia2" unicode="&#xa2;" d="M649 823Q649 778 530 752Q442 592 439 587Q391 488 383 408Q422 389 465 389Q525 389 607 430Q617 435 739 506Q764 481 764 455Q764 436 739 371Q703 276 570 250Q460 234 350 218Q240 188 240 80Q240 22 260-47Q264-59 309-59Q296-115 293-122Q279-159 250-159Q245-159 236-158Q168-74 168 47Q168 111 188 186Q211 274 211 260Q211 310 125 420Q106 494 106 565Q106 848 322 887Q388 899 413 911Q452 930 481 977Q507 1019 544 1158Q576 1276 629 1329Q668 1286 668 1221Q668 1175 645.50 1085.50Q623 996 623 950Q623 927 636 885.50Q649 844 649 823Z"  horiz-adv-x="758" vert-adv-y="2048"  />

      
      <glyph glyph-name="unia3" unicode="&#xa3;" d="M1176 1651Q1212 1589 1212 1540Q1212 1511 1200 1479Q1106 1491 1034 1491Q737 1491 659 1282Q659 1247 646 1176.50Q633 1106 633 1071Q633 1034 647 1012Q684 986 780 967Q883 946 919 927Q985 891 991 815Q928 827 819 825Q692 823 647 827Q635 788 635 760Q635 679 732 661Q828 655 924 650Q1038 640 1065 582Q1032 545 931 540Q775 531 770 530Q692 515 692 453Q692 420 709 373Q993 139 1313 139Q1384 139 1458 152Q1495 201 1507 238Q1544 238 1581 201Q1587 176 1587 150Q1587-18 1358-18Q1216-18 1043 41Q956 71 745 164Q694-31 687-48Q640-167 549-205Q460-205 365-134Q327-105 217 4Q206 29 124 133Q59 215 59 270Q59 297 70 324Q229 397 598 397Q600 416 600 430Q600 524 504 524Q478 524 425 518Q372 512 346 512Q240 512 240 618Q240 637 242 655Q354 692 430 692Q479 692 537 680Q567 694 567 715Q567 729 556 753.50Q545 778 545 793Q545 804 549 815Q520 840 477 840Q448 840 393.50 823.50Q339 807 311 807Q268 807 268 862Q268 891 279 938Q311 977 413.50 993.50Q516 1010 549 1049Q579 1311 581 1321Q614 1474 709 1552Q809 1634 934 1649Q951 1651 1148 1651L1176 1651M610 213Q514 236 412 236Q289 236 229 201Q290 128 351 56Q431-23 514-23Q530-23 549-20Q629 80 629 145Q629 182 610 213Z"  horiz-adv-x="1526" vert-adv-y="2048"  />

      
      <glyph glyph-name="unia7" unicode="&#xa7;" d="M727 1706Q708 1637 627 1630Q569 1626 481 1608Q398 1568 338 1493Q271 1410 271 1325Q271 1239 325 1142Q331 1131 432 981Q447 996 472 996Q481 996 496.50 994.50Q512 993 518 993Q568 892 596 854Q645 786 715 748Q762 680 762 569Q762 475 727 403L506 293Q527 224 666-20Q778-218 778-344Q778-471 678-580Q660-628 620-628Q610-628 590.50-625Q571-622 561-622Q540-622 530-629Q502-635 465-635Q330-635 150-555Q106-498 106-459Q106-422 150-408Q332-489 424-489Q645-489 645-279Q645-225 629-186Q585-77 381 217Q290 346 125 612Q125 677 198 760Q260 822 322 883Q156 1171 156 1399Q156 1570 211 1645Q259 1711 367 1758Q470 1802 557 1802Q621 1802 678 1780L727 1706M616 575Q618 590 618 600Q618 650 548 679Q468 714 457 735L309 563Q344 481 395 481Q424 481 503 531Q578 580 616 575Z"  horiz-adv-x="770" vert-adv-y="2048"  />

      
      <glyph glyph-name="uni2022" unicode="&#x2022;" d="M618 725Q618 653 604 602Q584 530 501 458Q415 385 342 385Q275 385 199 442Q152 478 124 559Q100 629 100 698Q100 880 297 934Q319 940 356 940Q460 940 567 860Q618 822 618 725Z"  horiz-adv-x="621" vert-adv-y="2048"  />

      
      <glyph glyph-name="uniae" unicode="&#xae;" d="M1212 1585Q1608 1245 1608 860Q1608 524 1300 232Q997-55 659-55Q367-55 218 151Q86 333 86 635Q86 963 251 1282Q437 1640 721 1733Q752 1743 784 1743Q848 1743 974.50 1662Q1101 1581 1175 1581Q1193 1581 1212 1585M893 1536Q879 1538 860 1538Q725 1538 544 1382Q363 1226 311 1061Q225 788 225 575Q225 383 322 250Q430 102 616 102Q873 102 1247 410Q1353 498 1425 647Q1497 796 1497 932Q1497 975 1495 983Q1483 1029 1432 1129Q1384 1223 1350 1270Q1308 1329 1238 1390Q1157 1462 1102 1475Q1045 1481 987 1488Q905 1500 893 1536M1270 473Q1187 427 1104 380Q991 322 934 322Q911 322 903 326Q882 336 838 374Q684 510 684 741Q684 793 694 842Q714 875 756 884Q818 897 829 903Q939 961 1026 1137Q997 1166 969 1172Q959 1174 903 1174Q866 1174 795 1190Q724 1206 688 1206Q633 1206 584 1174Q623 820 623 723Q623 469 522 338Q426 389 426 494Q426 526 437.50 588Q449 650 449 682Q449 982 450 1008Q460 1254 509 1298.50Q558 1343 629 1343Q657 1343 713 1339Q769 1335 797 1335Q895 1335 1001 1358Q1153 1288 1153 1116Q1153 964 1065 856Q997 772 842 682Q829 664 829 643Q829 617 891 522L906 522Q959 520 1047 550Q1142 582 1186 584L1270 473Z"  horiz-adv-x="1544" vert-adv-y="2048"  />

      
      <glyph glyph-name="unia9" unicode="&#xa9;" d="M1667 981Q1667 795 1590 617Q1513 439 1374 317Q1137 109 1059 57Q865-72 680-72Q432-72 295 146Q178 332 178 596Q178 977 416 1239Q545 1381 727.50 1464Q910 1547 1099 1547Q1120 1547 1141 1546Q1202 1591 1270 1591Q1360 1591 1454 1507Q1667 1316 1667 981M1227 1337L1190 1313Q1158 1313 1128 1337Q1127 1338 1079 1386L1063 1386Q771 1390 530 1135Q293 885 293 590Q293 488 328 395Q385 243 445 189Q520 119 670 119Q853 119 1032 252Q1179 361 1300 539Q1151 360 911 360Q758 360 640 458Q514 561 514 711Q514 829 601 931Q681 1026 799 1067Q840 1083 880 1098Q929 1116 965 1116Q1017 1116 1054.50 1071Q1092 1026 1092 973Q1092 895 1042 858Q999 893 946 893Q871 893 775 818Q674 740 674 670Q674 569 887 569Q1079 569 1288 698Q1326 692 1339 644Q1342 633 1350 563Q1442 655 1495 803Q1546 943 1546 1081Q1546 1214 1497 1276Q1384 1419 1243 1419Q1210 1419 1178 1411L1227 1337Z"  horiz-adv-x="1599" vert-adv-y="2048"  />

      
      <glyph glyph-name="uni2122" unicode="&#x2122;" d="M1257 1638Q1360 1618 1360 1495Q1360 1470 1355 1420.50Q1350 1371 1350 1346Q1350 1288 1368 1257Q1530 1346 1700 1614Q1796 1588 1833 1488Q1852 1435 1866 1287Q1879 1154 1909 1098Q1910 1092 1914 1074Q1917 1060 1917 1051Q1917 1029 1896 1024Q1829 1054 1788 1158Q1788 1160 1737 1331Q1667 1309 1564 1179Q1469 1059 1422 1059Q1359 1059 1301 1152Q1243 1245 1202 1245Q1182 1245 1159 1233Q1120 1175 1080 1118Q1024 1047 973 1047Q963 1047 950 1049Q881 1090 881 1180Q881 1233 913 1282Q949 1336 989 1483Q1029 1626 1073 1688L1079 1688Q1105 1690 1149 1648Q1193 1606 1210 1606Q1233 1606 1257 1638M948 1556Q948 1524 926 1491Q887 1497 844 1497Q764 1497 644 1471Q460 1432 446 1430Q453 1391 453 1346Q453 1259 426 1123Q390 946 385 901Q360 881 336 881Q296 881 271 922Q250 957 250 999Q250 1051 283.50 1151.50Q317 1252 317 1305Q317 1364 287 1417Q262 1413 193 1388Q134 1366 100 1366Q31 1366 16 1466Q47 1529 151 1571Q238 1599 324 1626Q356 1624 395 1624Q475 1624 636 1637.50Q797 1651 877 1651Q900 1630 923 1609Q948 1584 948 1556Z"  horiz-adv-x="1833" vert-adv-y="2048"  />

      
      <glyph glyph-name="unib4" unicode="&#xb4;" d="M637 1610Q620 1550 603 1491Q581 1429 535 1386Q464 1327 393 1268Q315 1194 315 1108Q315 1067 332 1016Q325 1011 287 969Q258 936 236 936Q217 936 195 956Q156 1032 156 1102Q156 1164 174 1196Q205 1251 373 1446Q474 1563 637 1610Z"  horiz-adv-x="639" vert-adv-y="2048"  />

      
      <glyph glyph-name="unia8" unicode="&#xa8;" d="M354 1243Q354 1202 323 1142Q276 1051 274 1047Q258 1036 244 1036Q218 1036 180.50 1083Q143 1130 143 1159Q143 1200 189 1237Q232 1272 274 1272Q332 1272 354 1243M713 1270Q727 1227 727 1186Q727 1090 651 1036Q643 1034 636 1034Q612 1034 565 1098Q564 1108 564 1119Q564 1173 598 1221Q636 1274 688 1274Q700 1274 713 1270Z"  horiz-adv-x="723" vert-adv-y="2048"  />

      
      <glyph glyph-name="uni2260" unicode="&#x2260;" d="M1032 1217Q981 1048 976 1036Q939 935 885 872Q1026 856 1026 856Q1118 834 1118 774Q1118 709 1032 680Q993 667 873 664Q759 662 737 651Q702 634 676 553Q709 532 762 532Q791 532 847.50 541.50Q904 551 932 551Q1023 551 1020 455L1020 442Q955 420 746 388Q573 360 488 314Q364 246 319 98Q338 80 338 55Q338 39 322.50 4Q307-31 307-40Q307-52 245-80.50Q183-109 164-109Q127-109 86-74Q78-45 78-18Q78 43 150 140Q233 251 246 295Q240 296 232 296Q219 296 192.50 291.50Q166 287 152 287Q98 287 98 344Q98 445 217 471Q319 489 421 507Q522 543 528 664Q496 668 463 668Q322 668 147 614Q117 639 111 682Q111 684 111 762Q225 816 406 845Q560 865 713 885L946 1290Q954 1292 962 1292Q991 1292 1008 1267Q1020 1242 1032 1217Z"  horiz-adv-x="1087" vert-adv-y="2048"  />

      
      <glyph glyph-name="unib1" unicode="&#xb1;" d="M848 1298Q844 1261 818 1166Q795 1083 795 1032Q795 975 823 930Q861 930 937 941Q1013 952 1051 952Q1112 952 1155 930Q1170 905 1170 877Q1170 866 1168.50 842Q1167 818 1167 807Q1139 786 1096 779Q1065 774 1015 777Q938 780 938 780Q840 780 799 733Q799 707 815 656.50Q831 606 831 580Q831 539 799 512Q1008 522 1126 522Q1364 522 1524 487Q1527 478 1547 450Q1563 428 1563 408Q1563 399 1561 389Q1511 340 1442 340Q1413 340 1358.50 353Q1304 366 1276 366Q1113 366 791 316Q469 266 307 266Q191 266 159 276Q84 299 84 389Q84 401 86 414Q130 441 295 449Q530 460 762 512Q715 629 700 733Q670 739 629 739Q587 739 504 732Q421 725 379 725Q199 725 147 844Q137 867 137 881Q137 909 191 921Q263 937 270 942Q338 905 461 905L664 905Q687 961 695 1137Q702 1287 762 1360Q770 1363 778 1363Q816 1363 848 1298Z"  horiz-adv-x="1503" vert-adv-y="2048"  />

      
      <glyph glyph-name="unia5" unicode="&#xa5;" d="M1358 1733Q1217 1600 1024 1333L707 897Q707 849 766 837Q826 830 886 823Q957 810 977 762Q973 706 895 683Q824 669 753 655Q678 637 678 592Q678 563 707 516Q724 516 757 516Q797 517 812 517Q989 517 1026 418Q1026 384 985 379Q973 378 923 369Q885 362 862 362Q845 362 812 364.50Q779 367 762 367Q614 367 608 270Q601 156 609 135L610 143Q606 72 584 25Q569 20 559 20Q527 20 510 70Q495 110 498 147L510 319Q492 332 459 332Q424 332 356.50 314.50Q289 297 254 297Q174 297 174 387Q174 406 176 418Q178 430 373 477Q488 505 547 541Q545 546 546 581Q547 609 535 614Q523 586 492 580Q486 579 433 578L399 578Q346 631 346 694Q346 709 350 725Q417 746 547 799Q377 870 276 1040Q198 1172 148 1391Q114 1574 80 1757Q105 1757 145 1730.50Q185 1704 213 1704Q226 1704 240 1708L240 1610L227 1610Q238 1420 291 1276Q363 1080 498 1020Q512 1014 530 1014Q577 1014 604 1108Q631 1202 670 1202Q698 1202 743 1180L1284 1917Q1315 1910 1341 1887Q1370 1860 1370 1831Q1370 1831 1358 1733Z"  horiz-adv-x="1323" vert-adv-y="2048"  />

      
      <glyph glyph-name="uni2202" unicode="&#x2202;" d="M1077 780Q1083 762 1083 748Q1083 716 1032 695Q974 672 967 657Q937 593 899 467Q857 326 836 274Q757 77 573-6Q417 18 349 46Q233 95 193 203Q193 244 167 320.50Q141 397 141 436Q141 486 168 522Q280 673 482 750Q659 817 868 817Q899 874 899 950Q899 1077 831 1186Q737 1257 539 1257Q492 1257 254 1235Q248 1275 196 1294Q131 1318 119 1333Q197 1399 281 1422Q346 1440 461 1440Q809 1440 942 1186Q967 1138 975 1043Q986 927 995 894Q1016 816 1077 780M819 645Q682 618 545 591Q387 547 315 449Q276 395 276 334Q276 272 315 215Q360 186 436 186Q483 186 586 203Q679 257 740 400Q758 442 819 645Z"  horiz-adv-x="1055" vert-adv-y="2048"  />

      
      <glyph glyph-name="uni2211" unicode="&#x2211;" d="M541 1868Q537 1858 537 1849Q537 1842 565 1794Q1190 1845 1544 1845Q1755 1845 1929 1831Q1987 1792 1987 1720Q1987 1700 1978 1683Q1905 1665 1804 1665Q1735 1665 1674 1674Q1609 1683 1622 1683Q1494 1683 1053 1663Q711 1648 492 1585Q485 1572 485 1567Q485 1552 513 1542Q549 1528 553 1524L492 1462Q591 1357 780 1296Q944 1248 1107 1201Q1292 1136 1389 1020L1390 1001Q1393 896 1306 808Q1268 770 1130 676L393 172Q442 138 498 134Q554 135 610 136L639 135Q773 131 1122 107Q1429 86 1606 86Q1913 86 2138 123Q2202 59 2202 10Q2202 0 2200-12L2138-74Q2028-78 1901-78Q1633-78 1097-50.50Q561-23 292-23Q211-23 135-25Q68-2 68 94Q68 123 74 160Q221 287 676 559Q1073 796 1253 995Q1184 1026 872 1112Q621 1181 507 1267Q342 1390 332 1610Q225 1675 197 1757Q211 1798 277 1803Q260 1802 381 1802Q479 1802 504 1868L541 1868Z"  horiz-adv-x="2099" vert-adv-y="2048"  />

      
      <glyph glyph-name="uniaa" unicode="&#xaa;" d="M735 1702Q735 1656 673.50 1525Q612 1394 612 1327Q612 1274 637 1223L674 1260L674 1252Q672 1222 695.50 1198.50Q719 1175 741 1153Q741 1137 686 1112Q463 1008 301 1008Q231 1008 170 1026Q86 1110 86 1219Q86 1261 109 1321Q150 1427 275 1456Q329 1468 502 1468Q531 1490 541 1542Q546 1585 551 1628Q535 1638 512 1638Q486 1638 437 1617.50Q388 1597 362 1597Q317 1597 293 1653Q293 1788 367 1800Q393 1790 426 1790Q460 1790 526.50 1804.50Q593 1819 627 1819Q675 1819 705 1785.50Q735 1752 735 1702M477 1223Q449 1288 373 1288Q270 1288 219 1210Q274 1192 344 1192Q414 1192 477 1210L477 1223Z"  horiz-adv-x="735" vert-adv-y="2048"  />

      
      <glyph glyph-name="unie6" unicode="&#xe6;" d="M870 760Q882 755 907 748Q1068 937 1071 940Q1191 1067 1264 1079Q1276 1081 1331 1081Q1446 1081 1535 1045Q1649 1000 1681 907Q1682 905 1682 890Q1682 797 1587 733Q1440 633 1411 625L969 502Q936 475 936 430Q936 404 952.50 355Q969 306 969 281Q1063 129 1288 129Q1409 129 1436 145L1706 305Q1720 276 1720 248Q1720 195 1663 140Q1629 108 1543 52Q1461-2 1436-27Q1350-43 1270-43Q977-43 895 158Q895 207 858 244Q592 14 387 14Q311 14 244 47Q209 221 209 295Q209 391 254 467Q306 557 395 557Q432 557 502 535.50Q572 514 608 514Q653 514 698 539Q772 700 772 1018Q672 999 457 877Q261 766 133 760Q113 881 113 897Q113 969 158 1006Q205 989 252 989Q352 989 505 1071Q695 1174 748 1190Q768 1210 791 1210Q818 1210 839 1175Q857 1145 858 1116L870 760M1485 858Q1450 893 1384 893Q1362 893 1317.50 888Q1273 883 1251 883Q1112 803 1067 698Q1243 723 1320 744Q1462 783 1546 858L1485 858M649 342Q621 342 565 340.50Q509 339 480 339Q410 339 342 354Q305 317 305 207L416 195Q488 216 561 238Q653 266 650 329L649 342Z"  horiz-adv-x="1679" vert-adv-y="2048"  />

      
      <glyph glyph-name="unibf" unicode="&#xbf;" d="M547-537Q248-537 76-422L162-274Q356-371 678-371Q921-371 921-289Q921-228 736 26.50Q551 281 551 377Q551 475 645 475Q739 475 752 414Q743 383 743 352Q743 256 835 139Q920 39 1005-61Q1097-182 1097-287Q1097-357 1048-417.50Q999-478 930-494Q748-537 547-537M766 999Q831 920 831 852Q831 784 766 741Q745 770 646 781Q561 791 561 840Q561 834 569 889Q579 957 608.50 982.50Q638 1008 709 1008Q737 1008 766 999Z"  horiz-adv-x="1067" vert-adv-y="2048"  />

      
      <glyph glyph-name="unia1" unicode="&#xa1;" d="M483-147Q483-165 484-213.50Q485-262 485-290Q485-595 360-664Q329-606 324-521Q324-521 324-372Q324-304 311-209Q307-138 297 1Q283 143 283 209Q283 412 385 528Q406 439 426 190Q437 51 456-44Q458-52 471-98Q483-137 483-147M238 713Q199 713 190 772Q188 786 188 860Q214 909 241 958Q279 1012 330 1012Q380 1012 409 977.50Q438 943 438 893Q438 820 375 766.50Q312 713 238 713Z"  horiz-adv-x="496" vert-adv-y="2048"  />

      
      <glyph glyph-name="uni2248" unicode="&#x2248;" d="M889 780Q1022 788 1197 858Q1344 924 1491 989Q1494 978 1515 933Q1530 898 1530 874Q1530 864 1528 854Q1130 582 864 596Q892 541 895 444Q899 338 912 302Q937 229 1024 190Q1135 208 1292 359Q1458 519 1552 547L1614 449Q1557 411 1437 296Q1317 181 1249 135Q1138 61 1034 61Q945 61 883 144Q843 196 794 320Q744 448 717 485Q599 458 423 348Q222 221 139 190Q88 260 88 309Q88 338 102 362Q387 563 803 682Q736 734 719 862Q698 1026 680 1063Q450 948 409 922Q261 828 201 707Q188 702 178 702Q133 702 102 793Q133 955 340 1093Q536 1224 707 1224Q844 1224 844 1108Q844 1075 834.50 1010.50Q825 946 825 913Q825 819 889 780Z"  horiz-adv-x="1559" vert-adv-y="2048"  />

      
      <glyph glyph-name="uni22F2" unicode="&#x22F2;" d="M889 780Q1022 788 1197 858Q1344 924 1491 989Q1494 978 1515 933Q1530 898 1530 874Q1530 864 1528 854Q1130 582 864 596Q892 541 895 444Q899 338 912 302Q937 229 1024 190Q1135 208 1292 359Q1458 519 1552 547L1614 449Q1557 411 1437 296Q1317 181 1249 135Q1138 61 1034 61Q945 61 883 144Q843 196 794 320Q744 448 717 485Q599 458 423 348Q222 221 139 190Q88 260 88 309Q88 338 102 362Q387 563 803 682Q736 734 719 862Q698 1026 680 1063Q450 948 409 922Q261 828 201 707Q188 702 178 702Q133 702 102 793Q133 955 340 1093Q536 1224 707 1224Q844 1224 844 1108Q844 1075 834.50 1010.50Q825 946 825 913Q825 819 889 780Z"  horiz-adv-x="1559" vert-adv-y="2048"  />

      
      <glyph glyph-name="uniab" unicode="&#xab;" d="M262 483Q471 430 630 430Q675 430 717 434Q770 399 770 348Q770 336 766 324Q653 285 483 285Q266 285 201 299Q152 310 124 370Q100 419 100 475Q100 496 102 520Q191 652 379 850Q596 1079 668 1171Q719 1120 719 1055Q719 1024 705 999Q688 967 475 745Q395 661 360 620Q298 547 262 483M963 692Q1026 657 1197 626Q1356 598 1430 545Q1464 537 1464 494Q1464 457 1442 434Q1405 416 1358 416Q1309 416 1192 444Q1075 472 1004 472Q986 472 950.50 467.50Q915 463 897 463Q799 463 799 621Q799 709 862 801Q896 849 997 956Q1089 1052 1122 1110Q1186 1075 1186 1026Q1186 987 1133 913Q1107 869 1061 803L963 692Z"  horiz-adv-x="1411" vert-adv-y="2048"  />

      
      <glyph glyph-name="unibb" unicode="&#xbb;" d="M1108 1155Q1145 1118 1329 1017Q1471 939 1513 836Q1513 722 1437 601Q1391 528 1280 406Q1251 400 1187 352Q1128 309 1090 309Q1059 309 1034 332Q1026 358 1026 383Q1026 438 1079 480Q1108 502 1186 539Q1253 570 1268 590L1415 786Q1165 936 1122 965Q909 1111 909 1192Q909 1215 925 1259Q946 1318 948 1327Q987 1316 1028 1246Q1072 1172 1108 1155M848 870Q848 840 838 762Q639 492 346 381Q313 406 313 457Q313 498 334 541Q541 627 739 848Q682 902 521 938Q323 983 275 1005Q158 1058 158 1167Q158 1210 174 1266Q241 1179 368 1140Q371 1139 600 1090Q764 1055 813 995Q848 952 848 870Z"  horiz-adv-x="1456" vert-adv-y="2048"  />

      
      <glyph glyph-name="uni2026" unicode="&#x2026;" d="M1155 215Q1155 179 1122 115Q1078 31 1073 16Q1057 4 1042 4Q1020 4 996 35Q967 71 956 76Q938 104 938 131Q938 173 986 210Q1031 246 1073 246Q1133 246 1155 215M250 246Q264 203 264 162Q264 66 188 12Q180 10 173 10Q149 10 102 74Q101 84 101 95Q101 149 135 197Q173 250 225 250Q238 250 250 246M1999 221Q2013 178 2013 137Q2013 94 1989 44Q1961-14 1922-14Q1900-14 1851 49Q1850 59 1850 70Q1850 124 1884 172Q1922 225 1974 225Q1987 225 1999 221Z"  horiz-adv-x="2062" vert-adv-y="2048"  />

      
      <glyph glyph-name="unic0" unicode="&#xc0;" d="M1278 737Q1299 739 1393 751Q1464 760 1509 760Q1602 760 1683 725Q1664 659 1574 625Q1522 606 1398 587Q1287 571 1255 553Q1255 352 1229 258Q1294 231 1294 178Q1294 138 1270 104Q1244 66 1206 66Q1130 66 1130 321Q1130 359 1132 411Q1134 463 1134 469Q1134 521 1136 499Q1134 515 1119 515Q1052 515 876 474Q668 425 614 418L307 0Q275 0 249 36Q229 67 209 98Q220 126 333 331Q410 472 418 578Q476 586 515 653Q524 670 565 774L516 836Q647 924 819 1184Q993 1448 1118 1536Q1212 1452 1240 1258Q1251 1100 1262 942L1278 737M1141 823Q1141 895 1117.50 1038.50Q1094 1182 1094 1253L811 664L1081 688Q1141 693 1141 823M1257 1753Q1257 1704 1239 1653Q1216 1587 1177 1587Q1155 1587 1126 1620Q1088 1662 1081 1667Q1098 1718 1098 1759Q1098 1844 1020 1919Q949 1979 878 2038Q831 2082 810 2142Q793 2202 776 2261Q939 2214 1040 2097Q1208 1902 1239 1847Q1257 1815 1257 1753Z"  horiz-adv-x="1577" vert-adv-y="2048"  />

      
      <glyph glyph-name="unic3" unicode="&#xc3;" d="M1278 737Q1299 739 1393 751Q1464 760 1509 760Q1602 760 1683 725Q1664 659 1574 625Q1522 606 1398 587Q1287 571 1255 553Q1255 352 1229 258Q1294 231 1294 178Q1294 138 1270 104Q1244 66 1206 66Q1130 66 1130 321Q1130 359 1132 411Q1134 463 1134 469Q1134 521 1136 499Q1134 515 1119 515Q1052 515 876 474Q668 425 614 418L307 0Q275 0 249 36Q229 67 209 98Q220 126 333 331Q410 472 418 578Q476 586 515 653Q524 670 565 774L516 836Q647 924 819 1184Q993 1448 1118 1536Q1212 1452 1240 1258Q1251 1100 1262 942L1278 737M1141 823Q1141 895 1117.50 1038.50Q1094 1182 1094 1253L811 664L1081 688Q1141 693 1141 823M1129 1829Q1169 1843 1305 1945Q1415 2029 1509 2026L1522 2026Q1567 2003 1567 1946Q1567 1921 1546 1841Q1531 1843 1517 1843Q1420 1843 1300 1729.50Q1180 1616 1094 1616Q1075 1616 1055 1620Q1007 1651 1002 1761Q997 1882 969 1915Q811 1852 779 1836Q669 1783 612 1719Q551 1755 551 1829Q551 1862 563 1891Q668 1995 778 2033Q820 2048 1030 2087L1116 2001L1129 1829Z"  horiz-adv-x="1577" vert-adv-y="2048"  />

      
      <glyph glyph-name="unid5" unicode="&#xd5;" d="M1454 799Q1454 675 1333 539Q1196 385 904 196Q577-16 414-16Q336-16 272 26Q199 73 199 147Q199 594 481 934Q477 971 477 1004Q477 1174 591.50 1293.50Q706 1413 875 1413Q1052 1413 1255 1194Q1454 978 1454 799M891 1231Q748 1231 666 1094Q762 1055 762 1001Q762 970 689 879.50Q616 789 616 745Q616 723 629 700L555 725Q447 556 408 477Q336 328 336 202Q336 162 341 149Q351 125 385 125Q480 125 824 338Q1140 535 1245 635Q1333 719 1333 803Q1333 841 1317 881Q1261 1022 1152 1120Q1029 1231 891 1231M871 1868Q911 1882 1047 1984Q1157 2068 1251 2065L1264 2065Q1309 2042 1309 1985Q1309 1960 1288 1880Q1273 1882 1259 1882Q1162 1882 1042 1768.50Q922 1655 836 1655Q817 1655 797 1659Q749 1690 744 1800Q739 1921 711 1954Q553 1891 521 1875Q411 1822 354 1758Q293 1794 293 1868Q293 1901 305 1930Q410 2034 520 2072Q562 2087 772 2126L858 2040L871 1868Z"  horiz-adv-x="1362" vert-adv-y="2048"  />

      
      <glyph glyph-name="uni0153" unicode="&#x0153;" d="M958 602Q1117 747 1175 778Q1273 831 1448 831Q1552 831 1651 796Q1784 748 1784 664Q1784 612 1737 553Q1456 387 1145 387Q1087 387 1028 393Q977 356 977 295Q977 230 1028 191Q1074 156 1141 156Q1234 156 1434 236.50Q1634 317 1718 317Q1767 317 1798 295Q1460-4 1180-4Q1073-4 988 36Q887 83 854 172Q692-12 461-12Q272-12 156 131Q154 155 154 178Q154 412 328 586Q328 696 419 773Q506 846 618 846Q732 846 827.50 778Q923 710 958 602M831 473L831 549Q831 602 770 644Q714 682 659 682Q602 682 561 647Q590 598 590 557Q590 497 520 436Q455 383 391 330Q323 263 327 187L328 168Q626 168 803 336Q831 363 831 473M1638 664Q1565 700 1475 700Q1391 700 1303 667Q1204 631 1161 571Q1139 541 1139 522Q1139 487 1200 487Q1292 487 1431.50 543.50Q1571 600 1638 664Z"  horiz-adv-x="1802" vert-adv-y="2048"  />

      
      <glyph glyph-name="uni2013" unicode="&#x2013;" d="M1618 729L1618 653L1569 616Q1403 662 1176 662Q1037 662 742 638Q421 612 154 612Q109 612 89 674Q80 725 70 776L82 825Q236 792 474 792Q593 792 830 807Q1067 822 1186 822Q1496 822 1581 788Q1618 773 1618 729Z"  horiz-adv-x="1587" vert-adv-y="2048"  />

      
      <glyph glyph-name="uni2014" unicode="&#x2014;" d="M2198 780Q2236 708 2236 682Q2236 670 2234 657Q2139 595 1979 595Q1945 595 1877 598Q1809 601 1775 601Q1759 601 1727.50 598.50Q1696 596 1681 596Q1647 596 1578 606Q1494 618 1473 620Q1274 637 1040 637Q945 637 391 621Q377 627 358 627Q327 627 265.50 610.50Q204 594 172 594Q107 594 107 667Q107 680 109 694Q120 707 119 735Q118 771 121 780Q442 813 823 813Q1052 813 1510.50 796.50Q1969 780 2198 780Z"  horiz-adv-x="2187" vert-adv-y="2048"  />

      
      <glyph glyph-name="uni201C" unicode="&#x201C;" d="M692 1929Q661 1829 563 1645.50Q465 1462 434 1364Q448 1350 532 1352Q508 1252 432 1252Q353 1252 311 1401Q307 1415 307 1466Q307 1571 355 1675Q383 1737 460.50 1854.50Q538 1972 569 2040Q637 2040 692 1929M1110 1966Q1110 1836 984 1631Q852 1414 840 1303Q741 1348 741 1493Q741 1556 768 1624Q796 1685 823 1747Q908 1954 1036 2015Q1110 1987 1110 1966Z"  horiz-adv-x="1079" vert-adv-y="2048"  />

      
      <glyph glyph-name="uni201D" unicode="&#x201D;" d="M721 1929Q776 2040 844 2040Q875 1972 952.50 1854.50Q1030 1737 1058 1675Q1106 1571 1106 1466Q1106 1415 1102 1401Q1061 1252 981 1252Q905 1252 881 1352Q889 1352 908 1350.50Q927 1349 937 1349Q964 1349 979 1364Q948 1463 850 1646.50Q752 1830 721 1929M303 1966Q303 1987 377 2015Q505 1954 590 1747Q618 1685 645 1624Q672 1556 672 1493Q672 1348 573 1303Q561 1415 429 1632Q303 1838 303 1966Z"  horiz-adv-x="1077" vert-adv-y="2048"  />

      
      </font>
</defs>
</svg>
