<?xml version="1.0" standalone="no"?>
  <!DOCTYPE svg PUBLIC "-//W3C//DTD SVG 1.1//EN" "http://www.w3.org/Graphics/SVG/1.1/DTD/svg11.dtd" >
  <svg>
  <metadata>
  Created by font-carrier
  </metadata>
  <defs>
  <font id="EvgeniaDeco" horiz-adv-x="951" vert-adv-y="951" >
    <font-face
      
      font-family="Evgenia Deco"
      
      font-weight="400"
      
      font-stretch="normal"
      
      units-per-em="1000"
      
      ascent="1000"
      
      descent="-225"
      
    />
      <missing-glyph />

      

      
      <glyph glyph-name="uni21" unicode="&#x21;" d="M129 718L115 154L80 154L66 718L129 718M157 55Q157 31 139 13.50Q121-4 97-4Q72-4 54 13.50Q36 31 36 55Q36 78 54 95.50Q72 113 97 113Q121 113 139 95.50Q157 78 157 55Z"  horiz-adv-x="188" vert-adv-y="1000"  />

      
      <glyph glyph-name="uni22" unicode="&#x22;" d="M146 598L105 598L105 718L146 718L146 598M71 598L30 598L30 718L71 718L71 598Z"  horiz-adv-x="176" vert-adv-y="1000"  />

      
      <glyph glyph-name="uni23" unicode="&#x23;" d="M286 271L205 271L165 0L122 0L163 271L134 271L94 0L51 0L92 271L32 271L32 311L98 311L104 358L32 358L32 399L111 399L159 718L201 718L153 399L182 399L230 718L271 718L224 399L286 399L286 358L218 358L211 311L286 311L286 271M176 358L147 358L139 311L169 311L176 358Z"  horiz-adv-x="319" vert-adv-y="1000"  />

      
      <glyph glyph-name="uni24" unicode="&#x24;" d="M479 282Q479 186 411 118.50Q343 51 247 51Q206 51 172 62L141-38L101-26L135 78Q80 108 47.50 163.50Q15 219 15 282L57 282Q57 175 147 120L231 385Q176 402 142 447.50Q108 493 108 551Q108 623 159.50 674Q211 725 283 725Q309 725 335 717L349 762L389 749L373 700Q457 649 457 551L416 551Q416 620 360 658L313 509Q389 491 434 426.50Q479 362 479 282M323 677Q305 684 283 684Q228 684 189 645Q150 606 150 551Q150 507 176 472Q202 437 243 424L323 677M437 282Q437 349 402 401Q364 455 301 470L185 102Q214 92 247 92Q326 92 381.50 147.50Q437 203 437 282Z"  horiz-adv-x="513" vert-adv-y="1000"  />

      
      <glyph glyph-name="uni25" unicode="&#x25;" d="M294 718L132 0L89 0L238 659Q216 649 197 649Q174 649 147 659Q120 669 110 669Q78 669 78 636Q78 604 111 604Q136 604 145 635L185 625Q169 565 110 565Q81 565 58.50 586Q36 607 36 636Q36 664 57 686Q78 708 108 708Q128 708 155 697.50Q182 687 192 687Q216 687 258 718L294 718M331 68Q331 39 309 17.50Q287-4 256-4Q225-4 202.50 17.50Q180 39 180 68Q180 99 202.50 120.50Q225 142 256 142Q287 142 309 120.50Q331 99 331 68M290 68Q290 82 280 92Q270 102 256 102Q242 102 232 92Q222 82 222 68Q222 36 256 36Q290 36 290 68Z"  horiz-adv-x="340" vert-adv-y="1000"  />

      
      <glyph glyph-name="uni26" unicode="&#x26;" d="M508 272L448 272L448 114Q448 45 398 19Q362 0 288 0L65 0L198 342Q127 352 81.50 406.50Q36 461 36 533Q36 611 91.50 667.50Q147 724 225 724Q309 724 359 674Q409 624 409 547Q409 497 376.50 460.50Q344 424 297 424Q249 424 218 455Q187 486 187 533Q187 598 244 630L264 595Q227 574 227 533Q227 504 247 484Q267 464 297 464Q328 464 348.50 489Q369 514 369 547Q369 606 329.50 644.50Q290 683 225 683Q164 683 120.50 638.50Q77 594 77 533Q77 462 128.50 416Q180 370 254 374L128 43L288 43Q342 43 364 51Q407 68 407 119L407 272L346 272L346 311L407 311L407 386L448 386L448 311L508 311L508 272Z"  horiz-adv-x="547" vert-adv-y="1000"  />

      
      <glyph glyph-name="uni27" unicode="&#x27;" d="M71 598L30 598L30 718L71 718L71 598Z"  horiz-adv-x="101" vert-adv-y="1000"  />

      
      <glyph glyph-name="uni28" unicode="&#x28;" d="M217-22L186-48Q111 14 69 127Q30 233 30 356Q30 480 69 586Q111 699 186 760L217 734Q91 615 91 356Q91 97 217-22Z"  horiz-adv-x="232" vert-adv-y="1000"  />

      
      <glyph glyph-name="uni29" unicode="&#x29;" d="M194 356Q194 233 155 127Q113 14 38-48L7-22Q133 97 133 356Q133 615 7 734L38 760Q113 699 155 586Q194 480 194 356Z"  horiz-adv-x="232" vert-adv-y="1000"  />

      
      <glyph glyph-name="uni2a" unicode="&#x2a;" d="M194 613L144 618L185 590L161 560L126 600L129 550L90 550L93 600L58 560L34 590L75 618L25 613L25 655L75 650L34 678L58 708L93 668L90 718L129 718L126 668L161 708L185 678L144 650L194 655L194 613Z"  horiz-adv-x="219" vert-adv-y="1000"  />

      
      <glyph glyph-name="uni2b" unicode="&#x2b;" d="M302 270L185 270L185 163L144 163L144 270L27 270L27 308L144 308L144 415L185 415L185 308L302 308L302 270Z"  horiz-adv-x="329" vert-adv-y="1000"  />

      
      <glyph glyph-name="uni2c" unicode="&#x2c;" d="M139 54Q139 36 124 16L66-62L18-62L63-1Q22 11 22 54Q22 79 39 96Q56 113 81 113Q105 113 122 96Q139 79 139 54Z"  horiz-adv-x="161" vert-adv-y="1000"  />

      
      <glyph glyph-name="uni2d" unicode="&#x2d;" d="M229 268L27 268L27 310L229 310L229 268Z"  horiz-adv-x="256" vert-adv-y="1000"  />

      
      <glyph glyph-name="uni2e" unicode="&#x2e;" d="M139 54Q139 30 122 13Q105-4 80-4Q56-4 39 13Q22 30 22 54Q22 79 39 96Q56 113 80 113Q105 113 122 96Q139 79 139 54Z"  horiz-adv-x="161" vert-adv-y="1000"  />

      
      <glyph glyph-name="uni2f" unicode="&#x2f;" d="M356 733L48-52L10-36L318 750L356 733Z"  horiz-adv-x="372" vert-adv-y="1000"  />

      
      <glyph glyph-name="uni30" unicode="&#x30;" d="M421 364Q421 246 375 148Q322 35 224-9Q181 0 129 57L107 0L63 0L100 95Q27 203 27 357Q27 476 73 574Q126 687 224 731Q277 709 319 661L341 718L385 718L348 624Q421 508 421 364M303 619Q266 665 224 686Q147 646 105 544Q68 457 68 357Q68 239 119 144L303 619M380 357Q380 480 329 575L145 101Q181 56 224 34Q293 63 338 167Q380 261 380 357Z"  horiz-adv-x="448" vert-adv-y="1000"  />

      
      <glyph glyph-name="uni31" unicode="&#x31;" d="M128 0L87 0L87 580Q68 552 36 529L9 559Q87 616 87 718L128 718L128 0Z"  horiz-adv-x="188" vert-adv-y="1000"  />

      
      <glyph glyph-name="uni32" unicode="&#x32;" d="M384 533Q384 482 359 425Q346 394 306 327L138 41L281 41L281 0L66 0L271 350Q342 471 342 533Q342 595 299 638.50Q256 682 195 682Q134 682 91 639Q48 596 48 535Q48 474 91 431Q134 388 195 388L195 347Q117 347 61.50 402Q6 457 6 535Q6 613 61.50 668.50Q117 724 195 724Q273 724 328.50 667.50Q384 611 384 533Z"  horiz-adv-x="390" vert-adv-y="1000"  />

      
      <glyph glyph-name="uni33" unicode="&#x33;" d="M307 259Q307 150 244.50 72Q182-6 92-6Q40-6-13 28L13 60Q53 34 92 34Q162 34 213 99Q264 164 264 259Q264 357 207.50 421Q151 485 56 485L181 678L45 678L45 718L256 718L126 517Q205 501 256 429Q307 357 307 259Z"  horiz-adv-x="314" vert-adv-y="1000"  />

      
      <glyph glyph-name="uni34" unicode="&#x34;" d="M264 718L50 233L212 233L212 358L254 358L254 0L212 0L212 193L-12 193L227 734L264 718Z"  horiz-adv-x="309" vert-adv-y="1000"  />

      
      <glyph glyph-name="uni35" unicode="&#x35;" d="M404 263Q404 152 333 74Q262-4 161-4Q58-4-20 86L13 110Q80 37 161 37Q244 37 303.50 102.50Q363 168 363 263Q363 372 304 440Q245 508 161 508Q120 508 74 486L74 718L247 718L247 678L115 678L115 543Q134 548 161 548Q264 548 334 469Q404 390 404 263Z"  horiz-adv-x="411" vert-adv-y="1000"  />

      
      <glyph glyph-name="uni36" unicode="&#x36;" d="M386 185Q386 107 331 51.50Q276-4 198-4Q120-4 65 51.50Q10 107 10 185Q10 235 35 292Q48 321 88 391L277 718L328 718L123 370Q51 248 51 185Q51 124 94.50 81Q138 38 198 38Q260 38 302.50 81Q345 124 345 185Q345 247 302.50 289.50Q260 332 198 332L198 373Q277 373 331.50 318Q386 263 386 185Z"  horiz-adv-x="399" vert-adv-y="1000"  />

      
      <glyph glyph-name="uni37" unicode="&#x37;" d="M253 718L184 448L250 448L250 408L174 408L67-9L27 3L130 408L59 408L59 448L140 448L197 678L24 678L24 718L253 718Z"  horiz-adv-x="284" vert-adv-y="1000"  />

      
      <glyph glyph-name="uni38" unicode="&#x38;" d="M525 270Q525 156 450.50 75Q376-6 269-6Q162-6 87 75Q12 156 12 270Q12 345 46 408Q80 471 138 508Q121 544 121 577Q121 638 164 681Q207 724 269 724Q330 724 373 681Q416 638 416 577Q416 544 399 508Q457 471 491 408Q525 345 525 270M374 577Q374 621 343.50 652Q313 683 269 683Q225 683 194 652Q163 621 163 577Q163 549 175 528Q221 547 269 547Q316 547 362 528Q374 552 374 577M336 494Q303 505 269 505Q234 505 201 494Q230 471 269 471Q308 471 336 494M484 270Q484 406 374 475Q332 430 269 430Q206 430 163 475Q53 406 53 270Q53 172 116.50 103.50Q180 35 269 35Q357 35 420.50 103.50Q484 172 484 270Z"  horiz-adv-x="537" vert-adv-y="1000"  />

      
      <glyph glyph-name="uni39" unicode="&#x39;" d="M390 535Q390 485 365 428Q352 399 312 329L122 0L73 0L277 350Q349 474 349 535Q349 596 306 639Q263 682 201 682Q140 682 97 639Q54 596 54 535Q54 473 97 430.50Q140 388 201 388L201 347Q123 347 68 402Q13 457 13 535Q13 613 68 668.50Q123 724 201 724Q280 724 335 668.50Q390 613 390 535Z"  horiz-adv-x="401" vert-adv-y="1000"  />

      
      <glyph glyph-name="uni3a" unicode="&#x3a;" d="M144 294Q144 270 127 253Q110 236 85 236Q61 236 44 253Q27 270 27 294Q27 319 44 336Q61 353 85 353Q110 353 127 336Q144 319 144 294M144 54Q144 30 127 13Q110-4 85-4Q61-4 44 13Q27 30 27 54Q27 79 44 96Q61 113 85 113Q110 113 127 96Q144 79 144 54Z"  horiz-adv-x="171" vert-adv-y="1000"  />

      
      <glyph glyph-name="uni3b" unicode="&#x3b;" d="M144 294Q144 270 126.50 253Q109 236 86 236Q61 236 44 253Q27 270 27 294Q27 319 44 336Q61 353 86 353Q110 353 127 336Q144 319 144 294M144 54Q144 36 129 16L71-62L23-62L68-1Q27 11 27 54Q27 79 44 96Q61 113 86 113Q110 113 127 96Q144 79 144 54Z"  horiz-adv-x="171" vert-adv-y="1000"  />

      
      <glyph glyph-name="uni3c" unicode="&#x3c;" d="M360 101L18 290L360 482L360 433L103 290L360 148L360 101Z"  horiz-adv-x="385" vert-adv-y="1000"  />

      
      <glyph glyph-name="uni3d" unicode="&#x3d;" d="M281 316L27 316L27 357L281 357L281 316M281 217L27 217L27 259L281 259L281 217Z"  horiz-adv-x="308" vert-adv-y="1000"  />

      
      <glyph glyph-name="uni3e" unicode="&#x3e;" d="M369 290L28 101L28 148L284 290L28 433L28 482L369 290Z"  horiz-adv-x="385" vert-adv-y="1000"  />

      
      <glyph glyph-name="uni3f" unicode="&#x3f;" d="M414 540Q414 461 324 377Q247 306 247 263L247 145L206 145L206 263Q206 309 249 358Q289 400 330 441Q373 492 373 540Q373 600 328 642Q283 684 218 684Q154 684 109 641.50Q64 599 64 540Q64 458 150 410L130 375Q23 435 23 540Q23 616 80.50 670Q138 724 218 724Q299 724 356.50 670Q414 616 414 540M286 54Q286 31 268 13.50Q250-4 226-4Q201-4 183.50 13.50Q166 31 166 54Q166 78 183.50 95.50Q201 113 226 113Q250 113 268 95.50Q286 78 286 54Z"  horiz-adv-x="437" vert-adv-y="1000"  />

      
      <glyph glyph-name="uni40" unicode="&#x40;" d="M753 359Q753 262 704 208Q661 160 599 160Q553 160 526.50 189.50Q500 219 500 271L500 476Q455 513 393 513Q327 513 279 468.50Q231 424 231 359Q231 293 279 249Q327 205 393 205Q413 205 436 210L458 175Q428 165 393 165Q311 165 249.50 221Q188 277 188 359Q188 441 249.50 496.50Q311 552 393 552Q452 552 501 524L501 549L542 549L542 271Q542 200 599 200Q648 200 680 242Q712 284 712 359Q712 493 617.50 587.50Q523 682 389 682Q255 682 161 587.50Q67 493 67 359Q67 226 161.50 131.50Q256 37 389 37Q458 37 524 67L547 32Q475-4 389-4Q239-4 132 102.50Q25 209 25 359Q25 510 132 617Q239 724 389 724Q540 724 646.50 617Q753 510 753 359Z"  horiz-adv-x="778" vert-adv-y="1000"  />

      
      <glyph glyph-name="uni41" unicode="&#x41;" d="M695 7L655-8L581 154L117 154L43-8L3 7L71 154L10 154L10 194L89 194L349 757L609 194L688 194L688 154L627 154L695 7M562 194L349 659L136 194L562 194Z"  horiz-adv-x="698" vert-adv-y="1000"  />

      
      <glyph glyph-name="uni42" unicode="&#x42;" d="M242 156Q242 94 199 47Q156 0 92 0L63 0L63 718L103 718Q165 685 201 627Q237 566 237 493Q237 373 149 298Q191 279 216.50 240.50Q242 202 242 156M195 493Q195 549 170.50 597Q146 645 104 670L104 312Q195 375 195 493M201 156Q201 197 172.50 231.50Q144 266 104 271L104 42Q142 44 171.50 78.50Q201 113 201 156Z"  horiz-adv-x="267" vert-adv-y="1000"  />

      
      <glyph glyph-name="uni43" unicode="&#x43;" d="M685 101Q575-20 408-20Q251-20 140.50 91Q30 202 30 358Q30 515 140.50 625.50Q251 736 408 736Q539 736 539 637Q539 617 535 605L491 605Q495 617 495 633Q495 695 408 695Q269 695 171 596Q73 497 73 358Q73 219 171 120Q269 21 408 21Q554 21 654 129L685 101Z"  horiz-adv-x="690" vert-adv-y="1000"  />

      
      <glyph glyph-name="uni44" unicode="&#x44;" d="M275 359Q275 249 228 155Q178 55 88 0L54 0L54 718L88 718Q178 663 228 563Q275 469 275 359M232 359Q232 449 199 526Q163 612 95 660L95 58Q163 106 199 192Q232 269 232 359Z"  horiz-adv-x="305" vert-adv-y="1000"  />

      
      <glyph glyph-name="uni46" unicode="&#x46;" d="M209 600L166 600L166 654Q166 677 139 677L104 677L104 312L157 312L157 273L104 273L104 0L62 0L62 273L11 273L11 312L62 312L62 718L139 718Q209 718 209 654L209 600Z"  horiz-adv-x="201" vert-adv-y="1000"  />

      
      <glyph glyph-name="uni47" unicode="&#x47;" d="M691 0L650 0L650 47Q550-20 409-20Q253-20 141.50 91Q30 202 30 358Q30 515 141.50 625.50Q253 736 409 736Q540 736 540 635Q540 615 536 603L492 603Q496 615 496 631Q496 694 409 694Q270 694 172.50 595.50Q75 497 75 358Q75 220 172.50 122Q270 24 409 24Q555 24 650 101L650 269Q650 273 645 273L534 273L534 313L645 313Q691 313 691 269L691 0Z"  horiz-adv-x="737" vert-adv-y="1000"  />

      
      <glyph glyph-name="uni49" unicode="&#x49;" d="M100 0L58 0L58 677L14 677L14 718L70 718Q100 718 100 689L100 0Z"  horiz-adv-x="154" vert-adv-y="1000"  />

      
      <glyph glyph-name="uni4a" unicode="&#x4a;" d="M125 98Q125-50-9-70L-27-32Q83-17 83 98L83 677L24 677L24 718L95 718Q125 718 125 689L125 98Z"  horiz-adv-x="179" vert-adv-y="1000"  />

      
      <glyph glyph-name="uni4b" unicode="&#x4b;" d="M28 719L69 719L69 329L178 719L220 719L109 313L181 313L181 102Q181 76 200 56.50Q219 37 244 37L244-3Q200-3 170 26.50Q140 56 140 102L140 273L69 273L69 1L28 1L28 719Z"  horiz-adv-x="261" vert-adv-y="1000"  />

      
      <glyph glyph-name="uni4c" unicode="&#x4c;" d="M162 0L54 0L54 718L95 718L95 40L162 40L162 0Z"  horiz-adv-x="166" vert-adv-y="1000"  />

      
      <glyph glyph-name="uni4f" unicode="&#x4f;" d="M786 358Q786 202 674.50 91Q563-20 408-20Q252-20 141 91.50Q30 203 30 359Q30 467 85 553Q145 645 245 669Q306 736 408 736Q564 736 675 625.50Q786 515 786 358M743 358Q743 497 645 596Q547 695 408 695Q357 695 316 674Q343 674 360 669L351 629Q327 636 298 636Q289 636 271 634Q250 608 238 567L200 580L216 617Q150 589 109 509Q73 437 73 358Q73 220 171.50 120.50Q270 21 408 21Q546 21 644.50 120.50Q743 220 743 358Z"  horiz-adv-x="816" vert-adv-y="1000"  />

      
      <glyph glyph-name="uni50" unicode="&#x50;" d="M229 493Q229 422 193 360.50Q157 299 96 268L96 0L54 0L54 718L95 718Q157 685 193 627Q229 566 229 493M187 493Q187 611 96 672L96 312Q187 375 187 493Z"  horiz-adv-x="235" vert-adv-y="1000"  />

      
      <glyph glyph-name="uni51" unicode="&#x51;" d="M786 358Q786 267 744 185Q703 107 632 54Q673 34 731 38L731-3Q716-4 707-4Q647-7 594 29Q507-20 408-20Q252-20 141 91.50Q30 203 30 359Q30 467 85 553Q145 645 245 669Q306 736 408 736Q564 736 675 625.50Q786 515 786 358M743 358Q743 497 645 596Q547 695 408 695Q357 695 316 674Q343 674 360 669L351 629Q327 636 298 636Q289 636 271 634Q250 608 238 567L200 580L216 617Q150 589 109 509Q73 437 73 358Q73 220 171.50 120.50Q270 21 408 21Q487 21 561 58Q511 111 507 189L549 189Q552 121 596 80Q664 126 703.50 200Q743 274 743 358Z"  horiz-adv-x="816" vert-adv-y="1000"  />

      
      <glyph glyph-name="uni52" unicode="&#x52;" d="M268-4Q224-4 194 25.50Q164 55 164 101L164 272L95 272L95 0L54 0L54 718L94 718Q156 685 192 627Q228 566 228 493Q228 387 155 312L205 312L205 101Q205 73 223.50 54.50Q242 36 268 36L268-4M186 493Q186 611 95 671L95 312Q186 375 186 493Z"  horiz-adv-x="279" vert-adv-y="1000"  />

      
      <glyph glyph-name="uni53" unicode="&#x53;" d="M145 239Q145 88 14-19L-11 13Q105 108 105 239Q105 298 67 392.50Q29 487 29 549Q29 667 113 736L140 706Q70 648 70 549Q70 486 107.50 401Q145 316 145 239Z"  horiz-adv-x="182" vert-adv-y="1000"  />

      
      <glyph glyph-name="uni54" unicode="&#x54;" d="M181 678L108 678L108 0L66 0L66 678L-7 678L-7 718L181 718L181 678Z"  horiz-adv-x="174" vert-adv-y="1000"  />

      
      <glyph glyph-name="uni55" unicode="&#x55;" d="M239 103Q239 60 212.50 28Q186-4 146-4Q107-4 80.50 28Q54 60 54 103L54 718L95 718L95 103Q95 74 111 55.50Q127 37 146 37Q166 37 181.50 55.50Q197 74 197 103L197 718L239 718L239 103Z"  horiz-adv-x="293" vert-adv-y="1000"  />

      
      <glyph glyph-name="uni56" unicode="&#x56;" d="M702 710L355-21L9 713L47 729L355 76L665 726L702 710Z"  horiz-adv-x="710" vert-adv-y="1000"  />

      
      <glyph glyph-name="uni57" unicode="&#x57;" d="M809 712L457-21L396 120L332-21L-18 714L20 730L332 79L374 171L122 714L160 730L396 221L637 727L675 711L419 171L457 79L771 728L809 712Z"  horiz-adv-x="791" vert-adv-y="1000"  />

      
      <glyph glyph-name="uni58" unicode="&#x58;" d="M254 3L213-6L143 321L73-6L33 3L122 416L57 715L98 727L143 514L188 727L228 715L164 419L254 3Z"  horiz-adv-x="286" vert-adv-y="1000"  />

      
      <glyph glyph-name="uni5a" unicode="&#x5a;" d="M235 718L68 40L204 40L204 0L13 0L180 678L111 678Q84 678 84 654L84 600L42 600L42 654Q42 718 111 718L235 718Z"  horiz-adv-x="232" vert-adv-y="1000"  />

      
      <glyph glyph-name="uni5b" unicode="&#x5b;" d="M178-65L85-65Q55-65 55-35L55 746Q55 776 85 776L178 776L178 734L96 734L96-23L178-23L178-65Z"  horiz-adv-x="202" vert-adv-y="1000"  />

      
      <glyph glyph-name="uni5c" unicode="&#x5c;" d="M362-36L324-52L16 733L54 750L362-36Z"  horiz-adv-x="372" vert-adv-y="1000"  />

      
      <glyph glyph-name="uni5d" unicode="&#x5d;" d="M148-35Q148-65 118-65L24-65L24-23L107-23L107 734L24 734L24 776L118 776Q148 776 148 746L148-35Z"  horiz-adv-x="202" vert-adv-y="1000"  />

      
      <glyph glyph-name="uni5e" unicode="&#x5e;" d="M322 302L298 269L180 342L63 269L39 302L180 391L322 302Z"  horiz-adv-x="359" vert-adv-y="1000"  />

      
      <glyph glyph-name="uni5f" unicode="&#x5f;" d="M483-78L-56-78L-56-33L483-33L483-78Z"  horiz-adv-x="427" vert-adv-y="1000"  />

      
      <glyph glyph-name="uni60" unicode="&#x60;" d="M265 380L235 357L134 492L164 515L265 380Z"  horiz-adv-x="377" vert-adv-y="1000"  />

      
      <glyph glyph-name="uni7b" unicode="&#x7b;" d="M197-89L94-16Q73-1 73 13L73 257Q73 302 45 319Q45 319 1 341Q26 352 60 375Q73 390 73 426L73 670Q73 683 94 698L197 771L197 721L114 663L114 429Q114 364 82 341Q114 319 114 253L114 19L197-39L197-89Z"  horiz-adv-x="209" vert-adv-y="1000"  />

      
      <glyph glyph-name="uni7c" unicode="&#x7c;" d="M95-63L54-63L54 799L95 799L95-63Z"  horiz-adv-x="140" vert-adv-y="1000"  />

      
      <glyph glyph-name="uni7d" unicode="&#x7d;" d="M208 341Q190 332 164 319Q136 303 136 257L136 13Q136 0 114-16L11-89L11-39L95 19L95 253Q95 319 126 341Q95 364 95 429L95 663L11 721L11 771L121 695Q136 684 136 670L136 426Q136 379 164 364Q172 360 208 341Z"  horiz-adv-x="209" vert-adv-y="1000"  />

      
      <glyph glyph-name="uni7e" unicode="&#x7e;" d="M319 299Q271 268 241 268Q219 268 178 279Q137 290 119 290Q96 290 62 266L40 302Q88 333 118 333Q139 333 179 321.50Q219 310 240 310Q259 310 296 334L319 299Z"  horiz-adv-x="360" vert-adv-y="1000"  />

      
      <glyph glyph-name="unia1" unicode="&#xa1;" d="M152 667Q152 644 134 626.50Q116 609 92 609Q68 609 50 626.50Q32 644 32 667Q32 690 50 707.50Q68 725 92 725Q116 725 134 707.50Q152 690 152 667M123 0L60 0L73 568L108 568L123 0Z"  horiz-adv-x="188" vert-adv-y="1000"  />

      
      <glyph glyph-name="unia2" unicode="&#xa2;" d="M410 429L377 407Q347 447 304 466L208 173Q238 170 239 170Q317 170 374 236L404 212Q336 130 239 130Q219 130 196 135L160 21L120 32L157 146Q101 171 68.50 218.50Q36 266 36 325Q36 407 95 463Q154 519 239 519Q258 519 276 516L293 568L332 557L316 505Q372 480 410 429M263 477Q255 478 238 478Q164 478 119 431Q78 388 78 326Q78 282 101 245Q125 205 169 186L263 477Z"  horiz-adv-x="434" vert-adv-y="1000"  />

      
      <glyph glyph-name="unia3" unicode="&#xa3;" d="M249 51Q249 0 182 0L0 0L0 40Q41 40 76 77Q106 108 121 153Q135 194 135 235Q135 257 133 268L56 268L56 308L126 308Q122 322 84 422Q58 490 58 542Q58 659 144 729L171 699Q100 641 100 542Q100 488 127 422Q162 337 168 308L245 308L245 268L174 268Q176 257 176 235Q176 116 99 39L189 39Q207 39 207 51L207 99L249 99L249 51Z"  horiz-adv-x="270" vert-adv-y="1000"  />

      
      <glyph glyph-name="unia4" unicode="&#xa4;" d="M555 689Q542 679 542 663Q542 654 548 637Q554 620 554 611Q554 594 546 585L540 591Q546 599 546 611Q546 620 539.50 637Q533 654 533 663Q533 685 551 696L555 689M520 689Q507 679 507 663Q507 654 513 637Q519 620 519 611Q519 594 511 585L505 591Q511 599 511 611Q511 620 504.50 637Q498 654 498 663Q498 685 516 696L520 689M486 687Q473 677 473 661Q473 652 479 635.50Q485 619 485 610Q485 593 475 583L469 589Q476 597 476 611Q476 619 470 635.50Q464 652 464 661Q464 684 482 694L486 687M451 687Q437 679 437 661Q437 653 443 636.50Q449 620 449 611Q449 593 440 584L434 590Q440 597 440 611Q440 620 434.50 636.50Q429 653 429 661Q429 684 446 695L451 687M415 689Q402 680 402 663Q402 654 408 637Q414 620 414 611Q414 594 405 585L399 591Q405 597 405 611Q405 620 399 637Q393 654 393 663Q393 685 410 696L415 689M582 508Q565 516 539 516Q493 516 463 483L461 484Q496 527 537 523Q527 525 521 525Q489 525 459 497L458 499Q490 537 522 537Q570 537 582 508M785 0L695 0Q696 6 696 19Q696 27 692.50 42Q689 57 689 65Q689 73 696 96Q703 119 703 135Q703 158 692 186.50Q681 215 681 228Q681 244 688 273.50Q695 303 695 318Q695 327 691 344Q687 361 687 369Q687 376 691 390Q694 411 694 432Q694 444 689 461Q682 484 681 490Q679 501 679 531Q679 579 669 611Q646 686 592 737Q538 788 463 800L785 800L785 0M565 508Q544 479 492 479Q485 479 469 481Q507 509 548 509Q560 509 565 508M381 687Q367 678 367 661Q367 652 373 635.50Q379 619 379 610Q379 592 370 583L364 589Q370 596 370 611Q370 619 364.50 635.50Q359 652 359 661Q359 683 376 694L381 687M345 687Q332 680 332 661Q332 653 338 636.50Q344 620 344 611Q344 594 334 584L328 590Q335 598 335 611Q335 620 329 636.50Q323 653 323 661Q323 685 341 695L345 687M680 136Q680 111 671 85Q666 71 666 65Q666 57 670 41.50Q674 26 674 18Q674 12 672 0L663 0Q665 12 665 18Q665 26 661 41.50Q657 57 657 65Q657 74 663 89Q671 109 671 136Q671 152 660 181.50Q649 211 649 227Q649 242 656 272.50Q663 303 663 319Q663 327 659 342Q655 357 655 365Q655 376 658.50 397.50Q662 419 662 430Q662 443 654 466.50Q646 490 646 502Q646 511 648.50 529Q651 547 651 557Q651 574 645 589L653 593Q659 575 659 557Q659 547 657 529Q655 511 655 502Q655 490 663 466.50Q671 443 671 430Q671 419 667.50 397.50Q664 376 664 365Q664 357 668 341.50Q672 326 672 318Q672 303 665 272.50Q658 242 658 226Q658 213 669 185.50Q680 158 680 136M650 135Q650 119 643 95.50Q636 72 636 64Q636 55 640 39.50Q644 24 644 16Q644 5 643 0L634 0Q636 10 636 16Q636 24 631.50 39.50Q627 55 627 64Q627 73 634 95.50Q641 118 641 135Q641 151 629.50 180.50Q618 210 618 225Q618 241 625.50 271.50Q633 302 633 317Q633 325 629 340.50Q625 356 625 364Q625 374 628.50 396Q632 418 632 429Q632 442 623.50 466Q615 490 615 503Q615 511 616.50 527Q618 543 618 551Q618 559 614.50 573.50Q611 588 611 595Q611 600 613.50 608.50Q616 617 616 621Q616 633 613 643L621 647Q624 639 624 621Q624 617 622 608.50Q620 600 620 595Q620 588 623.50 573.50Q627 559 627 551Q627 543 625.50 527Q624 511 624 503Q624 490 632.50 466Q641 442 641 429Q641 418 637.50 396Q634 374 634 364Q634 356 637.50 340.50Q641 325 641 317Q641 302 634 271.50Q627 241 627 225Q627 211 638.50 183.50Q650 156 650 135M309 687Q296 679 296 661Q296 653 302 636.50Q308 620 308 611Q308 593 299 584L292 590Q299 597 299 611Q299 620 293.50 636.50Q288 653 288 661Q288 684 305 695L309 687M620 135Q620 119 613 95.50Q606 72 606 64Q606 55 610.50 39.50Q615 24 615 16Q615 10 613 0L605 0Q605 2 606 8Q606 13 606 16Q606 24 601.50 39.50Q597 55 597 64Q597 74 604 96Q611 118 611 135Q611 151 600 180.50Q589 210 589 225Q589 241 596 271.50Q603 302 603 317Q603 325 599 340.50Q595 356 595 364Q595 374 598.50 396Q602 418 602 429Q602 449 596 461Q593 411 575 355Q575 349 578.50 336.50Q582 324 582 317Q582 302 575 271.50Q568 241 568 225Q568 211 579 183.50Q590 156 590 135Q590 119 583 95.50Q576 72 576 64Q576 55 580.50 39.50Q585 24 585 16Q585 13 585 8Q584 2 584 0L575 0Q576 5 576 16Q576 24 572 39.50Q568 55 568 64Q568 74 574.50 96Q581 118 581 135Q581 155 574.50 170.50Q568 186 562 202L549 0L536 0L557 301Q538 254 493 217L487 224Q532 261 560 336Q585 401 588 467Q589 488 589 544Q589 566 586 588Q578 597 578 614Q578 623 584 639.50Q590 656 590 665Q590 682 577 691L581 698Q599 688 599 665Q599 656 593 639.50Q587 623 587 614Q587 600 594 592Q597 579 597 551Q597 541 597 521Q596 501 596 491Q596 482 603.50 462.50Q611 443 611 429Q611 418 607.50 396Q604 374 604 364Q604 356 607.50 340.50Q611 325 611 317Q611 302 604 271.50Q597 241 597 225Q597 211 608.50 183.50Q620 156 620 135M415 363L406 363L406 520L415 520L415 363M392 499L391 497Q361 525 329 525Q324 525 314 523Q356 527 389 484L388 483Q357 516 311 516Q287 516 268 508Q280 537 328 537Q360 537 392 499M381 481Q367 479 359 479Q307 479 285 508Q291 509 302 509Q345 509 381 481M455 363L426 363L426 366L452 375L455 363M488 311L486 303L473 303Q456 274 425 274Q394 274 377 303L364 303L362 311Q378 311 386.50 320.50Q395 330 406 330Q415 330 425 323Q434 330 444 330Q456 330 465 320.50Q474 311 488 311M425 189Q341 189 294 301L314 0L302 0L289 202Q283 186 276.50 170.50Q270 155 270 135Q270 122 276.50 99Q283 76 283 64Q283 55 279 39.50Q275 24 275 16Q275 5 276 0L267 0Q266 5 266 16Q266 24 270 39.50Q274 55 274 64Q274 75 267.50 98.50Q261 122 261 135Q261 153 272 182Q283 211 283 225Q283 241 276 271.50Q269 302 269 317Q269 310 276 355Q256 416 255 461Q249 449 249 429Q249 418 252 396.50Q255 375 255 364Q255 356 251.50 340.50Q248 325 248 317Q248 302 255 271.50Q262 241 262 225Q262 210 251 180.50Q240 151 240 135Q240 122 246.50 99Q253 76 253 64Q253 55 249 39.50Q245 24 245 16Q245 5 246 0L237 0Q236 5 236 16Q236 24 240.50 39.50Q245 55 245 64Q245 75 238 98.50Q231 122 231 135Q231 153 242 182Q253 211 253 225Q253 241 246 271.50Q239 302 239 317Q239 325 243 340.50Q247 356 247 364Q247 375 243.50 396.50Q240 418 240 429Q240 440 247.50 460.50Q255 481 255 491Q255 503 255 525Q254 547 254 558Q254 581 256 592Q264 600 264 614Q264 623 258 639.50Q252 656 252 665Q252 687 269 698L274 691Q261 682 261 665Q261 656 267 639.50Q273 623 273 614Q273 599 264 588Q262 573 262 520Q262 483 263 467Q268 389 308 303Q357 197 421 197L425 197L425 189M387 800Q312 788 258 737Q204 686 181 611Q171 579 171 519Q171 496 170 490Q169 484 162 461Q157 443 157 432Q157 406 160 390Q163 374 163 369Q163 361 159.50 344Q156 327 156 318Q156 303 163 273.50Q170 244 170 228Q170 215 159 186.50Q148 158 148 135Q148 119 155 96Q162 73 162 65Q162 57 158 42Q154 27 154 19Q154 12 156 0L66 0L66 800L387 800M239 595Q239 588 235.50 573.50Q232 559 232 551Q232 543 233.50 527Q235 511 235 503Q235 490 227 466Q219 442 219 429Q219 418 222.50 396.50Q226 375 226 364Q226 356 222 340.50Q218 325 218 317Q218 302 225 271.50Q232 241 232 225Q232 210 221 180.50Q210 151 210 135Q210 118 216.50 96Q223 74 223 64Q223 55 219 39.50Q215 24 215 16Q215 5 216 0L207 0Q207 2 207 8Q206 13 206 16Q206 24 210.50 39.50Q215 55 215 64Q215 72 208 95.50Q201 119 201 135Q201 156 212.50 183.50Q224 211 224 225Q224 241 216.50 271.50Q209 302 209 317Q209 325 213 340.50Q217 356 217 364Q217 375 213.50 396.50Q210 418 210 429Q210 442 218.50 466Q227 490 227 503Q227 511 225.50 527Q224 543 224 551Q224 559 227.50 573.50Q231 588 231 595Q231 600 228.50 608.50Q226 617 226 621Q226 636 230 647L238 643Q235 636 235 621Q235 617 237 608.50Q239 600 239 595M206 589Q200 574 200 557Q200 547 202.50 529Q205 511 205 502Q205 490 196.50 466.50Q188 443 188 430Q188 419 191.50 397.50Q195 376 195 365Q195 357 191.50 342Q188 327 188 319Q188 303 195 272.50Q202 242 202 227Q202 211 191 181.50Q180 152 180 136Q180 109 188 89Q193 76 193 65Q193 57 189.50 41.50Q186 26 186 18Q186 6 187 0L178 0Q178 3 178 9Q177 15 177 18Q177 26 180.50 41.50Q184 57 184 65Q184 74 180 85Q171 111 171 136Q171 158 182 185.50Q193 213 193 226Q193 242 186 272.50Q179 303 179 318Q179 326 182.50 341.50Q186 357 186 365Q186 376 183 397.50Q180 419 180 430Q180 443 188 466.50Q196 490 196 502Q196 511 193.50 529Q191 547 191 557Q191 576 198 593L206 589M767 51Q767 83 736 83Q705 83 705 51Q705 20 736 20Q767 20 767 51M459 303L390 303Q403 289 425 289Q448 289 459 303M762 51Q762 25 736 25Q710 25 710 51Q710 78 736 78Q762 78 762 51M751 38L747 41Q744 36 736 36Q721 36 721 51Q721 67 736 67Q742 67 747 62L751 66Q743 72 736 72Q716 72 716 51Q716 31 736 31Q744 31 751 38Z"  horiz-adv-x="851" vert-adv-y="1000"  />

      
      <glyph glyph-name="unia5" unicode="&#xa5;" d="M350 718L203 399L292 399L292 358L189 358L189 311L292 311L292 271L189 271L189 3L145-1L145 271L38 271L38 311L145 311L145 358L38 358L38 399L131 399L-18 718L27 718L167 419L305 718L350 718Z"  horiz-adv-x="332" vert-adv-y="1000"  />

      
      <glyph glyph-name="unia7" unicode="&#xa7;" d="M184 274Q184 177 126 90Q100 8 23-64L-4-33Q101 65 101 188Q101 251 53.50 347Q6 443 6 510Q6 605 58 667Q75 731 125 775L153 745Q91 687 91 596Q91 537 136 444Q184 344 184 274M136 211Q145 248 145 281Q145 334 104 424Q87 459 71 496.50Q55 534 56 573Q48 541 48 519Q48 469 76 395Q96 349 116 304Q136 255 136 211Z"  horiz-adv-x="201" vert-adv-y="1000"  />

      
      <glyph glyph-name="unia8" unicode="&#xa8;" d="M317 440Q317 421 303 406.50Q289 392 269 392Q250 392 236 406Q222 420 222 440Q222 460 236 473.50Q250 487 269 487Q289 487 303 473Q317 459 317 440M158 440Q158 421 144 406.50Q130 392 110 392Q91 392 77 406Q63 420 63 440Q63 460 77 473.50Q91 487 110 487Q130 487 144 473Q158 459 158 440Z"  horiz-adv-x="382" vert-adv-y="1000"  />

      
      <glyph glyph-name="unia9" unicode="&#xa9;" d="M418 530Q418 449 361.50 392Q305 335 224 335Q144 335 87.50 392Q31 449 31 530Q31 610 87.50 667Q144 724 224 724Q305 724 361.50 667Q418 610 418 530M386 530Q386 597 338.50 644.50Q291 692 224 692Q157 692 110 644.50Q63 597 63 530Q63 463 110 415.50Q157 368 224 368Q292 368 339 415.50Q386 463 386 530M335 459Q291 399 225 399Q172 399 133.50 437Q95 475 95 529Q95 583 133.50 621Q172 659 225 659Q287 659 332 605L306 584Q273 627 225 627Q185 627 156.50 598.50Q128 570 128 529Q128 488 156.50 459.50Q185 431 225 431Q276 431 309 478L335 459Z"  horiz-adv-x="449" vert-adv-y="1000"  />

      
      <glyph glyph-name="uniaa" unicode="&#xaa;" d="M302 378L260 378L260 388Q229 375 208 375Q154 375 115 409Q73 446 73 500Q73 553 115 590Q155 624 208 624Q234 624 260 612L260 621L302 621L302 378M329 268L68 268L68 310L329 310L329 268M260 430L260 569Q236 582 208 582Q171 582 142.50 558Q114 534 114 500Q114 464 141.50 440Q169 416 208 416Q237 416 260 430Z"  horiz-adv-x="382" vert-adv-y="1000"  />

      
      <glyph glyph-name="uniab" unicode="&#xab;" d="M448 0L117 186L448 371L448 328L193 186L448 42L448 0M331 0L0 186L331 371L331 328L76 186L331 42L331 0Z"  horiz-adv-x="457" vert-adv-y="1000"  />

      
      <glyph glyph-name="uniae" unicode="&#xae;" d="M418 530Q418 449 361.50 392Q305 335 224 335Q144 335 87.50 392Q31 449 31 530Q31 610 87.50 667Q144 724 224 724Q305 724 361.50 667Q418 610 418 530M305 560Q305 589 285 609Q265 629 236 629Q207 629 187 609Q167 589 167 560Q167 531 187 511Q207 491 236 491Q265 491 285 511Q305 531 305 560M386 530Q386 597 338.50 644.50Q291 692 224 692Q157 692 110 644.50Q63 597 63 530Q63 442 135 395L135 646L167 646L167 634Q197 661 236 661Q278 661 308 631Q338 601 338 560Q338 520 310 490.50Q282 461 242 458L311 393Q386 440 386 530M279 378L167 488L167 378Q199 368 224 368Q232 368 279 378Z"  horiz-adv-x="449" vert-adv-y="1000"  />

      
      <glyph glyph-name="unib0" unicode="&#xb0;" d="M224 627Q224 587 196 558.50Q168 530 128 530Q88 530 59.50 558.50Q31 587 31 627Q31 668 59.50 696Q88 724 128 724Q168 724 196 695.50Q224 667 224 627M183 627Q183 650 166.50 666.50Q150 683 128 683Q105 683 88.50 666.50Q72 650 72 627Q72 604 88.50 587.50Q105 571 128 571Q151 571 167 587.50Q183 604 183 627Z"  horiz-adv-x="257" vert-adv-y="1000"  />

      
      <glyph glyph-name="unib4" unicode="&#xb4;" d="M255 492L154 357L124 380L225 515L255 492Z"  horiz-adv-x="377" vert-adv-y="1000"  />

      
      <glyph glyph-name="unib6" unicode="&#xb6;" d="M260 0L219 0L219 703Q209 701 191 695L191 0L150 0L150 283Q88 318 52 374Q13 434 13 503Q13 605 85 675Q155 742 260 751L260 0M150 332L150 675Q107 649 81 601.50Q55 554 55 503Q55 452 81 406Q107 360 150 332Z"  horiz-adv-x="303" vert-adv-y="1000"  />

      
      <glyph glyph-name="unib8" unicode="&#xb8;" d="M298-127Q298-169 267.50-197Q237-225 192-225Q130-225 94-162L129-141Q153-184 192-184Q220-184 238.50-168Q257-152 257-127Q257-102 238.50-86Q220-70 192-70L172-70L172 21L213 21L213-30Q250-37 274-63.50Q298-90 298-127Z"  horiz-adv-x="359" vert-adv-y="1000"  />

      
      <glyph glyph-name="uniba" unicode="&#xba;" d="M316 499Q316 448 279.50 411.50Q243 375 192 375Q141 375 104.50 411.50Q68 448 68 499Q68 550 104.50 586.50Q141 623 192 623Q243 623 279.50 586.50Q316 550 316 499M329 268L54 268L54 310L329 310L329 268M274 499Q274 533 250 556.50Q226 580 192 580Q158 580 134 556.50Q110 533 110 499Q110 465 134 441Q158 417 192 417Q226 417 250 441Q274 465 274 499Z"  horiz-adv-x="382" vert-adv-y="1000"  />

      
      <glyph glyph-name="unibb" unicode="&#xbb;" d="M457 185L126-1L126 41L382 185L126 327L126 370L457 185M340 185L9-1L9 41L265 185L9 327L9 370L340 185Z"  horiz-adv-x="457" vert-adv-y="1000"  />

      
      <glyph glyph-name="unibf" unicode="&#xbf;" d="M271 666Q271 642 253.50 624.50Q236 607 211 607Q187 607 169 624.50Q151 642 151 666Q151 689 169 706.50Q187 724 211 724Q236 724 253.50 706.50Q271 689 271 666M414 180Q414 104 356.50 50Q299-4 219-4Q138-4 80.50 50Q23 104 23 180Q23 259 113 343Q190 414 190 457L190 575L231 575L231 457Q231 411 188 362Q148 320 107 279Q64 228 64 180Q64 120 109 78Q154 36 219 36Q283 36 328 78.50Q373 121 373 180Q373 262 287 310L307 345Q414 285 414 180Z"  horiz-adv-x="437" vert-adv-y="1000"  />

      
      <glyph glyph-name="uniaf" unicode="&#xaf;" d="M279 452L80 452L80 493L279 493L279 452Z"  horiz-adv-x="359" vert-adv-y="1000"  />

      
      <glyph glyph-name="unib5" unicode="&#xb5;" d="M198 8L172-24Q33 90 30 356Q27 617 172 736L198 704Q71 590 71 356Q71 122 198 8Z"  horiz-adv-x="232" vert-adv-y="1000"  />

      
      <glyph glyph-name="uni2013" unicode="&#x2013;" d="M305 268L30 268L30 310L305 310L305 268Z"  horiz-adv-x="335" vert-adv-y="1000"  />

      
      <glyph glyph-name="uni2014" unicode="&#x2014;" d="M420 268L30 268L30 310L420 310L420 268Z"  horiz-adv-x="450" vert-adv-y="1000"  />

      
      <glyph glyph-name="uni2018" unicode="&#x2018;" d="M141 731L95 670Q137 657 137 614Q137 590 120 573Q103 556 78 556Q54 556 37 573Q20 590 20 614Q20 633 35 653L94 731L141 731Z"  horiz-adv-x="157" vert-adv-y="1000"  />

      
      <glyph glyph-name="uni2019" unicode="&#x2019;" d="M137 671Q137 653 122 633L64 555L16 555L61 616Q20 628 20 671Q20 696 37 713Q54 730 79 730Q103 730 120 713Q137 696 137 671Z"  horiz-adv-x="157" vert-adv-y="1000"  />

      
      <glyph glyph-name="uni201A" unicode="&#x201A;" d="M137 54Q137 36 122 16L64-62L16-62L61-1Q20 11 20 54Q20 79 37 96Q54 113 79 113Q103 113 120 96Q137 79 137 54Z"  horiz-adv-x="157" vert-adv-y="1000"  />

      
      <glyph glyph-name="uni201C" unicode="&#x201C;" d="M281 731L236 670Q276 656 276 614Q276 590 259 573Q242 556 218 556Q194 556 177 573Q160 590 160 614Q160 633 175 653L233 731L281 731M141 731L95 670Q137 657 137 614Q137 590 120 573Q103 556 78 556Q54 556 37 573Q20 590 20 614Q20 633 35 653L94 731L141 731Z"  horiz-adv-x="296" vert-adv-y="1000"  />

      
      <glyph glyph-name="uni201D" unicode="&#x201D;" d="M277 671Q277 653 262 633L203 555L156 555L201 616Q160 628 160 671Q160 696 177 713Q194 730 219 730Q243 730 260 713Q277 696 277 671M137 671Q137 653 122 633L64 555L16 555L61 616Q20 628 20 671Q20 696 37 713Q54 730 79 730Q103 730 120 713Q137 696 137 671Z"  horiz-adv-x="297" vert-adv-y="1000"  />

      
      <glyph glyph-name="uni201E" unicode="&#x201E;" d="M275 54Q275 36 260 16L201-62L154-62L199-1Q158 11 158 54Q158 79 175 96Q192 113 217 113Q241 113 258 96Q275 79 275 54M137 54Q137 36 122 16L64-62L16-62L61-1Q20 11 20 54Q20 79 37 96Q54 113 79 113Q103 113 120 96Q137 79 137 54Z"  horiz-adv-x="295" vert-adv-y="1000"  />

      
      <glyph glyph-name="uni2020" unicode="&#x2020;" d="M356 573Q356 548 338.50 531Q321 514 297 514Q274 514 257.50 528Q241 542 239 564L203 564L203 510L261 510L261 501Q261 213 195-19Q126 213 126 501L126 510L185 510L185 564L149 564Q146 542 129.50 528Q113 514 91 514Q66 514 48.50 531Q31 548 31 573Q31 597 48.50 614.50Q66 632 91 632Q113 632 129 618Q145 604 149 582L185 582L185 617Q163 621 149 637.50Q135 654 135 676Q135 701 152 718.50Q169 736 194 736Q218 736 235.50 718.50Q253 701 253 676Q253 654 238.50 637.50Q224 621 203 617L203 582L239 582Q242 604 258.50 618Q275 632 297 632Q321 632 338.50 614.50Q356 597 356 573M235 676Q235 693 223 705.50Q211 718 194 718Q177 718 164.50 705.50Q152 693 152 676Q152 643 185 636L185 676L203 676L203 636Q235 643 235 676M338 573Q338 590 326 602Q314 614 297 614Q264 614 257 582L297 582L297 564L257 564Q262 532 297 532Q314 532 326 544Q338 556 338 573M131 564L91 564L91 582L131 582Q122 614 91 614Q74 614 61.50 602Q49 590 49 573Q49 556 61.50 544Q74 532 91 532Q124 532 131 564M243 492L203 492L203 254L185 254L185 492L144 492Q146 248 195 50Q241 248 243 492M203 212L185 212L185 230L203 230L203 212Z"  horiz-adv-x="388" vert-adv-y="1000"  />

      
      <glyph glyph-name="uni2021" unicode="&#x2021;" d="M366 100Q366 76 348.50 58.50Q331 41 307 41Q285 41 268.50 55Q252 69 249 91L213 91L213 56Q234 53 248.50 36Q263 19 263-3Q263-27 245.50-44.50Q228-62 204-62Q179-62 162-44.50Q145-27 145-3Q145 20 159 36.50Q173 53 195 56L195 91L159 91Q155 69 138.50 55Q122 41 101 41Q76 41 58.50 58.50Q41 76 41 100Q41 125 58.50 142Q76 159 101 159Q123 159 139.50 145Q156 131 159 109L195 109L195 163L136 163L136 172Q136 190 142 278Q143 295 145 337L142 394Q136 482 136 501L136 510L195 510L195 564L159 564Q156 542 139.50 528Q123 514 101 514Q76 514 58.50 531Q41 548 41 573Q41 597 58.50 614.50Q76 632 101 632Q122 632 138.50 618Q155 604 159 582L195 582L195 617Q173 621 159 637.50Q145 654 145 676Q145 701 162 718.50Q179 736 204 736Q228 736 245.50 718.50Q263 701 263 676Q263 654 248.50 637.50Q234 621 213 617L213 582L249 582Q252 604 268.50 618Q285 632 307 632Q331 632 348.50 614.50Q366 597 366 573Q366 548 348.50 531Q331 514 307 514Q284 514 267.50 528Q251 542 249 564L213 564L213 510L271 510L271 501Q271 495 266 395Q265 378 262 337Q264 317 266 279Q271 179 271 172L271 163L213 163L213 109L249 109Q251 131 267.50 145Q284 159 307 159Q331 159 348.50 142Q366 125 366 100M245 676Q245 693 233 705.50Q221 718 204 718Q187 718 174.50 705.50Q162 693 162 676Q162 643 195 636L195 676L213 676L213 636Q245 643 245 676M348 573Q348 590 336 602Q324 614 307 614Q274 614 267 582L307 582L307 564L267 564Q274 532 307 532Q324 532 336 544Q348 556 348 573M141 564L101 564L101 582L141 582Q133 614 101 614Q84 614 71.50 602Q59 590 59 573Q59 556 71.50 544Q84 532 101 532Q133 532 141 564M253 181Q253 199 247 283L243 337L248 397Q253 467 253 492L213 492L213 375L195 375L195 492L154 492Q154 468 161 390Q162 375 164 337Q163 316 160 276Q154 208 154 181L195 181L195 299L213 299L213 181L253 181M348 100Q348 117 336 129Q324 141 307 141Q274 141 267 109L307 109L307 91L267 91Q274 59 307 59Q324 59 336 71.50Q348 84 348 100M141 91L101 91L101 109L141 109Q133 141 101 141Q84 141 71.50 129Q59 117 59 100Q59 83 71.50 71Q84 59 101 59Q133 59 141 91M245-3Q245 32 213 37L213-3L195-3L195 37Q162 32 162-3Q162-20 174.50-32Q187-44 204-44Q221-44 233-32Q245-20 245-3M213 329L195 329L195 347L213 347L213 329Z"  horiz-adv-x="408" vert-adv-y="1000"  />

      
      <glyph glyph-name="uni2022" unicode="&#x2022;" d="M194 385L131 322L68 385L131 448L194 385Z"  horiz-adv-x="262" vert-adv-y="1000"  />

      
      <glyph glyph-name="uni2026" unicode="&#x2026;" d="M441 49Q441 25 424 8Q407-9 382-9Q358-9 341 8Q324 25 324 49Q324 74 341 91Q358 108 382 108Q407 108 424 91Q441 74 441 49M288 49Q288 25 271 8Q254-9 229-9Q205-9 188 8Q171 25 171 49Q171 74 188 91Q205 108 229 108Q254 108 271 91Q288 74 288 49M135 49Q135 25 118 8Q101-9 76-9Q52-9 35 8Q18 25 18 49Q18 74 35 91Q52 108 76 108Q101 108 118 91Q135 74 135 49Z"  horiz-adv-x="457" vert-adv-y="1000"  />

      
      <glyph glyph-name="uni2030" unicode="&#x2030;" d="M260 718L99 0L56 0L205 656Q183 646 162 646Q143 646 114.50 657.50Q86 669 75 669Q62 669 53 659Q44 649 44 636Q44 623 54 614Q64 605 78 605Q109 605 113 643L154 637Q149 603 127.50 584Q106 565 77 565Q48 565 25.50 586Q3 607 3 636Q3 664 24 686Q45 708 75 708Q95 708 122 697.50Q149 687 159 687Q184 687 224 718L260 718M438 68Q438 39 416 17.50Q394-4 363-4Q306-4 291 48Q274-4 218-4Q187-4 165 17.50Q143 39 143 68Q143 99 165 120.50Q187 142 218 142Q273 142 291 90Q298 112 318 127Q338 142 363 142Q394 142 416 120.50Q438 99 438 68M397 68Q397 82 387 92Q377 102 363 102Q349 102 339 92Q329 82 329 68Q329 36 363 36Q397 36 397 68M252 68Q252 82 242 92Q232 102 218 102Q204 102 194 92Q184 82 184 68Q184 36 218 36Q252 36 252 68Z"  horiz-adv-x="435" vert-adv-y="1000"  />

      
      <glyph glyph-name="uni2039" unicode="&#x2039;" d="M358 0L27 186L358 371L358 328L103 186L358 42L358 0Z"  horiz-adv-x="385" vert-adv-y="1000"  />

      
      <glyph glyph-name="uni203A" unicode="&#x203A;" d="M358 186L27 0L27 42L283 186L27 328L27 371L358 186Z"  horiz-adv-x="385" vert-adv-y="1000"  />

      
      <glyph glyph-name="uni2122" unicode="&#x2122;" d="M394 490L362 490L362 610Q362 620 353 628Q344 636 333 636Q310 636 310 619L310 490L277 490L277 619Q277 636 255 636Q225 636 225 610L225 490L193 490L193 610Q193 635 211.50 651.50Q230 668 255 668Q275 668 294 654Q310 668 333 668Q357 668 375.50 651.50Q394 635 394 610L394 490M187 630L144 630L144 490L111 490L111 630L67 630L67 662L187 662L187 630Z"  horiz-adv-x="459" vert-adv-y="1000"  />

      
      <glyph glyph-name="unib7" unicode="&#xb7;" d="M156 362Q156 337 139 320Q122 303 98 303Q74 303 56.50 320Q39 337 39 362Q39 386 56.50 403Q74 420 98 420Q122 420 139 403Q156 386 156 362Z"  horiz-adv-x="196" vert-adv-y="1000"  />

      
      <glyph glyph-name="uni0410" unicode="&#x0410;" d="M695 7L655-8L581 154L117 154L43-8L3 7L71 154L10 154L10 194L89 194L349 757L609 194L688 194L688 154L627 154L695 7M562 194L349 659L136 194L562 194Z"  horiz-adv-x="698" vert-adv-y="1000"  />

      
      <glyph glyph-name="uni0412" unicode="&#x0412;" d="M205 156Q205 94 162 47Q119 0 55 0L26 0L26 718L66 718Q128 685 164 627Q200 566 200 493Q200 373 112 298Q154 279 179.50 240.50Q205 202 205 156M158 493Q158 549 133.50 597Q109 645 67 670L67 312Q158 375 158 493M164 156Q164 197 135.50 231.50Q107 266 67 271L67 42Q105 44 134.50 78.50Q164 113 164 156Z"  horiz-adv-x="237" vert-adv-y="1000"  />

      
      <glyph glyph-name="uni0413" unicode="&#x0413;" d="M173 600L130 600L130 654Q130 677 103 677L68 677L68 0L26 0L26 718L103 718Q173 718 173 654L173 600Z"  horiz-adv-x="200" vert-adv-y="1000"  />

      
      <glyph glyph-name="uni0415" unicode="&#x0415;" d="M87 678L88 312L169 312L169 273L88 273L88 39L177 40L177 0L46 0L46 718L177 718L177 678L88 679L87 678Z"  horiz-adv-x="217" vert-adv-y="1000"  />

      
      <glyph glyph-name="uni0417" unicode="&#x0417;" d="M430 253Q430 200 410 153.50Q390 107 357 72.50Q324 38 280.50 18Q237-2 190-2Q155-2 116 12Q77 26 47 55Q25 79 17.50 105.50Q10 132 13.50 156.50Q17 181 30 201Q43 221 63 232.50Q83 244 108 244Q133 244 160 229L147 194Q128 207 110.50 206.50Q93 206 79.50 196.50Q66 187 58.50 171.50Q51 156 51 140Q51 115 65.50 96Q80 77 101.50 64.50Q123 52 147 46Q171 40 190 40Q229 40 265 56.50Q301 73 328.50 102Q356 131 372.50 170Q389 209 389 253Q388 295 370.50 331Q353 367 324.50 393.50Q296 420 257.50 436Q219 452 176 454L184 492Q203 488 216 488Q248 488 269 503Q290 518 299.50 540Q309 562 307.50 588Q306 614 293.50 635Q281 656 258.50 669Q236 682 204 679Q190 677 177.50 670Q165 663 156.50 651Q148 639 145.50 623.50Q143 608 149 590L106 590Q99 615 103.50 637.50Q108 660 121 676.50Q134 693 153.50 703Q173 713 197 715Q231 718 259.50 709Q288 700 308.50 682.50Q329 665 340.50 639.50Q352 614 352 583Q352 500 283 467Q357 429 393.50 378.50Q430 328 430 253Z"  horiz-adv-x="451" vert-adv-y="1000"  />

      
      <glyph glyph-name="uni042F" unicode="&#x042F;" d="M15 36Q41 36 59.50 54.50Q78 73 78 101L78 312L128 312Q55 387 55 493Q55 566 91 627Q127 685 189 718L229 718L229 0L188 0L188 272L119 272L119 101Q119 55 89 25.50Q59-4 15-4L15 36M97 493Q97 375 188 312L188 671Q97 611 97 493Z"  horiz-adv-x="259" vert-adv-y="1000"  />

      
      <glyph glyph-name="uni041D" unicode="&#x041D;" d="M267 273L220 273L220 0L178 0L178 273L98 273L98 0L56 0L56 273L8 273L8 312L56 312L56 718L98 718L98 312L178 312L178 718L220 718L220 312L267 312L267 273Z"  horiz-adv-x="281" vert-adv-y="1000"  />

      
      <glyph glyph-name="uni0418" unicode="&#x0418;" d="M151 547L71 403L71 0L29 0L29 718L71 718L71 487L193 718L193 0L151 0L151 547Z"  horiz-adv-x="224" vert-adv-y="1000"  />

      
      <glyph glyph-name="uni0416" unicode="&#x0416;" d="M201 273L130 273L130 102Q130 56 100 26.50Q70-3 26-3L26 37Q51 37 70 56.50Q89 76 89 102L89 313L161 313L50 719L92 719L201 329L201 719L242 719L242 329L351 719L393 719L282 313L354 313L354 102Q354 76 373 56.50Q392 37 417 37L417-3Q373-3 343 26.50Q313 56 313 102L313 273L242 273L242 1L201 1L201 273Z"  horiz-adv-x="444" vert-adv-y="1000"  />

      
      <glyph glyph-name="uni0411" unicode="&#x0411;" d="M75 677L75 557Q130 554 181.50 531Q233 508 273.50 471.50Q314 435 338.50 386Q363 337 363 282Q363 226 338.50 176.50Q314 127 273.50 89Q233 51 181 27.50Q129 4 75 0L33 0L33 718L213 718L213 677L75 677M320 283Q320 332 299.50 373.50Q279 415 245.50 446.50Q212 478 167.50 497.50Q123 517 75 520L75 41Q123 45 167.50 65Q212 85 245.50 117Q279 149 299.50 191.50Q320 234 320 283Z"  horiz-adv-x="388" vert-adv-y="1000"  />

      
      <glyph glyph-name="uni0414" unicode="&#x0414;" d="M75 0Q48 0 48-23L48-76L5-76L5-22Q5 42 75 42L88 42L140 154L418 757L753 39L755 39Q825 39 825-25L825-79L782-79L782-25Q782 0 755 0L75 0M186 154L134 42L706 39L418 659L186 154Z"  horiz-adv-x="839" vert-adv-y="1000"  />

      
      <glyph glyph-name="uni45" unicode="&#x45;" d="M71 678L72 312L129 312L129 273L72 273L72 39L161 40L161 0L30 0L30 718L161 718L161 678L72 679L71 678Z"  horiz-adv-x="198" vert-adv-y="1000"  />

      
      <glyph glyph-name="uni0419" unicode="&#x0419;" d="M151 547L71 403L71 0L29 0L29 718L71 718L71 487L193 718L193 0L151 0L151 547M165 815L165 774L66 774L67 815L165 815Z"  horiz-adv-x="224" vert-adv-y="1000"  />

      
      <glyph glyph-name="uni041A" unicode="&#x041A;" d="M35 719L76 719L76 329L185 719L227 719L116 313L188 313L188 102Q188 76 207 56.50Q226 37 251 37L251-3Q207-3 177 26.50Q147 56 147 102L147 273L76 273L76 1L35 1L35 719Z"  horiz-adv-x="285" vert-adv-y="1000"  />

      
      <glyph glyph-name="uni041B" unicode="&#x041B;" d="M222 0L180 0L180 620Q180 651 165.50 669Q151 687 129 687Q107 687 92.50 669Q78 651 78 620L78 0L37 0L37 620Q37 663 62.50 695Q88 727 129 727Q170 727 196 695Q222 663 222 620L222 0Z"  horiz-adv-x="261" vert-adv-y="1000"  />

      
      <glyph glyph-name="uni041C" unicode="&#x041C;" d="M381 315L254 636L43-7L4 4L249 751L380 427L512 750L757 3L718-8L507 635L381 315Z"  horiz-adv-x="766" vert-adv-y="1000"  />

      
      <glyph glyph-name="uni041E" unicode="&#x041E;" d="M786 358Q786 202 674.50 91Q563-20 408-20Q252-20 141 91.50Q30 203 30 359Q30 467 85 553Q145 645 245 669Q306 736 408 736Q564 736 675 625.50Q786 515 786 358M743 358Q743 497 645 596Q547 695 408 695Q357 695 316 674Q343 674 360 669L351 629Q327 636 298 636Q289 636 271 634Q250 608 238 567L200 580L216 617Q150 589 109 509Q73 437 73 358Q73 220 171.50 120.50Q270 21 408 21Q546 21 644.50 120.50Q743 220 743 358Z"  horiz-adv-x="816" vert-adv-y="1000"  />

      
      <glyph glyph-name="uni041F" unicode="&#x041F;" d="M269 678L222 678L223 0L181 0L180 678L100 678L101 0L59 0L58 678L10 678L10 717L269 717L269 678Z"  horiz-adv-x="281" vert-adv-y="1000"  />

      
      <glyph glyph-name="uni0420" unicode="&#x0420;" d="M229 493Q229 422 193 360.50Q157 299 96 268L96 0L54 0L54 718L95 718Q157 685 193 627Q229 566 229 493M187 493Q187 611 96 672L96 312Q187 375 187 493Z"  horiz-adv-x="235" vert-adv-y="1000"  />

      
      <glyph glyph-name="uni0421" unicode="&#x0421;" d="M685 101Q575-20 408-20Q251-20 140.50 91Q30 202 30 358Q30 515 140.50 625.50Q251 736 408 736Q539 736 539 637Q539 617 535 605L491 605Q495 617 495 633Q495 695 408 695Q269 695 171 596Q73 497 73 358Q73 219 171 120Q269 21 408 21Q554 21 654 129L685 101Z"  horiz-adv-x="690" vert-adv-y="1000"  />

      
      <glyph glyph-name="uni0422" unicode="&#x0422;" d="M215 678L142 678L142 0L100 0L100 678L27 678L27 718L215 718L215 678Z"  horiz-adv-x="239" vert-adv-y="1000"  />

      
      <glyph glyph-name="uni0424" unicode="&#x0424;" d="M420 70Q482 67 538.50 89.50Q595 112 638.50 152Q682 192 708 246Q734 300 734 361Q734 422 708 476Q682 530 639 569.50Q596 609 539 631.50Q482 654 421 651L420 70M379 1L379 33Q310 30 245.50 55Q181 80 130.50 125.50Q80 171 50 232Q20 293 20 361Q20 430 50 491Q80 552 129.50 597Q179 642 244 667Q309 692 378 689L378 719L421 719L421 689Q490 692 555 667Q620 642 669.50 597Q719 552 749 491Q779 430 779 361Q779 293 749 232Q719 171 668.50 125.50Q618 80 553.50 55Q489 30 420 33L420 1L378 1L379 1M378 651Q316 654 259.50 631.50Q203 609 159 569.50Q115 530 89 476Q63 422 63 361Q63 300 91.50 245Q120 190 165 149Q210 108 266.50 85.50Q323 63 379 68L378 651Z"  horiz-adv-x="802" vert-adv-y="1000"  />

      
      <glyph glyph-name="uni0425" unicode="&#x0425;" d="M254 3L213-6L143 321L73-6L33 3L122 416L57 715L98 727L143 514L188 727L228 715L164 419L254 3Z"  horiz-adv-x="286" vert-adv-y="1000"  />

      
      <glyph glyph-name="uni0426" unicode="&#x0426;" d="M192 1L193 0L151 0L150 1L70 1L71 0L29 0L28 1L29 718L71 718L70 40L150 40L151 718L193 718L192 40Q262 40 262-24L262-78L219-78L219-24Q219-1 192-1L192 1Z"  horiz-adv-x="280" vert-adv-y="1000"  />

      
      <glyph glyph-name="uni0427" unicode="&#x0427;" d="M210 0L168 0L168 302Q157 290 144 282Q131 274 118 274Q100 274 83.50 280Q67 286 54.50 299Q42 312 34 331Q26 350 26 376L25 717L66 717L67 376Q67 344 83 327.50Q99 311 118 311Q135 311 149.50 327Q164 343 168 368L168 718L210 718L210 0Z"  horiz-adv-x="241" vert-adv-y="1000"  />

      
      <glyph glyph-name="uni0429" unicode="&#x0429;" d="M154 719L196 719L195 41L275 41L276 719L318 719L317 41Q387 41 387-23L387-77L344-77L344-23Q344 0 317 0L317 2L318 1L30 0L29 1L30 721L72 721L74 40L151 40L152 718L154 719Z"  horiz-adv-x="412" vert-adv-y="1000"  />

      
      <glyph glyph-name="uni0428" unicode="&#x0428;" d="M287 719Q308 662 311.50 606.50Q315 551 309.50 496.50Q304 442 294 387Q284 332 278.50 275.50Q273 219 276 160.50Q279 102 300 40L479 40L479 718L522 718L522-1L521 0L29 0L29 721L72 721L72 40L257 40Q235 108 232.50 170.50Q230 233 236.50 291.50Q243 350 254 404.50Q265 459 270.50 511.50Q276 564 272 615Q268 666 244 718L287 719Z"  horiz-adv-x="561" vert-adv-y="1000"  />

      
      <glyph glyph-name="uni042E" unicode="&#x042E;" d="M904 361Q904 205 792.50 94Q681-17 526-17Q370-17 259 94Q181 173 158 273L101 273L101 0L59 0L59 273L11 273L11 312L59 312L59 718L101 718L101 312L151 312Q148 336 148 362Q148 470 203 556Q263 648 363 672Q424 739 526 739Q682 739 793 628.50Q904 518 904 361M861 361Q861 500 763 599Q665 698 526 698Q475 698 434 677Q461 677 478 672L469 632Q445 639 416 639Q407 639 389 637Q368 611 356 570L318 583L334 620Q268 592 227 512Q191 440 191 361Q191 336 194 312L270 312L270 273L202 273Q224 190 289 123Q388 24 526 24Q664 24 762.50 123.50Q861 223 861 361Z"  horiz-adv-x="937" vert-adv-y="1000"  />

      
      <glyph glyph-name="uni042C" unicode="&#x042C;" d="M35 0L35 718L77 718L77 533Q147 496 190 423Q232 349 232 266Q232 180 190 108Q148 39 76 0L35 0M189 266Q189 337 160 393Q131 449 77 487L77 47Q131 84 160 140Q189 196 189 266Z"  horiz-adv-x="263" vert-adv-y="1000"  />

      
      <glyph glyph-name="uni042B" unicode="&#x042B;" d="M30 0L30 718L72 718L72 533Q142 496 185 423Q227 349 227 266Q227 180 185 108Q143 39 71 0L30 0M184 266Q184 337 155 393Q126 449 72 487L72 47Q126 84 155 140Q184 196 184 266M319-1L277-1L277 717L319 717L319-1Z"  horiz-adv-x="351" vert-adv-y="1000"  />

      
      <glyph glyph-name="uni042A" unicode="&#x042A;" d="M133 679L101 679Q74 679 74 656L74 602L31 602L31 656Q31 720 101 718L174 718L174 533Q244 496 287 423Q329 349 329 266Q329 180 287 108Q245 39 173 0L132 0L133 679M286 266Q286 337 257 393Q228 449 174 487L174 47Q228 84 257 140Q286 196 286 266Z"  horiz-adv-x="361" vert-adv-y="1000"  />

      
      <glyph glyph-name="uni042D" unicode="&#x042D;" d="M281 717Q329 711 366.50 691.50Q404 672 436 643Q494 589 521 510Q548 431 544 343Q541 271 514 206Q487 141 441 92.50Q395 44 332.50 15.50Q270-13 195-13Q160-13 121 1Q82 15 52 44Q30 68 22.50 94.50Q15 121 18.50 145.50Q22 170 35 190Q48 210 68 221.50Q88 233 113 233Q138 233 165 218L152 183Q133 196 115.50 195.50Q98 195 84.50 185.50Q71 176 63.50 160.50Q56 145 56 129Q56 104 70.50 84.50Q85 65 106.50 51.50Q128 38 152 31Q176 24 195 24Q270 25 331 59Q392 93 433 149Q463 191 480.50 242.50Q498 294 498 349L241 349L241 388L497 388Q499 428 487 470Q475 512 453.50 550Q432 588 401.50 618Q371 648 334.50 663.50Q298 679 258 676.50Q218 674 177 647Q152 630 136 604.50Q120 579 115 541L71 540Q75 584 92.50 617.50Q110 651 138 673.50Q166 696 202.50 707Q239 718 281 717Z"  horiz-adv-x="566" vert-adv-y="1000"  />

      
      <glyph glyph-name="uni63" unicode="&#x63;" d="M685 101Q575-20 408-20Q251-20 140.50 91Q30 202 30 358Q30 515 140.50 625.50Q251 736 408 736Q539 736 539 637Q539 617 535 605L491 605Q495 617 495 633Q495 695 408 695Q269 695 171 596Q73 497 73 358Q73 219 171 120Q269 21 408 21Q554 21 654 129L685 101Z"  horiz-adv-x="690" vert-adv-y="1000"  />

      
      <glyph glyph-name="uni64" unicode="&#x64;" d="M275 359Q275 249 228 155Q178 55 88 0L54 0L54 718L88 718Q178 663 228 563Q275 469 275 359M232 359Q232 449 199 526Q163 612 95 660L95 58Q163 106 199 192Q232 269 232 359Z"  horiz-adv-x="305" vert-adv-y="1000"  />

      
      <glyph glyph-name="uni65" unicode="&#x65;" d="M95 678L96 312L153 312L153 273L96 273L96 39L185 40L185 0L54 0L54 718L185 718L185 678L96 679L95 678Z"  horiz-adv-x="202" vert-adv-y="1000"  />

      
      <glyph glyph-name="uni66" unicode="&#x66;" d="M209 600L166 600L166 654Q166 677 139 677L104 677L104 312L157 312L157 273L104 273L104 0L62 0L62 273L11 273L11 312L62 312L62 718L139 718Q209 718 209 654L209 600Z"  horiz-adv-x="201" vert-adv-y="1000"  />

      
      <glyph glyph-name="uni67" unicode="&#x67;" d="M691 0L650 0L650 47Q550-20 409-20Q253-20 141.50 91Q30 202 30 358Q30 515 141.50 625.50Q253 736 409 736Q540 736 540 635Q540 615 536 603L492 603Q496 615 496 631Q496 694 409 694Q270 694 172.50 595.50Q75 497 75 358Q75 220 172.50 122Q270 24 409 24Q555 24 650 101L650 269Q650 273 645 273L534 273L534 313L645 313Q691 313 691 269L691 0Z"  horiz-adv-x="737" vert-adv-y="1000"  />

      
      <glyph glyph-name="uni68" unicode="&#x68;" d="M270 273L223 273L223 0L181 0L181 273L101 273L101 0L59 0L59 273L11 273L11 312L59 312L59 718L101 718L101 312L181 312L181 718L223 718L223 312L270 312L270 273Z"  horiz-adv-x="281" vert-adv-y="1000"  />

      
      <glyph glyph-name="uni69" unicode="&#x69;" d="M100 0L58 0L58 677L14 677L14 718L70 718Q100 718 100 689L100 0Z"  horiz-adv-x="154" vert-adv-y="1000"  />

      
      <glyph glyph-name="uni6a" unicode="&#x6a;" d="M125 98Q125-50-9-70L-27-32Q83-17 83 98L83 677L24 677L24 718L95 718Q125 718 125 689L125 98Z"  horiz-adv-x="179" vert-adv-y="1000"  />

      
      <glyph glyph-name="uni6b" unicode="&#x6b;" d="M28 719L69 719L69 329L178 719L220 719L109 313L181 313L181 102Q181 76 200 56.50Q219 37 244 37L244-3Q200-3 170 26.50Q140 56 140 102L140 273L69 273L69 1L28 1L28 719Z"  horiz-adv-x="261" vert-adv-y="1000"  />

      
      <glyph glyph-name="uni6c" unicode="&#x6c;" d="M162 0L54 0L54 718L95 718L95 40L162 40L162 0Z"  horiz-adv-x="166" vert-adv-y="1000"  />

      
      <glyph glyph-name="uni70" unicode="&#x70;" d="M229 493Q229 422 193 360.50Q157 299 96 268L96 0L54 0L54 718L95 718Q157 685 193 627Q229 566 229 493M187 493Q187 611 96 672L96 312Q187 375 187 493Z"  horiz-adv-x="235" vert-adv-y="1000"  />

      
      <glyph glyph-name="uni71" unicode="&#x71;" d="M786 358Q786 267 744 185Q703 107 632 54Q673 34 731 38L731-3Q716-4 707-4Q647-7 594 29Q507-20 408-20Q252-20 141 91.50Q30 203 30 359Q30 467 85 553Q145 645 245 669Q306 736 408 736Q564 736 675 625.50Q786 515 786 358M743 358Q743 497 645 596Q547 695 408 695Q357 695 316 674Q343 674 360 669L351 629Q327 636 298 636Q289 636 271 634Q250 608 238 567L200 580L216 617Q150 589 109 509Q73 437 73 358Q73 220 171.50 120.50Q270 21 408 21Q487 21 561 58Q511 111 507 189L549 189Q552 121 596 80Q664 126 703.50 200Q743 274 743 358Z"  horiz-adv-x="816" vert-adv-y="1000"  />

      
      <glyph glyph-name="uni72" unicode="&#x72;" d="M268-4Q224-4 194 25.50Q164 55 164 101L164 272L95 272L95 0L54 0L54 718L94 718Q156 685 192 627Q228 566 228 493Q228 387 155 312L205 312L205 101Q205 73 223.50 54.50Q242 36 268 36L268-4M186 493Q186 611 95 671L95 312Q186 375 186 493Z"  horiz-adv-x="279" vert-adv-y="1000"  />

      
      <glyph glyph-name="uni73" unicode="&#x73;" d="M145 239Q145 88 14-19L-11 13Q105 108 105 239Q105 298 67 392.50Q29 487 29 549Q29 667 113 736L140 706Q70 648 70 549Q70 486 107.50 401Q145 316 145 239Z"  horiz-adv-x="182" vert-adv-y="1000"  />

      
      <glyph glyph-name="uni74" unicode="&#x74;" d="M181 678L108 678L108 0L66 0L66 678L-7 678L-7 718L181 718L181 678Z"  horiz-adv-x="174" vert-adv-y="1000"  />

      
      <glyph glyph-name="uni75" unicode="&#x75;" d="M239 103Q239 60 212.50 28Q186-4 146-4Q107-4 80.50 28Q54 60 54 103L54 718L95 718L95 103Q95 74 111 55.50Q127 37 146 37Q166 37 181.50 55.50Q197 74 197 103L197 718L239 718L239 103Z"  horiz-adv-x="293" vert-adv-y="1000"  />

      
      <glyph glyph-name="uni76" unicode="&#x76;" d="M675 710L328-21L-18 713L20 729L328 76L638 726L675 710Z"  horiz-adv-x="657" vert-adv-y="1000"  />

      
      <glyph glyph-name="uni77" unicode="&#x77;" d="M809 712L457-21L396 120L332-21L-18 714L20 730L332 79L374 171L122 714L160 730L396 221L637 727L675 711L419 171L457 79L771 728L809 712Z"  horiz-adv-x="791" vert-adv-y="1000"  />

      
      <glyph glyph-name="uni78" unicode="&#x78;" d="M254 3L213-6L143 321L73-6L33 3L122 416L57 715L98 727L143 514L188 727L228 715L164 419L254 3Z"  horiz-adv-x="286" vert-adv-y="1000"  />

      
      <glyph glyph-name="uni79" unicode="&#x79;" d="M271 712L150 358L150 0L108 0L108 358L-16 712L23 727L129 422L232 727L271 712Z"  horiz-adv-x="250" vert-adv-y="1000"  />

      
      <glyph glyph-name="uni7a" unicode="&#x7a;" d="M235 718L68 40L204 40L204 0L13 0L180 678L111 678Q84 678 84 654L84 600L42 600L42 654Q42 718 111 718L235 718Z"  horiz-adv-x="232" vert-adv-y="1000"  />

      
      <glyph glyph-name="uni0406" unicode="&#x0406;" d="M100 0L58 0L58 677L14 677L14 718L70 718Q100 718 100 689L100 0Z"  horiz-adv-x="154" vert-adv-y="1000"  />

      
      <glyph glyph-name="uni0456" unicode="&#x0456;" d="M100 0L58 0L58 677L14 677L14 718L70 718Q100 718 100 689L100 0Z"  horiz-adv-x="154" vert-adv-y="1000"  />

      
      <glyph glyph-name="uni0407" unicode="&#x0407;" d="M100 0L58 0L58 677L14 677L14 718L70 718Q100 718 100 689L100 0M185 818Q185 799 171 784.50Q157 770 137 770Q118 770 104 784Q90 798 90 818Q90 838 104 851.50Q118 865 137 865Q157 865 171 851Q185 837 185 818M26 818Q26 799 12 784.50Q-2 770-22 770Q-41 770-55 784Q-69 798-69 818Q-69 838-55 851.50Q-41 865-22 865Q-2 865 12 851Q26 837 26 818Z"  horiz-adv-x="144" vert-adv-y="1000"  />

      
      <glyph glyph-name="uni0491" unicode="&#x0491;" d="M68 677L68 0L26 0L26 718L103 718Q130 718 130 741L130 795L173 795L173 741Q173 677 103 677L68 677Z"  horiz-adv-x="200" vert-adv-y="1000"  />

      
      <glyph glyph-name="uni0490" unicode="&#x0490;" d="M68 677L68 0L26 0L26 718L103 718Q130 718 130 741L130 795L173 795L173 741Q173 677 103 677L68 677Z"  horiz-adv-x="200" vert-adv-y="1000"  />

      
      <glyph glyph-name="uni0457" unicode="&#x0457;" d="M100 0L58 0L58 677L14 677L14 718L70 718Q100 718 100 689L100 0M185 818Q185 799 171 784.50Q157 770 137 770Q118 770 104 784Q90 798 90 818Q90 838 104 851.50Q118 865 137 865Q157 865 171 851Q185 837 185 818M26 818Q26 799 12 784.50Q-2 770-22 770Q-41 770-55 784Q-69 798-69 818Q-69 838-55 851.50Q-41 865-22 865Q-2 865 12 851Q26 837 26 818Z"  horiz-adv-x="144" vert-adv-y="1000"  />

      
      <glyph glyph-name="uni0404" unicode="&#x0404;" d="M61 345Q64 278 91 219Q118 160 163 116Q208 72 268 46.50Q328 21 396 21Q541 21 642 129L673 101Q564-20 396-20Q318-20 249 10Q180 40 129 91Q78 142 48 211Q18 280 18 358Q18 437 48 506Q78 575 129.50 626Q181 677 250 706.50Q319 736 396 736Q527 736 527 637Q527 616 523 605L479 605Q483 616 483 633Q483 695 396 695Q330 695 271 670.50Q212 646 167.50 604Q123 562 95 505Q67 448 62 384L365 384L365 345L61 345Z"  horiz-adv-x="690" vert-adv-y="1000"  />

      
      <glyph glyph-name="uni0454" unicode="&#x0454;" d="M61 345Q64 278 91 219Q118 160 163 116Q208 72 268 46.50Q328 21 396 21Q541 21 642 129L673 101Q564-20 396-20Q318-20 249 10Q180 40 129 91Q78 142 48 211Q18 280 18 358Q18 437 48 506Q78 575 129.50 626Q181 677 250 706.50Q319 736 396 736Q527 736 527 637Q527 616 523 605L479 605Q483 616 483 633Q483 695 396 695Q330 695 271 670.50Q212 646 167.50 604Q123 562 95 505Q67 448 62 384L365 384L365 345L61 345Z"  horiz-adv-x="690" vert-adv-y="1000"  />

      
      <glyph glyph-name="uni040E" unicode="&#x040E;" d="M474 708L185-11L146 5L242 252L6 706L47 727L266 305L435 724L474 708M438 884L247 714L138 812L157 853L249 771L414 917L438 884Z"  horiz-adv-x="224" vert-adv-y="1000"  />

      
      <glyph glyph-name="uni045E" unicode="&#x045E;" d="M37 717L77 726L153 399L191 726L233 717L136-7L94 5L136 304L37 717M183 815L183 774L84 774L85 815L183 815Z"  horiz-adv-x="251" vert-adv-y="1000"  />

      
      <glyph glyph-name="uni0401" unicode="&#x0401;" d="M88 679L177 678L177 718L46 718L46 0L177 0L177 40L88 39L88 273L162 273L162 312L88 312L87 678L88 679M233 818Q233 799 219 784.50Q205 770 185 770Q166 770 152 784Q138 798 138 818Q138 838 152 851.50Q166 865 185 865Q205 865 219 851Q233 837 233 818M74 818Q74 799 60 784.50Q46 770 26 770Q7 770-7 784Q-21 798-21 818Q-21 838-7 851.50Q7 865 26 865Q46 865 60 851Q74 837 74 818Z"  horiz-adv-x="217" vert-adv-y="1000"  />

      
      <glyph glyph-name="uni0451" unicode="&#x0451;" d="M88 679L177 678L177 718L46 718L46 0L177 0L177 40L88 39L88 273L162 273L162 312L88 312L87 678L88 679M233 818Q233 799 219 784.50Q205 770 185 770Q166 770 152 784Q138 798 138 818Q138 838 152 851.50Q166 865 185 865Q205 865 219 851Q233 837 233 818M74 818Q74 799 60 784.50Q46 770 26 770Q7 770-7 784Q-21 798-21 818Q-21 838-7 851.50Q7 865 26 865Q46 865 60 851Q74 837 74 818Z"  horiz-adv-x="217" vert-adv-y="1000"  />

      
      <glyph glyph-name="uni2116" unicode="&#x2116;" d="M867 464L665 464L665 506L867 506L867 464M840 644Q840 615 818 593.50Q796 572 765 572Q734 572 711.50 593.50Q689 615 689 644Q689 675 711.50 696.50Q734 718 765 718Q796 718 818 696.50Q840 675 840 644M799 644Q799 658 789 668Q779 678 765 678Q751 678 741 668Q731 658 731 644Q731 612 765 612Q799 612 799 644M624-29L95 616L95 0L53 0L53 666L15 715L48 739L583 86L583 718L624 718L624-29Z"  horiz-adv-x="895" vert-adv-y="1000"  />

      
      <glyph glyph-name="uni0431" unicode="&#x0431;" d="M195 718L195 677L73 677L72 533Q142 496 185 423Q227 349 227 266Q227 180 185 108Q143 39 71 0L30 0L30 718L195 718M184 266Q184 337 155 393Q126 449 72 487L72 47Q126 84 155 140Q184 196 184 266Z"  horiz-adv-x="256" vert-adv-y="1000"  />

      
      <glyph glyph-name="uni0432" unicode="&#x0432;" d="M205 562Q205 516 179.50 477.50Q154 439 112 420Q200 345 200 225Q200 152 164 91Q128 33 66 0L26 0L26 718L55 718Q119 718 162 671Q205 624 205 562M158 225Q158 343 67 406L67 48Q109 73 133.50 121Q158 169 158 225M164 562Q164 605 134.50 639.50Q105 674 67 676L67 447Q107 452 135.50 486.50Q164 521 164 562Z"  horiz-adv-x="237" vert-adv-y="1000"  />

      
      <glyph glyph-name="uni0433" unicode="&#x0433;" d="M175 677L68 677L68 0L26 0L26 718L175 718L175 677Z"  horiz-adv-x="212" vert-adv-y="1000"  />

      
      <glyph glyph-name="uni0434" unicode="&#x0434;" d="M312 151L328 42L333 42Q403 38 403-26L403-80L360-80L360-26Q360-1 333-1L95 0Q68 0 68-23L68-76L25-76L25-22Q25 42 95 42L108 42L196 718L233 718L312 151M149 42L288 42L215 582L149 42Z"  horiz-adv-x="434" vert-adv-y="1000"  />

      
      <glyph glyph-name="uni0435" unicode="&#x0435;" d="M87 678L88 312L169 312L169 273L88 273L88 39L177 40L177 0L46 0L46 718L177 718L177 678L88 679L87 678Z"  horiz-adv-x="217" vert-adv-y="1000"  />

      
      <glyph glyph-name="uni0436" unicode="&#x0436;" d="M277 1L277 375L120 375L120 102Q120 56 90 26.50Q60-3 16-3L16 37Q41 37 60 56.50Q79 76 79 102L79 415L148 415L42 719L87 719L193 420L277 420L277 719L318 719L318 420L403 420L509 719L554 719L448 415L513 415L513 102Q513 76 532 56.50Q551 37 576 37L576-3Q532-3 502 26.50Q472 56 472 102L472 375L318 375L318 1L277 1Z"  horiz-adv-x="593" vert-adv-y="1000"  />

      
      <glyph glyph-name="uni0437" unicode="&#x0437;" d="M430 253Q430 200 410 153.50Q390 107 357 72.50Q324 38 280.50 18Q237-2 190-2Q155-2 116 12Q77 26 47 55Q25 79 17.50 105.50Q10 132 13.50 156.50Q17 181 30 201Q43 221 63 232.50Q83 244 108 244Q133 244 160 229L147 194Q128 207 110.50 206.50Q93 206 79.50 196.50Q66 187 58.50 171.50Q51 156 51 140Q51 115 65.50 96Q80 77 101.50 64.50Q123 52 147 46Q171 40 190 40Q229 40 265 56.50Q301 73 328.50 102Q356 131 372.50 170Q389 209 389 253Q388 295 370.50 331Q353 367 324.50 393.50Q296 420 257.50 436Q219 452 176 454L184 492Q203 488 216 488Q248 488 269 503Q290 518 299.50 540Q309 562 307.50 588Q306 614 293.50 635Q281 656 258.50 669Q236 682 204 679Q190 677 177.50 670Q165 663 156.50 651Q148 639 145.50 623.50Q143 608 149 590L106 590Q99 615 103.50 637.50Q108 660 121 676.50Q134 693 153.50 703Q173 713 197 715Q231 718 259.50 709Q288 700 308.50 682.50Q329 665 340.50 639.50Q352 614 352 583Q352 500 283 467Q357 429 393.50 378.50Q430 328 430 253Z"  horiz-adv-x="451" vert-adv-y="1000"  />

      
      <glyph glyph-name="uni0438" unicode="&#x0438;" d="M72 69L503 279L503 716L545 716L545-2L503-2L503 229L28 0L28 717L72 717L72 69Z"  horiz-adv-x="578" vert-adv-y="1000"  />

      
      <glyph glyph-name="uni0439" unicode="&#x0439;" d="M72 71L503 277L503 716L545 716L545-2L503-2L503 229L28 0L28 717L72 717L72 71M486 884L295 714L186 812L205 853L297 771L462 917L486 884Z"  horiz-adv-x="578" vert-adv-y="1000"  />

      
      <glyph glyph-name="uni043A" unicode="&#x043A;" d="M35 719L76 719L75 432L185 719L227 719L115 416L187 416L188 102Q188 76 207 56.50Q226 37 251 37L251-3Q207-3 177 26.50Q147 56 147 102L146 376L75 376L76 1L35 1L35 719Z"  horiz-adv-x="280" vert-adv-y="1000"  />

      
      <glyph glyph-name="uni043B" unicode="&#x043B;" d="M222 0L180 0L180 620Q180 651 165.50 669Q151 687 129 687Q107 687 92.50 669Q78 651 78 620L78 0L37 0L37 620Q37 663 62.50 695Q88 727 129 727Q170 727 196 695Q222 663 222 620L222 0Z"  horiz-adv-x="261" vert-adv-y="1000"  />

      
      <glyph glyph-name="uni043D" unicode="&#x043D;" d="M267 273L220 273L220 0L178 0L178 273L98 273L98 0L56 0L56 273L8 273L8 312L56 312L56 718L98 718L98 312L178 312L178 718L220 718L220 312L267 312L267 273Z"  horiz-adv-x="281" vert-adv-y="1000"  />

      
      <glyph glyph-name="uni043F" unicode="&#x043F;" d="M638 677L591 677L592-1L551-1L547 677L119 678L120 0L78 0L77 678L29 678L29 717L638 716L638 677Z"  horiz-adv-x="673" vert-adv-y="1000"  />

      
      <glyph glyph-name="uni0440" unicode="&#x0440;" d="M200 493Q200 422 164 360.50Q128 299 67 268L67 0L25 0L25 718L66 718Q128 685 164 627Q200 566 200 493M158 493Q158 611 67 672L67 312Q158 375 158 493Z"  horiz-adv-x="224" vert-adv-y="1000"  />

      
      <glyph glyph-name="uni0441" unicode="&#x0441;" d="M685 101Q575-20 408-20Q251-20 140.50 91Q30 202 30 358Q30 515 140.50 625.50Q251 736 408 736Q539 736 539 637Q539 617 535 605L491 605Q495 617 495 633Q495 695 408 695Q269 695 171 596Q73 497 73 358Q73 219 171 120Q269 21 408 21Q554 21 654 129L685 101Z"  horiz-adv-x="690" vert-adv-y="1000"  />

      
      <glyph glyph-name="uni0442" unicode="&#x0442;" d="M215 678L142 678L142 0L100 0L100 678L27 678L27 718L215 718L215 678Z"  horiz-adv-x="239" vert-adv-y="1000"  />

      
      <glyph glyph-name="uni0445" unicode="&#x0445;" d="M245 3L204-6L134 321L64-6L24 3L113 416L48 715L89 727L134 514L179 727L219 715L155 419L245 3Z"  horiz-adv-x="266" vert-adv-y="1000"  />

      
      <glyph glyph-name="uni0446" unicode="&#x0446;" d="M192 1L193 0L151 0L150 1L70 1L71 0L29 0L28 1L29 718L71 718L70 40L150 40L151 718L193 718L192 40Q262 40 262-24L262-78L219-78L219-24Q219-1 192-1L192 1Z"  horiz-adv-x="280" vert-adv-y="1000"  />

      
      <glyph glyph-name="uni0447" unicode="&#x0447;" d="M210 0L168 0L168 302Q157 290 144 282Q131 274 118 274Q100 274 83.50 280Q67 286 54 299Q41 312 33 331Q25 350 25 376L25 717L66 717L67 376Q67 344 83 327.50Q99 311 118 311Q135 311 149.50 327Q164 343 168 368L168 718L210 718L210 0Z"  horiz-adv-x="241" vert-adv-y="1000"  />

      
      <glyph glyph-name="uni0448" unicode="&#x0448;" d="M211 720L209 40L300 40L300 719L343 719L343 0L32 0L31-1L31 720L74 720L74 40L163 40L167 720L211 720Z"  horiz-adv-x="380" vert-adv-y="1000"  />

      
      <glyph glyph-name="uni0449" unicode="&#x0449;" d="M154 719L196 719L195 41L275 41L276 719L318 719L317 41Q387 41 387-23L387-77L344-77L344-23Q344 0 317 0L317 2L318 1L30 0L29 1L30 721L72 721L74 40L151 40L152 718L154 719Z"  horiz-adv-x="412" vert-adv-y="1000"  />

      
      <glyph glyph-name="uni044A" unicode="&#x044A;" d="M133 679L101 679Q74 679 74 656L74 602L31 602L31 656Q31 720 101 718L174 718L174 533Q244 496 287 423Q329 349 329 266Q329 180 287 108Q245 39 173 0L132 0L133 679M286 266Q286 337 257 393Q228 449 174 487L174 47Q228 84 257 140Q286 196 286 266Z"  horiz-adv-x="361" vert-adv-y="1000"  />

      
      <glyph glyph-name="uni044B" unicode="&#x044B;" d="M30 0L30 718L72 718L72 533Q142 496 185 423Q227 349 227 266Q227 180 185 108Q143 39 71 0L30 0M184 266Q184 337 155 393Q126 449 72 487L72 47Q126 84 155 140Q184 196 184 266M319-1L277-1L277 717L319 717L319-1Z"  horiz-adv-x="351" vert-adv-y="1000"  />

      
      <glyph glyph-name="uni044C" unicode="&#x044C;" d="M35 0L35 718L77 718L77 533Q147 496 190 423Q232 349 232 266Q232 180 190 108Q148 39 76 0L35 0M189 266Q189 337 160 393Q131 449 77 487L77 47Q131 84 160 140Q189 196 189 266Z"  horiz-adv-x="263" vert-adv-y="1000"  />

      
      <glyph glyph-name="uni044D" unicode="&#x044D;" d="M281 717Q329 711 366.50 691.50Q404 672 436 643Q494 589 521 510Q548 431 544 343Q541 271 514 206Q487 141 441 92.50Q395 44 332.50 15.50Q270-13 195-13Q160-13 121 1Q82 15 52 44Q30 68 22.50 94.50Q15 121 18.50 145.50Q22 170 35 190Q48 210 68 221.50Q88 233 113 233Q138 233 165 218L152 183Q133 196 115.50 195.50Q98 195 84.50 185.50Q71 176 63.50 160.50Q56 145 56 129Q56 104 70.50 84.50Q85 65 106.50 51.50Q128 38 152 31Q176 24 195 24Q270 25 331 59Q392 93 433 149Q463 191 480.50 242.50Q498 294 498 349L241 349L241 388L497 388Q499 428 487 470Q475 512 453.50 550Q432 588 401.50 618Q371 648 334.50 663.50Q298 679 258 676.50Q218 674 177 647Q152 630 136 604.50Q120 579 115 541L71 540Q75 584 92.50 617.50Q110 651 138 673.50Q166 696 202.50 707Q239 718 281 717Z"  horiz-adv-x="566" vert-adv-y="1000"  />

      
      <glyph glyph-name="uni044E" unicode="&#x044E;" d="M22 351L22 390L77 390L77 718L119 718L119 390L174 390Q184 526 283 625Q394 736 551 736Q708 736 818.50 625.50Q929 515 929 358Q929 201 818.50 90.50Q708-20 551-20Q394-20 283 90Q175 198 173 351L119 351L119 0L77 0L77 351L22 351M886 358Q886 497 788 595Q690 693 551 693Q412 693 314 595Q227 508 217 390L289 390L289 351L216 351Q218 216 314 121Q412 23 551 23Q690 23 788 121Q886 219 886 358Z"  horiz-adv-x="951" vert-adv-y="1000"  />

      
      <glyph glyph-name="uni044F" unicode="&#x044F;" d="M15 36Q41 36 59.50 54.50Q78 73 78 101L78 312L128 312Q55 387 55 493Q55 566 91 627Q127 685 189 718L229 718L229 0L188 0L188 272L119 272L119 101Q119 55 89 25.50Q59-4 15-4L15 36M97 493Q97 375 188 312L188 671Q97 611 97 493Z"  horiz-adv-x="259" vert-adv-y="1000"  />

      
      <glyph glyph-name="uni0423" unicode="&#x0423;" d="M474 708L185-11L146 5L242 252L6 706L47 727L266 305L435 724L474 708Z"  horiz-adv-x="478" vert-adv-y="1000"  />

      
      <glyph glyph-name="uni0430" unicode="&#x0430;" d="M268 151L235 151L256 0L215 0L194 151L88 151L69 0L27 0L46 151L12 151L12 190L51 190L119 718L156 718L230 190L268 190L268 151M188 190L138 582L92 190L188 190Z"  horiz-adv-x="286" vert-adv-y="1000"  />

      
      <glyph glyph-name="uni0444" unicode="&#x0444;" d="M222 638Q169 618 135.50 571Q102 524 87 464Q72 404 74 338.50Q76 273 93.50 217Q111 161 143.50 121.50Q176 82 222 74L222 638M222 0L222 38Q155 51 111.50 100Q68 149 47.50 215.50Q27 282 29 357.50Q31 433 53.50 500Q76 567 118.50 616Q161 665 222 679L222 718L264 718L264 679Q314 665 350.50 631.50Q387 598 411 552.50Q435 507 446 453.50Q457 400 456 345Q455 290 442 237.50Q429 185 405 143Q381 101 345.50 73Q310 45 264 38L264 0L222 0M264 75Q310 83 342.50 122.50Q375 162 392.50 218Q410 274 412 339Q414 404 399 464Q384 524 350.50 571Q317 618 264 638L264 75Z"  horiz-adv-x="485" vert-adv-y="1000"  />

      
      <glyph glyph-name="uni0443" unicode="&#x0443;" d="M14 717L54 726L130 399L168 726L210 717L113-7L71 5L113 304L14 717Z"  horiz-adv-x="232" vert-adv-y="1000"  />

      
      <glyph glyph-name="uni043E" unicode="&#x043E;" d="M778 358Q778 201 667.50 90.50Q557-20 400-20Q243-20 132.50 90.50Q22 201 22 358Q22 515 132.50 625.50Q243 736 400 736Q557 736 667.50 625.50Q778 515 778 358M735 358Q735 497 637 595Q539 693 400 693Q261 693 163 595Q65 497 65 358Q65 219 163 121Q261 23 400 23Q539 23 637 121Q735 219 735 358Z"  horiz-adv-x="800" vert-adv-y="1000"  />

      
      <glyph glyph-name="uni6d" unicode="&#x6d;" d="M197 315L69 602L70 0L29 0L29 718L65 718L197 414L326 718L364 718L361 0L319 0L320 608L197 315Z"  horiz-adv-x="393" vert-adv-y="1000"  />

      
      <glyph glyph-name="uni48" unicode="&#x48;" d="M270 273L223 273L223 0L181 0L181 273L101 273L101 0L59 0L59 273L11 273L11 312L59 312L59 718L101 718L101 312L181 312L181 718L223 718L223 312L270 312L270 273Z"  horiz-adv-x="281" vert-adv-y="1000"  />

      
      <glyph glyph-name="uni043C" unicode="&#x043C;" d="M197 315L69 602L70 0L29 0L29 718L65 718L197 414L326 718L364 718L361 0L319 0L320 608L197 315Z"  horiz-adv-x="393" vert-adv-y="1000"  />

      
      <glyph glyph-name="uni4d" unicode="&#x4d;" d="M381 315L254 636L43-7L4 4L249 751L380 427L512 750L757 3L718-8L507 635L381 315Z"  horiz-adv-x="766" vert-adv-y="1000"  />

      
      <glyph glyph-name="uni4e" unicode="&#x4e;" d="M71 0L29 0L29 718L151 487L151 718L193 718L193 0L151 0L151 403L71 547L71 0Z"  horiz-adv-x="224" vert-adv-y="1000"  />

      
      <glyph glyph-name="uni6e" unicode="&#x6e;" d="M71 0L29 0L29 718L151 487L151 718L193 718L193 0L151 0L151 403L71 547L71 0Z"  horiz-adv-x="224" vert-adv-y="1000"  />

      
      <glyph glyph-name="uni6f" unicode="&#x6f;" d="M778 358Q778 201 667.50 90.50Q557-20 400-20Q243-20 132.50 90.50Q22 201 22 358Q22 515 132.50 625.50Q243 736 400 736Q557 736 667.50 625.50Q778 515 778 358M735 358Q735 497 637 595Q539 693 400 693Q261 693 163 595Q65 497 65 358Q65 219 163 121Q261 23 400 23Q539 23 637 121Q735 219 735 358Z"  horiz-adv-x="800" vert-adv-y="1000"  />

      
      <glyph glyph-name="uni59" unicode="&#x59;" d="M474 708L185-11L146 5L242 252L6 706L47 727L266 305L435 724L474 708Z"  horiz-adv-x="478" vert-adv-y="1000"  />

      
      <glyph glyph-name="uni61" unicode="&#x61;" d="M268 151L235 151L256 0L215 0L194 151L88 151L69 0L27 0L46 151L12 151L12 190L51 190L119 718L156 718L230 190L268 190L268 151M188 190L138 582L92 190L188 190Z"  horiz-adv-x="286" vert-adv-y="1000"  />

      
      <glyph glyph-name="uni62" unicode="&#x62;" d="M205 562Q205 516 179.50 477.50Q154 439 112 420Q200 345 200 225Q200 152 164 91Q128 33 66 0L26 0L26 718L55 718Q119 718 162 671Q205 624 205 562M158 225Q158 343 67 406L67 48Q109 73 133.50 121Q158 169 158 225M164 562Q164 605 134.50 639.50Q105 674 67 676L67 447Q107 452 135.50 486.50Q164 521 164 562Z"  horiz-adv-x="237" vert-adv-y="1000"  />

      

  </font>
</defs>
</svg>
